Hack-BoldItalic.ufo
<glyph name="percent" format="1">
  <advance width="1233"/>
  <unicode hex="0025"/>
  <note>
	percent
  </note>
  <outline>
    <contour>
      <point x="264" y="778"/>
      <point x="176" y="807"/>
      <point x="109" y="871" type="curve" smooth="yes"/>
      <point x="52" y="927"/>
      <point x="13" y="1009"/>
      <point x="13" y="1105" type="curve" smooth="yes"/>
      <point x="13" y="1198"/>
      <point x="49" y="1280"/>
      <point x="109" y="1339" type="curve" smooth="yes"/>
      <point x="172" y="1400"/>
      <point x="257" y="1432"/>
      <point x="360" y="1432" type="curve" smooth="yes"/>
      <point x="361" y="1432"/>
      <point x="365" y="1432"/>
      <point x="370" y="1432" type="curve" smooth="yes"/>
      <point x="375" y="1432"/>
      <point x="380" y="1432"/>
      <point x="385" y="1431" type="curve" smooth="yes"/>
      <point x="390" y="1430"/>
      <point x="395" y="1430"/>
      <point x="402" y="1429" type="curve" smooth="yes"/>
      <point x="408" y="1428"/>
      <point x="414" y="1427"/>
      <point x="419" y="1426" type="curve" smooth="yes"/>
      <point x="424" y="1425"/>
      <point x="429" y="1424"/>
      <point x="433" y="1423" type="curve"/>
      <point x="441" y="1422"/>
      <point x="468" y="1414"/>
      <point x="476" y="1411" type="curve"/>
      <point x="480" y="1409"/>
      <point x="483" y="1408"/>
      <point x="484" y="1407" type="curve"/>
      <point x="501" y="1400"/>
      <point x="511" y="1396"/>
      <point x="520" y="1392" type="curve"/>
      <point x="524" y="1390"/>
      <point x="528" y="1388"/>
      <point x="532" y="1386" type="curve"/>
      <point x="535" y="1383"/>
      <point x="540" y="1380"/>
      <point x="545" y="1377" type="curve" smooth="yes"/>
      <point x="584" y="1353"/>
      <point x="614" y="1324"/>
      <point x="640" y="1289" type="curve" smooth="yes"/>
      <point x="653" y="1272"/>
      <point x="664" y="1252"/>
      <point x="673" y="1231" type="curve" smooth="yes"/>
      <point x="691" y="1191"/>
      <point x="700" y="1148"/>
      <point x="700" y="1103" type="curve" smooth="yes"/>
      <point x="700" y="1012"/>
      <point x="667" y="937"/>
      <point x="599" y="873" type="curve" smooth="yes"/>
      <point x="570" y="846"/>
      <point x="533" y="821"/>
      <point x="486" y="802" type="curve" smooth="yes"/>
      <point x="444" y="786"/>
      <point x="400" y="778"/>
      <point x="353" y="778" type="curve" smooth="yes"/>
    </contour>
    <contour>
      <point x="375" y="943"/>
      <point x="398" y="947"/>
      <point x="419" y="955" type="curve"/>
      <point x="434" y="960"/>
      <point x="453" y="969"/>
      <point x="476" y="990" type="curve" smooth="yes"/>
      <point x="511" y="1022"/>
      <point x="528" y="1058"/>
      <point x="528" y="1103" type="curve" smooth="yes"/>
      <point x="528" y="1149"/>
      <point x="511" y="1188"/>
      <point x="477" y="1219" type="curve" smooth="yes"/>
      <point x="442" y="1250"/>
      <point x="398" y="1266"/>
      <point x="351" y="1266" type="curve" smooth="yes"/>
      <point x="304" y="1266"/>
      <point x="258" y="1251"/>
      <point x="226" y="1220" type="curve" smooth="yes"/>
      <point x="194" y="1189"/>
      <point x="178" y="1147"/>
      <point x="178" y="1104" type="curve" smooth="yes"/>
      <point x="178" y="1060"/>
      <point x="194" y="1020"/>
      <point x="225" y="989" type="curve" smooth="yes"/>
      <point x="254" y="961"/>
      <point x="299" y="943"/>
      <point x="351" y="943" type="curve" smooth="yes"/>
    </contour>
    <contour>
      <point x="22" y="570" type="line"/>
      <point x="1232" y="1018" type="line"/>
      <point x="1232" y="873" type="line"/>
      <point x="22" y="431" type="line"/>
    </contour>
    <contour>
      <point x="851" y="0"/>
      <point x="806" y="8"/>
      <point x="764" y="24" type="curve" smooth="yes"/>
      <point x="727" y="39"/>
      <point x="689" y="59"/>
      <point x="652" y="94" type="curve" smooth="yes"/>
      <point x="632" y="113"/>
      <point x="612" y="137"/>
      <point x="597" y="162" type="curve" smooth="yes"/>
      <point x="566" y="211"/>
      <point x="553" y="266"/>
      <point x="553" y="327" type="curve" smooth="yes"/>
      <point x="553" y="423"/>
      <point x="591" y="502"/>
      <point x="654" y="561" type="curve" smooth="yes"/>
      <point x="718" y="621"/>
      <point x="803" y="654"/>
      <point x="900" y="654" type="curve" smooth="yes"/>
      <point x="948" y="654"/>
      <point x="992" y="646"/>
      <point x="1031" y="629" type="curve" smooth="yes"/>
      <point x="1071" y="612"/>
      <point x="1115" y="583"/>
      <point x="1140" y="558" type="curve" smooth="yes"/>
      <point x="1146" y="552"/>
      <point x="1150" y="548"/>
      <point x="1153" y="545" type="curve"/>
      <point x="1155" y="542"/>
      <point x="1157" y="540"/>
      <point x="1159" y="538" type="curve"/>
      <point x="1160" y="535"/>
      <point x="1172" y="521"/>
      <point x="1175" y="518" type="curve"/>
      <point x="1178" y="513"/>
      <point x="1180" y="510"/>
      <point x="1181" y="509" type="curve" smooth="yes"/>
      <point x="1182" y="508"/>
      <point x="1182" y="508"/>
      <point x="1182" y="508" type="curve"/>
      <point x="1182" y="507"/>
      <point x="1182" y="507"/>
      <point x="1183" y="506" type="curve" smooth="yes"/>
      <point x="1184" y="505"/>
      <point x="1186" y="501"/>
      <point x="1189" y="496" type="curve" smooth="yes"/>
      <point x="1203" y="474" type="line"/>
      <point x="1204" y="471"/>
      <point x="1206" y="467"/>
      <point x="1209" y="462" type="curve"/>
      <point x="1211" y="457"/>
      <point x="1213" y="453"/>
      <point x="1214" y="451" type="curve" smooth="yes"/>
      <point x="1225" y="428"/>
      <point x="1230" y="407"/>
      <point x="1234" y="390" type="curve" smooth="yes"/>
      <point x="1238" y="371"/>
      <point x="1240" y="346"/>
      <point x="1240" y="325" type="curve" smooth="yes"/>
      <point x="1240" y="240"/>
      <point x="1207" y="156"/>
      <point x="1144" y="95" type="curve" smooth="yes"/>
      <point x="1087" y="39"/>
      <point x="1002" y="0"/>
      <point x="898" y="0" type="curve" smooth="yes"/>
    </contour>
    <contour>
      <point x="949" y="165"/>
      <point x="991" y="181"/>
      <point x="1024" y="212" type="curve" smooth="yes"/>
      <point x="1057" y="243"/>
      <point x="1073" y="282"/>
      <point x="1073" y="325" type="curve" smooth="yes"/>
      <point x="1073" y="369"/>
      <point x="1056" y="411"/>
      <point x="1024" y="442" type="curve" smooth="yes"/>
      <point x="997" y="469"/>
      <point x="955" y="489"/>
      <point x="899" y="489" type="curve" smooth="yes"/>
      <point x="852" y="489"/>
      <point x="808" y="474"/>
      <point x="775" y="443" type="curve" smooth="yes"/>
      <point x="742" y="412"/>
      <point x="725" y="373"/>
      <point x="725" y="326" type="curve" smooth="yes"/>
      <point x="725" y="310"/>
      <point x="727" y="299"/>
      <point x="731" y="284" type="curve" smooth="yes"/>
      <point x="735" y="269"/>
      <point x="739" y="258"/>
      <point x="747" y="245" type="curve" smooth="yes"/>
      <point x="752" y="237"/>
      <point x="763" y="222"/>
      <point x="775" y="211" type="curve" smooth="yes"/>
      <point x="792" y="195"/>
      <point x="810" y="185"/>
      <point x="831" y="177" type="curve" smooth="yes"/>
      <point x="852" y="169"/>
      <point x="875" y="165"/>
      <point x="900" y="165" type="curve" smooth="yes"/>
    </contour>
  </outline>
</glyph>
<glyph name="parenleft" format="1">
  <advance width="1233"/>
  <unicode hex="0028"/>
  <note>
	parenleft
  </note>
  <outline>
    <contour>
      <point x="388" y="-161"/>
      <point x="346" y="-49"/>
      <point x="318" y="67" type="curve" smooth="yes"/>
      <point x="291" y="176"/>
      <point x="278" y="284"/>
      <point x="278" y="393" type="curve" smooth="yes"/>
      <point x="278" y="592"/>
      <point x="321" y="779"/>
      <point x="408" y="974" type="curve" smooth="yes"/>
      <point x="495" y="1169"/>
      <point x="617" y="1354"/>
      <point x="794" y="1554" type="curve"/>
      <point x="1019" y="1554" type="line"/>
      <point x="707" y="1135"/>
      <point x="552" y="737"/>
      <point x="552" y="346" type="curve" smooth="yes"/>
      <point x="552" y="251"/>
      <point x="561" y="153"/>
      <point x="580" y="50" type="curve" smooth="yes"/>
      <point x="600" y="-58"/>
      <point x="629" y="-165"/>
      <point x="665" y="-270" type="curve"/>
      <point x="440" y="-270" type="line"/>
    </contour>
  </outline>
</glyph>
<glyph name="parenright" format="1">
  <advance width="1233"/>
  <unicode hex="0029"/>
  <note>
	parenright
  </note>
  <outline>
    <contour>
      <point x="554" y="147"/>
      <point x="710" y="547"/>
      <point x="710" y="939" type="curve" smooth="yes"/>
      <point x="710" y="1034"/>
      <point x="701" y="1131"/>
      <point x="682" y="1235" type="curve" smooth="yes"/>
      <point x="663" y="1338"/>
      <point x="634" y="1445"/>
      <point x="597" y="1554" type="curve"/>
      <point x="822" y="1554" type="line"/>
      <point x="877" y="1439"/>
      <point x="917" y="1327"/>
      <point x="944" y="1218" type="curve" smooth="yes"/>
      <point x="971" y="1107"/>
      <point x="984" y="999"/>
      <point x="984" y="892" type="curve" smooth="yes"/>
      <point x="984" y="697"/>
      <point x="942" y="505"/>
      <point x="855" y="310" type="curve" smooth="yes"/>
      <point x="770" y="118"/>
      <point x="640" y="-75"/>
      <point x="468" y="-270" type="curve"/>
      <point x="243" y="-270" type="line"/>
    </contour>
  </outline>
</glyph>
<glyph name="slash" format="1">
  <advance width="1233"/>
  <unicode hex="002F"/>
  <note>
	slash
  </note>
  <outline>
    <contour>
      <point x="852" y="1493" type="line"/>
      <point x="1075" y="1493" type="line"/>
      <point x="221" y="-190" type="line"/>
      <point x="0" y="-190" type="line"/>
    </contour>
  </outline>
</glyph>
<glyph name="five" format="1">
  <advance width="1233"/>
  <unicode hex="0035"/>
  <note>
	five
  </note>
  <outline>
    <contour>
      <point x="324" y="-29"/>
      <point x="261" y="-24"/>
      <point x="197" y="-13" type="curve" smooth="yes"/>
      <point x="132" y="-2"/>
      <point x="69" y="14"/>
      <point x="6" y="35" type="curve"/>
      <point x="57" y="301" type="line"/>
      <point x="103" y="274"/>
      <point x="155" y="254"/>
      <point x="213" y="240" type="curve" smooth="yes"/>
      <point x="270" y="225"/>
      <point x="331" y="219"/>
      <point x="391" y="219" type="curve" smooth="yes"/>
      <point x="511" y="219"/>
      <point x="600" y="246"/>
      <point x="665" y="298" type="curve" smooth="yes"/>
      <point x="732" y="351"/>
      <point x="764" y="424"/>
      <point x="764" y="509" type="curve" smooth="yes"/>
      <point x="764" y="653"/>
      <point x="663" y="737"/>
      <point x="498" y="737" type="curve" smooth="yes"/>
      <point x="401" y="737"/>
      <point x="287" y="711"/>
      <point x="178" y="659" type="curve"/>
      <point x="340" y="1493" type="line"/>
      <point x="1151" y="1493" type="line"/>
      <point x="1100" y="1233" type="line"/>
      <point x="528" y="1233" type="line"/>
      <point x="475" y="956" type="line"/>
      <point x="516" y="973"/>
      <point x="566" y="981"/>
      <point x="622" y="981" type="curve" smooth="yes"/>
      <point x="754" y="981"/>
      <point x="863" y="938"/>
      <point x="936" y="865" type="curve" smooth="yes"/>
      <point x="1011" y="790"/>
      <point x="1051" y="684"/>
      <point x="1051" y="545" type="curve" smooth="yes"/>
      <point x="1051" y="376"/>
      <point x="992" y="231"/>
      <point x="873" y="127" type="curve" smooth="yes"/>
      <point x="756" y="23"/>
      <point x="591" y="-29"/>
      <point x="387" y="-29" type="curve" smooth="yes"/>
    </contour>
  </outline>
</glyph>
<glyph name="B" format="1">
  <advance width="1233"/>
  <unicode hex="0042"/>
  <note>
	B
  </note>
  <outline>
    <contour>
      <point x="270" y="1495" type="line"/>
      <point x="752" y="1495" type="line" smooth="yes"/>
      <point x="1032" y="1495"/>
      <point x="1178" y="1384"/>
      <point x="1178" y="1164" type="curve" smooth="yes"/>
      <point x="1178" y="952"/>
      <point x="1046" y="811"/>
      <point x="813" y="786" type="curve"/>
      <point x="901" y="779"/>
      <point x="978" y="748"/>
      <point x="1029" y="696" type="curve" smooth="yes"/>
      <point x="1081" y="643"/>
      <point x="1106" y="568"/>
      <point x="1106" y="480" type="curve" smooth="yes"/>
      <point x="1106" y="416"/>
      <point x="1093" y="347"/>
      <point x="1068" y="284" type="curve" smooth="yes"/>
      <point x="1044" y="224"/>
      <point x="1008" y="170"/>
      <point x="961" y="127" type="curve" smooth="yes"/>
      <point x="862" y="38"/>
      <point x="720" y="0"/>
      <point x="461" y="0" type="curve" smooth="yes"/>
      <point x="-20" y="0" type="line"/>
    </contour>
    <contour>
      <point x="639" y="913" type="line" smooth="yes"/>
      <point x="720" y="913"/>
      <point x="781" y="931"/>
      <point x="822" y="968" type="curve" smooth="yes"/>
      <point x="861" y="1003"/>
      <point x="883" y="1054"/>
      <point x="883" y="1123" type="curve" smooth="yes"/>
      <point x="883" y="1176"/>
      <point x="869" y="1207"/>
      <point x="840" y="1228" type="curve" smooth="yes"/>
      <point x="811" y="1249"/>
      <point x="766" y="1260"/>
      <point x="707" y="1260" type="curve" smooth="yes"/>
      <point x="510" y="1260" type="line"/>
      <point x="442" y="913" type="line"/>
    </contour>
    <contour>
      <point x="508" y="236" type="line" smooth="yes"/>
      <point x="613" y="236"/>
      <point x="689" y="258"/>
      <point x="738" y="303" type="curve" smooth="yes"/>
      <point x="787" y="348"/>
      <point x="811" y="418"/>
      <point x="811" y="501" type="curve" smooth="yes"/>
      <point x="811" y="573"/>
      <point x="793" y="610"/>
      <point x="758" y="637" type="curve" smooth="yes"/>
      <point x="723" y="664"/>
      <point x="668" y="678"/>
      <point x="594" y="678" type="curve" smooth="yes"/>
      <point x="397" y="678" type="line"/>
      <point x="311" y="236" type="line"/>
    </contour>
  </outline>
</glyph>
<glyph name="I" format="1">
  <advance width="1233"/>
  <unicode hex="0049"/>
  <note>
	I
  </note>
  <outline>
    <contour>
      <point x="78" y="260" type="line"/>
      <point x="375" y="260" type="line"/>
      <point x="563" y="1233" type="line"/>
      <point x="266" y="1233" type="line"/>
      <point x="317" y="1493" type="line"/>
      <point x="1206" y="1493" type="line"/>
      <point x="1155" y="1233" type="line"/>
      <point x="858" y="1233" type="line"/>
      <point x="670" y="260" type="line"/>
      <point x="967" y="260" type="line"/>
      <point x="915" y="0" type="line"/>
      <point x="27" y="0" type="line"/>
    </contour>
  </outline>
</glyph>
<glyph name="J" format="1">
  <advance width="1233"/>
  <unicode hex="004A"/>
  <note>
	J
  </note>
  <outline>
    <contour>
      <point x="338" y="-29"/>
      <point x="261" y="-20"/>
      <point x="192" y="-3" type="curve" smooth="yes"/>
      <point x="131" y="12"/>
      <point x="56" y="39"/>
      <point x="-20" y="78" type="curve"/>
      <point x="45" y="422" type="line"/>
      <point x="149" y="294"/>
      <point x="265" y="231"/>
      <point x="406" y="231" type="curve" smooth="yes"/>
      <point x="481" y="231"/>
      <point x="537" y="249"/>
      <point x="575" y="285" type="curve" smooth="yes"/>
      <point x="614" y="321"/>
      <point x="640" y="382"/>
      <point x="659" y="479" type="curve" smooth="yes"/>
      <point x="807" y="1233" type="line"/>
      <point x="446" y="1233" type="line"/>
      <point x="498" y="1493" type="line"/>
      <point x="1153" y="1493" type="line"/>
      <point x="954" y="479" type="line" smooth="yes"/>
      <point x="931" y="362"/>
      <point x="907" y="280"/>
      <point x="880" y="223" type="curve" smooth="yes"/>
      <point x="853" y="167"/>
      <point x="819" y="121"/>
      <point x="772" y="82" type="curve" smooth="yes"/>
      <point x="725" y="43"/>
      <point x="673" y="18"/>
      <point x="614" y="-1" type="curve" smooth="yes"/>
      <point x="553" y="-20"/>
      <point x="484" y="-29"/>
      <point x="411" y="-29" type="curve" smooth="yes"/>
    </contour>
  </outline>
</glyph>
<glyph name="P" format="1">
  <advance width="1233"/>
  <unicode hex="0050"/>
  <note>
	P
  </note>
  <outline>
    <contour>
      <point x="305" y="1493" type="line"/>
      <point x="725" y="1493" type="line" smooth="yes"/>
      <point x="882" y="1493"/>
      <point x="1002" y="1463"/>
      <point x="1085" y="1402" type="curve" smooth="yes"/>
      <point x="1169" y="1339"/>
      <point x="1208" y="1252"/>
      <point x="1208" y="1129" type="curve" smooth="yes"/>
      <point x="1208" y="1061"/>
      <point x="1196" y="985"/>
      <point x="1172" y="909" type="curve" smooth="yes"/>
      <point x="1147" y="830"/>
      <point x="1116" y="776"/>
      <point x="1077" y="731" type="curve" smooth="yes"/>
      <point x="974" y="611"/>
      <point x="827" y="559"/>
      <point x="582" y="559" type="curve" smooth="yes"/>
      <point x="418" y="559" type="line"/>
      <point x="309" y="0" type="line"/>
      <point x="14" y="0" type="line"/>
    </contour>
    <contour>
      <point x="610" y="807" type="line" smooth="yes"/>
      <point x="710" y="807"/>
      <point x="782" y="832"/>
      <point x="829" y="875" type="curve" smooth="yes"/>
      <point x="877" y="920"/>
      <point x="901" y="990"/>
      <point x="901" y="1071" type="curve" smooth="yes"/>
      <point x="901" y="1202"/>
      <point x="837" y="1245"/>
      <point x="672" y="1245" type="curve" smooth="yes"/>
      <point x="551" y="1245" type="line"/>
      <point x="467" y="807" type="line"/>
    </contour>
  </outline>
</glyph>
<glyph name="R" format="1">
  <advance width="1233"/>
  <unicode hex="0052"/>
  <note>
	R
  </note>
  <outline>
    <contour>
      <point x="294" y="1493" type="line"/>
      <point x="704" y="1493" type="line" smooth="yes"/>
      <point x="858" y="1493"/>
      <point x="973" y="1464"/>
      <point x="1048" y="1406" type="curve" smooth="yes"/>
      <point x="1120" y="1350"/>
      <point x="1160" y="1265"/>
      <point x="1160" y="1133" type="curve" smooth="yes"/>
      <point x="1160" y="1013"/>
      <point x="1127" y="914"/>
      <point x="1062" y="838" type="curve" smooth="yes"/>
      <point x="997" y="762"/>
      <point x="904" y="718"/>
      <point x="783" y="705" type="curve"/>
      <point x="863" y="693"/>
      <point x="903" y="653"/>
      <point x="939" y="537" type="curve" smooth="yes"/>
      <point x="1103" y="0" type="line"/>
      <point x="802" y="0" type="line"/>
      <point x="696" y="376" type="line"/>
      <point x="688" y="403" type="line" smooth="yes"/>
      <point x="647" y="538"/>
      <point x="599" y="590"/>
      <point x="530" y="590" type="curve" smooth="yes"/>
      <point x="413" y="590" type="line"/>
      <point x="298" y="0" type="line"/>
      <point x="3" y="0" type="line"/>
    </contour>
    <contour>
      <point x="585" y="838" type="line" smooth="yes"/>
      <point x="678" y="838"/>
      <point x="746" y="861"/>
      <point x="790" y="902" type="curve" smooth="yes"/>
      <point x="837" y="945"/>
      <point x="859" y="1009"/>
      <point x="859" y="1084" type="curve" smooth="yes"/>
      <point x="859" y="1199"/>
      <point x="796" y="1245"/>
      <point x="675" y="1245" type="curve" smooth="yes"/>
      <point x="542" y="1245" type="line"/>
      <point x="462" y="838" type="line"/>
    </contour>
  </outline>
</glyph>
<glyph name="backslash" format="1">
  <advance width="1233"/>
  <unicode hex="005C"/>
  <note>
	backslash
  </note>
  <outline>
    <contour>
      <point x="340" y="1493" type="line"/>
      <point x="543" y="1493" type="line"/>
      <point x="741" y="-190" type="line"/>
      <point x="539" y="-190" type="line"/>
    </contour>
  </outline>
</glyph>
<glyph name="d" format="1">
  <advance width="1233"/>
  <unicode hex="0064"/>
  <note>
	d
  </note>
  <outline>
    <contour>
      <point x="286" y="-29"/>
      <point x="209" y="8"/>
      <point x="152" y="81" type="curve" smooth="yes"/>
      <point x="95" y="154"/>
      <point x="66" y="251"/>
      <point x="66" y="386" type="curve" smooth="yes"/>
      <point x="66" y="466"/>
      <point x="76" y="552"/>
      <point x="97" y="639" type="curve" smooth="yes"/>
      <point x="118" y="726"/>
      <point x="151" y="811"/>
      <point x="184" y="874" type="curve" smooth="yes"/>
      <point x="227" y="955"/>
      <point x="286" y="1025"/>
      <point x="358" y="1076" type="curve" smooth="yes"/>
      <point x="427" y="1125"/>
      <point x="502" y="1149"/>
      <point x="581" y="1149" type="curve" smooth="yes"/>
      <point x="655" y="1149"/>
      <point x="717" y="1128"/>
      <point x="766" y="1086" type="curve" smooth="yes"/>
      <point x="811" y="1047"/>
      <point x="843" y="988"/>
      <point x="854" y="911" type="curve"/>
      <point x="979" y="1556" type="line"/>
      <point x="1272" y="1556" type="line"/>
      <point x="969" y="0" type="line"/>
      <point x="707" y="0" type="line"/>
      <point x="709" y="166" type="line"/>
      <point x="621" y="38"/>
      <point x="510" y="-29"/>
      <point x="382" y="-29" type="curve" smooth="yes"/>
    </contour>
    <contour>
      <point x="593" y="211"/>
      <point x="660" y="257"/>
      <point x="716" y="350" type="curve" smooth="yes"/>
      <point x="772" y="443"/>
      <point x="799" y="557"/>
      <point x="799" y="674" type="curve" smooth="yes"/>
      <point x="799" y="762"/>
      <point x="783" y="811"/>
      <point x="754" y="850" type="curve" smooth="yes"/>
      <point x="724" y="889"/>
      <point x="684" y="909"/>
      <point x="634" y="909" type="curve" smooth="yes"/>
      <point x="483" y="909"/>
      <point x="409" y="725"/>
      <point x="382" y="610" type="curve" smooth="yes"/>
      <point x="369" y="553"/>
      <point x="362" y="495"/>
      <point x="362" y="436" type="curve" smooth="yes"/>
      <point x="362" y="351"/>
      <point x="376" y="304"/>
      <point x="404" y="267" type="curve" smooth="yes"/>
      <point x="432" y="230"/>
      <point x="470" y="211"/>
      <point x="517" y="211" type="curve" smooth="yes"/>
    </contour>
  </outline>
</glyph>
<glyph name="e" format="1">
  <advance width="1233"/>
  <unicode hex="0065"/>
  <note>
	e
  </note>
  <outline>
    <contour>
      <point x="416" y="-29"/>
      <point x="290" y="10"/>
      <point x="205" y="89" type="curve" smooth="yes"/>
      <point x="117" y="170"/>
      <point x="76" y="287"/>
      <point x="76" y="438" type="curve" smooth="yes"/>
      <point x="76" y="529"/>
      <point x="91" y="620"/>
      <point x="120" y="709" type="curve" smooth="yes"/>
      <point x="151" y="800"/>
      <point x="191" y="873"/>
      <point x="244" y="938" type="curve" smooth="yes"/>
      <point x="301" y="1007"/>
      <point x="369" y="1060"/>
      <point x="444" y="1095" type="curve" smooth="yes"/>
      <point x="521" y="1131"/>
      <point x="604" y="1149"/>
      <point x="694" y="1149" type="curve" smooth="yes"/>
      <point x="830" y="1149"/>
      <point x="947" y="1109"/>
      <point x="1030" y="1029" type="curve" smooth="yes"/>
      <point x="1107" y="954"/>
      <point x="1155" y="849"/>
      <point x="1155" y="713" type="curve" smooth="yes"/>
      <point x="1155" y="686"/>
      <point x="1153" y="642"/>
      <point x="1149" y="607" type="curve" smooth="yes"/>
      <point x="1146" y="580"/>
      <point x="1137" y="520"/>
      <point x="1128" y="465" type="curve"/>
      <point x="369" y="465" type="line"/>
      <point x="368" y="460"/>
      <point x="367" y="454"/>
      <point x="367" y="449" type="curve"/>
      <point x="366" y="444"/>
      <point x="366" y="438"/>
      <point x="365" y="433" type="curve"/>
      <point x="362" y="403" type="line"/>
      <point x="362" y="330"/>
      <point x="388" y="285"/>
      <point x="429" y="254" type="curve" smooth="yes"/>
      <point x="474" y="220"/>
      <point x="540" y="203"/>
      <point x="629" y="203" type="curve" smooth="yes"/>
      <point x="698" y="203"/>
      <point x="771" y="213"/>
      <point x="843" y="234" type="curve" smooth="yes"/>
      <point x="915" y="255"/>
      <point x="982" y="285"/>
      <point x="1044" y="324" type="curve"/>
      <point x="993" y="55" type="line"/>
      <point x="866" y="-1"/>
      <point x="727" y="-29"/>
      <point x="583" y="-29" type="curve" smooth="yes"/>
    </contour>
    <contour>
      <point x="876" y="684" type="line"/>
      <point x="879" y="693"/>
      <point x="881" y="702"/>
      <point x="882" y="712" type="curve"/>
      <point x="883" y="717"/>
      <point x="883" y="721"/>
      <point x="883" y="725" type="curve" smooth="yes"/>
      <point x="883" y="729"/>
      <point x="883" y="733"/>
      <point x="883" y="737" type="curve" smooth="yes"/>
      <point x="883" y="849"/>
      <point x="812" y="920"/>
      <point x="692" y="920" type="curve" smooth="yes"/>
      <point x="559" y="920"/>
      <point x="463" y="841"/>
      <point x="410" y="684" type="curve"/>
    </contour>
  </outline>
</glyph>
<glyph name="j" format="1">
  <advance width="1233"/>
  <unicode hex="006A"/>
  <note>
	j
  </note>
  <outline>
    <contour>
      <point x="763" y="1323" type="line" smooth="yes"/>
      <point x="743" y="1323"/>
      <point x="732" y="1336"/>
      <point x="736" y="1356" type="curve" smooth="yes"/>
      <point x="791" y="1638" type="line" smooth="yes"/>
      <point x="794" y="1656"/>
      <point x="804" y="1665"/>
      <point x="823" y="1665" type="curve" smooth="yes"/>
      <point x="1056" y="1665" type="line" smooth="yes"/>
      <point x="1076" y="1665"/>
      <point x="1087" y="1652"/>
      <point x="1083" y="1632" type="curve" smooth="yes"/>
      <point x="1028" y="1350" type="line" smooth="yes"/>
      <point x="1025" y="1332"/>
      <point x="1014" y="1323"/>
      <point x="996" y="1323" type="curve" smooth="yes"/>
    </contour>
    <contour>
      <point x="22" y="-199" type="line"/>
      <point x="253" y="-199" type="line" smooth="yes"/>
      <point x="320" y="-199"/>
      <point x="370" y="-181"/>
      <point x="404" y="-146" type="curve" smooth="yes"/>
      <point x="443" y="-106"/>
      <point x="464" y="-38"/>
      <point x="480" y="43" type="curve" smooth="yes"/>
      <point x="646" y="895" type="line"/>
      <point x="349" y="895" type="line"/>
      <point x="392" y="1120" type="line"/>
      <point x="982" y="1120" type="line"/>
      <point x="773" y="43" type="line" smooth="yes"/>
      <point x="760" y="-24"/>
      <point x="749" y="-72"/>
      <point x="738" y="-110" type="curve" smooth="yes"/>
      <point x="727" y="-148"/>
      <point x="718" y="-175"/>
      <point x="709" y="-196" type="curve" smooth="yes"/>
      <point x="669" y="-291"/>
      <point x="614" y="-337"/>
      <point x="566" y="-364" type="curve" smooth="yes"/>
      <point x="518" y="-392"/>
      <point x="468" y="-409"/>
      <point x="401" y="-417" type="curve" smooth="yes"/>
      <point x="367" y="-422"/>
      <point x="328" y="-424"/>
      <point x="284" y="-424" type="curve" smooth="yes"/>
      <point x="-23" y="-424" type="line"/>
    </contour>
  </outline>
</glyph>
<glyph name="q" format="1">
  <advance width="1233"/>
  <unicode hex="0071"/>
  <note>
	q
  </note>
  <outline>
    <contour>
      <point x="709" y="166" type="line"/>
      <point x="624" y="38"/>
      <point x="512" y="-29"/>
      <point x="385" y="-29" type="curve" smooth="yes"/>
      <point x="292" y="-29"/>
      <point x="210" y="8"/>
      <point x="153" y="81" type="curve" smooth="yes"/>
      <point x="96" y="154"/>
      <point x="68" y="258"/>
      <point x="68" y="387" type="curve" smooth="yes"/>
      <point x="68" y="464"/>
      <point x="78" y="552"/>
      <point x="99" y="639" type="curve" smooth="yes"/>
      <point x="120" y="725"/>
      <point x="149" y="803"/>
      <point x="187" y="874" type="curve" smooth="yes"/>
      <point x="234" y="959"/>
      <point x="287" y="1026"/>
      <point x="359" y="1077" type="curve" smooth="yes"/>
      <point x="428" y="1125"/>
      <point x="502" y="1149"/>
      <point x="580" y="1149" type="curve" smooth="yes"/>
      <point x="656" y="1149"/>
      <point x="720" y="1126"/>
      <point x="764" y="1087" type="curve" smooth="yes"/>
      <point x="808" y="1048"/>
      <point x="842" y="990"/>
      <point x="854" y="911" type="curve"/>
      <point x="922" y="1120" type="line"/>
      <point x="1186" y="1120" type="line"/>
      <point x="885" y="-426" type="line"/>
      <point x="594" y="-426" type="line"/>
    </contour>
    <contour>
      <point x="674" y="211"/>
      <point x="751" y="392"/>
      <point x="779" y="502" type="curve" smooth="yes"/>
      <point x="792" y="557"/>
      <point x="799" y="614"/>
      <point x="799" y="674" type="curve" smooth="yes"/>
      <point x="799" y="753"/>
      <point x="787" y="807"/>
      <point x="754" y="850" type="curve" smooth="yes"/>
      <point x="724" y="889"/>
      <point x="684" y="909"/>
      <point x="634" y="909" type="curve" smooth="yes"/>
      <point x="483" y="909"/>
      <point x="409" y="725"/>
      <point x="382" y="610" type="curve" smooth="yes"/>
      <point x="369" y="553"/>
      <point x="362" y="495"/>
      <point x="362" y="436" type="curve" smooth="yes"/>
      <point x="362" y="351"/>
      <point x="376" y="305"/>
      <point x="404" y="268" type="curve" smooth="yes"/>
      <point x="432" y="231"/>
      <point x="468" y="211"/>
      <point x="519" y="211" type="curve" smooth="yes"/>
    </contour>
  </outline>
</glyph>
<glyph name="r" format="1">
  <advance width="1233"/>
  <unicode hex="0072"/>
  <note>
	r
  </note>
  <outline>
    <contour>
      <point x="343" y="1120" type="line"/>
      <point x="607" y="1120" type="line"/>
      <point x="601" y="946" type="line"/>
      <point x="684" y="1074"/>
      <point x="820" y="1147"/>
      <point x="979" y="1147" type="curve" smooth="yes"/>
      <point x="1063" y="1147"/>
      <point x="1138" y="1126"/>
      <point x="1197" y="1090" type="curve"/>
      <point x="1144" y="815" type="line"/>
      <point x="1109" y="846"/>
      <point x="1072" y="867"/>
      <point x="1037" y="879" type="curve" smooth="yes"/>
      <point x="997" y="894"/>
      <point x="948" y="899"/>
      <point x="900" y="899" type="curve" smooth="yes"/>
      <point x="796" y="899"/>
      <point x="712" y="872"/>
      <point x="649" y="811" type="curve" smooth="yes"/>
      <point x="590" y="754"/>
      <point x="546" y="657"/>
      <point x="519" y="516" type="curve" smooth="yes"/>
      <point x="419" y="0" type="line"/>
      <point x="124" y="0" type="line"/>
    </contour>
  </outline>
</glyph>
<glyph name="u" format="1">
  <advance width="1233"/>
  <unicode hex="0075"/>
  <note>
	u
  </note>
  <outline>
    <contour>
      <point x="201" y="-29"/>
      <point x="106" y="68"/>
      <point x="106" y="244" type="curve" smooth="yes"/>
      <point x="106" y="263"/>
      <point x="107" y="284"/>
      <point x="110" y="308" type="curve"/>
      <point x="111" y="310"/>
      <point x="112" y="320"/>
      <point x="114" y="337" type="curve" smooth="yes"/>
      <point x="116" y="354"/>
      <point x="119" y="372"/>
      <point x="123" y="391" type="curve" smooth="yes"/>
      <point x="266" y="1120" type="line"/>
      <point x="557" y="1120" type="line"/>
      <point x="426" y="436" type="line" smooth="yes"/>
      <point x="423" y="419"/>
      <point x="422" y="406"/>
      <point x="419" y="383" type="curve" smooth="yes"/>
      <point x="416" y="362"/>
      <point x="416" y="351"/>
      <point x="416" y="336" type="curve" smooth="yes"/>
      <point x="416" y="289"/>
      <point x="426" y="264"/>
      <point x="445" y="243" type="curve" smooth="yes"/>
      <point x="462" y="224"/>
      <point x="486" y="211"/>
      <point x="529" y="211" type="curve" smooth="yes"/>
      <point x="588" y="211"/>
      <point x="632" y="235"/>
      <point x="668" y="282" type="curve" smooth="yes"/>
      <point x="707" y="331"/>
      <point x="735" y="400"/>
      <point x="752" y="489" type="curve" smooth="yes"/>
      <point x="874" y="1120" type="line"/>
      <point x="1165" y="1120" type="line"/>
      <point x="948" y="0" type="line"/>
      <point x="684" y="0" type="line"/>
      <point x="688" y="166" type="line"/>
      <point x="656" y="99"/>
      <point x="612" y="57"/>
      <point x="559" y="24" type="curve" smooth="yes"/>
      <point x="498" y="-15"/>
      <point x="439" y="-29"/>
      <point x="372" y="-29" type="curve" smooth="yes"/>
    </contour>
  </outline>
</glyph>
<glyph name="sterling" format="1">
  <advance width="1233"/>
  <unicode hex="00A3"/>
  <note>
	sterling
  </note>
  <outline>
    <contour>
      <point x="29" y="260" type="line"/>
      <point x="264" y="260" type="line"/>
      <point x="328" y="594" type="line"/>
      <point x="129" y="594" type="line"/>
      <point x="174" y="819" type="line"/>
      <point x="373" y="819" type="line"/>
      <point x="410" y="1016" type="line" smooth="yes"/>
      <point x="445" y="1199"/>
      <point x="505" y="1325"/>
      <point x="589" y="1402" type="curve" smooth="yes"/>
      <point x="674" y="1482"/>
      <point x="799" y="1520"/>
      <point x="952" y="1520" type="curve" smooth="yes"/>
      <point x="1059" y="1520"/>
      <point x="1152" y="1497"/>
      <point x="1245" y="1456" type="curve"/>
      <point x="1192" y="1190" type="line"/>
      <point x="1153" y="1217"/>
      <point x="1108" y="1240"/>
      <point x="1073" y="1252" type="curve" smooth="yes"/>
      <point x="1038" y="1264"/>
      <point x="993" y="1272"/>
      <point x="952" y="1272" type="curve" smooth="yes"/>
      <point x="882" y="1272"/>
      <point x="826" y="1250"/>
      <point x="784" y="1205" type="curve" smooth="yes"/>
      <point x="743" y="1161"/>
      <point x="711" y="1094"/>
      <point x="692" y="995" type="curve" smooth="yes"/>
      <point x="659" y="819" type="line"/>
      <point x="995" y="819" type="line"/>
      <point x="952" y="594" type="line"/>
      <point x="614" y="594" type="line"/>
      <point x="551" y="260" type="line"/>
      <point x="1032" y="260" type="line"/>
      <point x="981" y="0" type="line"/>
      <point x="-23" y="0" type="line"/>
    </contour>
  </outline>
</glyph>
<glyph name="uni03BC" format="1">
  <advance width="1233"/>
  <unicode hex="00B5"/>
  <note>
	mu
  </note>
  <outline>
    <contour>
      <point x="246" y="1120" type="line"/>
      <point x="535" y="1120" type="line"/>
      <point x="403" y="440" type="line"/>
      <point x="400" y="429"/>
      <point x="397" y="413"/>
      <point x="394" y="388" type="curve" smooth="yes"/>
      <point x="392" y="372"/>
      <point x="391" y="358"/>
      <point x="391" y="346" type="curve" smooth="yes"/>
      <point x="391" y="303"/>
      <point x="402" y="271"/>
      <point x="425" y="248" type="curve" smooth="yes"/>
      <point x="448" y="225"/>
      <point x="478" y="213"/>
      <point x="521" y="213" type="curve" smooth="yes"/>
      <point x="629" y="213"/>
      <point x="698" y="287"/>
      <point x="727" y="440" type="curve" smooth="yes"/>
      <point x="858" y="1120" type="line"/>
      <point x="1147" y="1120" type="line"/>
      <point x="997" y="344" type="line"/>
      <point x="996" y="333"/>
      <point x="995" y="324"/>
      <point x="994" y="317" type="curve" smooth="yes"/>
      <point x="993" y="310"/>
      <point x="992" y="305"/>
      <point x="991" y="302" type="curve" smooth="yes"/>
      <point x="990" y="299"/>
      <point x="990" y="297"/>
      <point x="990" y="296" type="curve" smooth="yes"/>
      <point x="990" y="295"/>
      <point x="990" y="294"/>
      <point x="990" y="293" type="curve"/>
      <point x="987" y="280"/>
      <point x="987" y="273"/>
      <point x="987" y="264" type="curve" smooth="yes"/>
      <point x="987" y="233"/>
      <point x="1003" y="213"/>
      <point x="1028" y="213" type="curve" smooth="yes"/>
      <point x="1044" y="213"/>
      <point x="1057" y="219"/>
      <point x="1070" y="226" type="curve" smooth="yes"/>
      <point x="1076" y="229"/>
      <point x="1083" y="233"/>
      <point x="1090" y="238" type="curve"/>
      <point x="1047" y="16" type="line"/>
      <point x="1010" y="-3"/>
      <point x="988" y="-11"/>
      <point x="961" y="-18" type="curve" smooth="yes"/>
      <point x="934" y="-25"/>
      <point x="910" y="-29"/>
      <point x="883" y="-29" type="curve" smooth="yes"/>
      <point x="832" y="-29"/>
      <point x="799" y="-15"/>
      <point x="775" y="9" type="curve" smooth="yes"/>
      <point x="750" y="34"/>
      <point x="733" y="74"/>
      <point x="725" y="129" type="curve"/>
      <point x="690" y="76"/>
      <point x="652" y="37"/>
      <point x="611" y="11" type="curve" smooth="yes"/>
      <point x="572" y="-14"/>
      <point x="531" y="-29"/>
      <point x="479" y="-29" type="curve" smooth="yes"/>
      <point x="400" y="-29"/>
      <point x="350" y="3"/>
      <point x="330" y="66" type="curve"/>
      <point x="233" y="-428" type="line"/>
      <point x="-55" y="-428" type="line"/>
    </contour>
  </outline>
</glyph>
<glyph name="cedilla" format="1">
  <advance width="1233"/>
  <unicode hex="00B8"/>
  <note>
	cedilla
  </note>
  <outline>
    <contour>
      <point x="314" y="-401"/>
      <point x="272" y="-398"/>
      <point x="249" y="-395" type="curve"/>
      <point x="245" y="-394"/>
      <point x="239" y="-393"/>
      <point x="230" y="-392" type="curve"/>
      <point x="212" y="-389"/>
      <point x="191" y="-385"/>
      <point x="172" y="-381" type="curve" smooth="yes"/>
      <point x="162" y="-379"/>
      <point x="155" y="-377"/>
      <point x="150" y="-375" type="curve"/>
      <point x="178" y="-219" type="line"/>
      <point x="207" y="-230"/>
      <point x="235" y="-238"/>
      <point x="262" y="-245" type="curve"/>
      <point x="289" y="-251"/>
      <point x="314" y="-254"/>
      <point x="339" y="-254" type="curve" smooth="yes"/>
      <point x="384" y="-254"/>
      <point x="420" y="-244"/>
      <point x="443" y="-227" type="curve" smooth="yes"/>
      <point x="467" y="-209"/>
      <point x="479" y="-184"/>
      <point x="479" y="-151" type="curve" smooth="yes"/>
      <point x="479" y="-114"/>
      <point x="464" y="-82"/>
      <point x="449" y="-51" type="curve" smooth="yes"/>
      <point x="442" y="-36"/>
      <point x="433" y="-19"/>
      <point x="422" y="0" type="curve"/>
      <point x="563" y="0" type="line"/>
      <point x="611" y="-65"/>
      <point x="635" y="-126"/>
      <point x="635" y="-185" type="curve" smooth="yes"/>
      <point x="635" y="-248"/>
      <point x="611" y="-303"/>
      <point x="560" y="-342" type="curve" smooth="yes"/>
      <point x="511" y="-381"/>
      <point x="438" y="-401"/>
      <point x="349" y="-401" type="curve" smooth="yes"/>
    </contour>
  </outline>
</glyph>
<glyph name="onequarter" format="1">
  <advance width="1233"/>
  <unicode hex="00BC"/>
  <note>
	onequarter
  </note>
  <outline>
    <contour>
      <point x="57" y="969" type="line"/>
      <point x="293" y="969" type="line"/>
      <point x="399" y="1512" type="line"/>
      <point x="170" y="1469" type="line"/>
      <point x="199" y="1618" type="line"/>
      <point x="428" y="1659" type="line"/>
      <point x="625" y="1659" type="line"/>
      <point x="490" y="969" type="line"/>
      <point x="717" y="969" type="line"/>
      <point x="688" y="824" type="line"/>
      <point x="31" y="824" type="line"/>
    </contour>
    <contour>
      <point x="47" y="618" type="line"/>
      <point x="1106" y="879" type="line"/>
      <point x="1143" y="762" type="line"/>
      <point x="84" y="500" type="line"/>
    </contour>
    <contour>
      <point x="796" y="-90" type="line"/>
      <point x="407" y="-90" type="line"/>
      <point x="438" y="72" type="line"/>
      <point x="905" y="565" type="line"/>
      <point x="1110" y="565" type="line"/>
      <point x="1009" y="53" type="line"/>
      <point x="1118" y="53" type="line"/>
      <point x="1091" y="-90" type="line"/>
      <point x="983" y="-90" type="line"/>
      <point x="948" y="-270" type="line"/>
      <point x="760" y="-270" type="line"/>
    </contour>
    <contour>
      <point x="823" y="53" type="line"/>
      <point x="887" y="383" type="line"/>
      <point x="573" y="53" type="line"/>
    </contour>
  </outline>
</glyph>
<glyph name="onehalf" format="1">
  <advance width="1233"/>
  <unicode hex="00BD"/>
  <note>
	onehalf
  </note>
  <outline>
    <contour>
      <point x="57" y="969" type="line"/>
      <point x="293" y="969" type="line"/>
      <point x="399" y="1512" type="line"/>
      <point x="170" y="1469" type="line"/>
      <point x="199" y="1618" type="line"/>
      <point x="428" y="1659" type="line"/>
      <point x="625" y="1659" type="line"/>
      <point x="490" y="969" type="line"/>
      <point x="717" y="969" type="line"/>
      <point x="688" y="824" type="line"/>
      <point x="31" y="824" type="line"/>
    </contour>
    <contour>
      <point x="47" y="618" type="line"/>
      <point x="1106" y="879" type="line"/>
      <point x="1143" y="762" type="line"/>
      <point x="84" y="500" type="line"/>
    </contour>
    <contour>
      <point x="443" y="-129" type="line"/>
      <point x="466" y="-112"/>
      <point x="483" y="-100"/>
      <point x="495" y="-91" type="curve" smooth="yes"/>
      <point x="506" y="-83"/>
      <point x="516" y="-76"/>
      <point x="524" y="-70" type="curve"/>
      <point x="532" y="-65"/>
      <point x="540" y="-59"/>
      <point x="549" y="-53" type="curve"/>
      <point x="557" y="-47"/>
      <point x="569" y="-38"/>
      <point x="585" y="-27" type="curve" smooth="yes"/>
      <point x="728" y="76"/>
      <point x="828" y="155"/>
      <point x="892" y="217" type="curve" smooth="yes"/>
      <point x="956" y="279"/>
      <point x="985" y="323"/>
      <point x="985" y="356" type="curve" smooth="yes"/>
      <point x="985" y="377"/>
      <point x="973" y="403"/>
      <point x="949" y="420" type="curve" smooth="yes"/>
      <point x="926" y="436"/>
      <point x="891" y="444"/>
      <point x="845" y="444" type="curve" smooth="yes"/>
      <point x="805" y="444"/>
      <point x="758" y="438"/>
      <point x="709" y="426" type="curve" smooth="yes"/>
      <point x="654" y="413"/>
      <point x="606" y="396"/>
      <point x="557" y="373" type="curve"/>
      <point x="588" y="535" type="line"/>
      <point x="639" y="550"/>
      <point x="688" y="562"/>
      <point x="737" y="570" type="curve" smooth="yes"/>
      <point x="786" y="578"/>
      <point x="834" y="582"/>
      <point x="881" y="582" type="curve" smooth="yes"/>
      <point x="976" y="582"/>
      <point x="1053" y="565"/>
      <point x="1105" y="528" type="curve" smooth="yes"/>
      <point x="1158" y="489"/>
      <point x="1182" y="434"/>
      <point x="1182" y="387" type="curve" smooth="yes"/>
      <point x="1182" y="334"/>
      <point x="1149" y="272"/>
      <point x="1083" y="201" type="curve" smooth="yes"/>
      <point x="1016" y="130"/>
      <point x="913" y="45"/>
      <point x="772" y="-52" type="curve" smooth="yes"/>
      <point x="756" y="-63"/>
      <point x="745" y="-70"/>
      <point x="730" y="-81" type="curve" smooth="yes"/>
      <point x="723" y="-86"/>
      <point x="714" y="-92"/>
      <point x="705" y="-99" type="curve"/>
      <point x="695" y="-106"/>
      <point x="683" y="-114"/>
      <point x="668" y="-125" type="curve"/>
      <point x="1106" y="-125" type="line"/>
      <point x="1078" y="-270" type="line"/>
      <point x="414" y="-270" type="line"/>
    </contour>
  </outline>
</glyph>
<glyph name="Atilde" format="1">
  <advance width="1233"/>
  <unicode hex="00C3"/>
  <note>
	Atilde
  </note>
  <outline>
    <contour>
      <point x="422" y="1589" type="line"/>
      <point x="439" y="1675"/>
      <point x="470" y="1741"/>
      <point x="513" y="1786" type="curve" smooth="yes"/>
      <point x="556" y="1831"/>
      <point x="608" y="1855"/>
      <point x="673" y="1855" type="curve" smooth="yes"/>
      <point x="698" y="1855"/>
      <point x="722" y="1851"/>
      <point x="744" y="1843" type="curve" smooth="yes"/>
      <point x="763" y="1836"/>
      <point x="784" y="1824"/>
      <point x="811" y="1804" type="curve" smooth="yes"/>
      <point x="864" y="1763" type="line"/>
      <point x="881" y="1747"/>
      <point x="909" y="1736"/>
      <point x="932" y="1736" type="curve" smooth="yes"/>
      <point x="985" y="1736"/>
      <point x="1021" y="1780"/>
      <point x="1034" y="1855" type="curve"/>
      <point x="1171" y="1855" type="line"/>
      <point x="1138" y="1686"/>
      <point x="1046" y="1589"/>
      <point x="921" y="1589" type="curve" smooth="yes"/>
      <point x="894" y="1589"/>
      <point x="873" y="1593"/>
      <point x="852" y="1600" type="curve" smooth="yes"/>
      <point x="831" y="1607"/>
      <point x="814" y="1616"/>
      <point x="782" y="1640" type="curve" smooth="yes"/>
      <point x="733" y="1677" type="line" smooth="yes"/>
      <point x="714" y="1692"/>
      <point x="706" y="1696"/>
      <point x="691" y="1703" type="curve"/>
      <point x="678" y="1708"/>
      <point x="668" y="1709"/>
      <point x="660" y="1709" type="curve" smooth="yes"/>
      <point x="632" y="1709"/>
      <point x="611" y="1695"/>
      <point x="596" y="1678" type="curve" smooth="yes"/>
      <point x="575" y="1653"/>
      <point x="563" y="1612"/>
      <point x="559" y="1589" type="curve"/>
    </contour>
    <contour>
      <point x="582" y="1493" type="line"/>
      <point x="942" y="1493" type="line"/>
      <point x="1055" y="0" type="line"/>
      <point x="762" y="0" type="line"/>
      <point x="748" y="369" type="line"/>
      <point x="348" y="369" type="line"/>
      <point x="186" y="0" type="line"/>
      <point x="-113" y="0" type="line"/>
    </contour>
    <contour>
      <point x="737" y="612" type="line"/>
      <point x="717" y="1219" type="line"/>
      <point x="453" y="612" type="line"/>
    </contour>
  </outline>
</glyph>
<glyph name="Aring" format="1">
  <advance width="1233"/>
  <unicode hex="00C5"/>
  <note>
	Aring
  </note>
  <outline>
    <contour>
      <point x="547" y="1421" type="line"/>
      <point x="499" y="1469"/>
      <point x="469" y="1543"/>
      <point x="469" y="1618" type="curve" smooth="yes"/>
      <point x="469" y="1695"/>
      <point x="497" y="1761"/>
      <point x="553" y="1817" type="curve" smooth="yes"/>
      <point x="606" y="1870"/>
      <point x="669" y="1901"/>
      <point x="753" y="1901" type="curve" smooth="yes"/>
      <point x="909" y="1901"/>
      <point x="1038" y="1771"/>
      <point x="1038" y="1618" type="curve" smooth="yes"/>
      <point x="1038" y="1575"/>
      <point x="1030" y="1535"/>
      <point x="1015" y="1503" type="curve" smooth="yes"/>
      <point x="999" y="1466"/>
      <point x="975" y="1433"/>
      <point x="948" y="1409" type="curve"/>
      <point x="1055" y="0" type="line"/>
      <point x="760" y="0" type="line"/>
      <point x="739" y="369" type="line"/>
      <point x="344" y="369" type="line"/>
      <point x="182" y="0" type="line"/>
      <point x="-113" y="0" type="line"/>
    </contour>
    <contour>
      <point x="826" y="1485"/>
      <point x="885" y="1544"/>
      <point x="885" y="1616" type="curve" smooth="yes"/>
      <point x="885" y="1688"/>
      <point x="823" y="1747"/>
      <point x="754" y="1747" type="curve" smooth="yes"/>
      <point x="682" y="1747"/>
      <point x="623" y="1688"/>
      <point x="623" y="1616" type="curve" smooth="yes"/>
      <point x="623" y="1577"/>
      <point x="638" y="1547"/>
      <point x="661" y="1524" type="curve" smooth="yes"/>
      <point x="687" y="1498"/>
      <point x="718" y="1485"/>
      <point x="754" y="1485" type="curve" smooth="yes"/>
    </contour>
    <contour>
      <point x="729" y="612" type="line"/>
      <point x="709" y="1223" type="line"/>
      <point x="451" y="612" type="line"/>
    </contour>
  </outline>
</glyph>
<glyph name="Egrave" format="1">
  <advance width="1233"/>
  <unicode hex="00C8"/>
  <note>
	Egrave
  </note>
  <outline>
    <contour>
      <point x="527" y="1853" type="line"/>
      <point x="791" y="1853" type="line"/>
      <point x="934" y="1589" type="line"/>
      <point x="756" y="1589" type="line"/>
    </contour>
    <contour>
      <point x="317" y="1493" type="line"/>
      <point x="1249" y="1493" type="line"/>
      <point x="1198" y="1233" type="line"/>
      <point x="563" y="1233" type="line"/>
      <point x="500" y="911" type="line"/>
      <point x="1075" y="911" type="line"/>
      <point x="1026" y="651" type="line"/>
      <point x="451" y="651" type="line"/>
      <point x="375" y="260" type="line"/>
      <point x="1010" y="260" type="line"/>
      <point x="958" y="0" type="line"/>
      <point x="29" y="0" type="line"/>
    </contour>
  </outline>
</glyph>
<glyph name="ccedilla" format="1">
  <advance width="1233"/>
  <unicode hex="00E7"/>
  <note>
	ccedilla
  </note>
  <outline>
    <contour>
      <point x="690" y="909"/>
      <point x="598" y="862"/>
      <point x="533" y="786" type="curve" smooth="yes"/>
      <point x="461" y="702"/>
      <point x="426" y="590"/>
      <point x="426" y="466" type="curve" smooth="yes"/>
      <point x="426" y="374"/>
      <point x="446" y="315"/>
      <point x="487" y="272" type="curve" smooth="yes"/>
      <point x="528" y="229"/>
      <point x="590" y="209"/>
      <point x="670" y="209" type="curve" smooth="yes"/>
      <point x="721" y="209"/>
      <point x="769" y="218"/>
      <point x="822" y="235" type="curve" smooth="yes"/>
      <point x="871" y="251"/>
      <point x="925" y="274"/>
      <point x="992" y="313" type="curve"/>
      <point x="936" y="37" type="line"/>
      <point x="884" y="14"/>
      <point x="831" y="-2"/>
      <point x="778" y="-13" type="curve" smooth="yes"/>
      <point x="754" y="-18"/>
      <point x="729" y="-21"/>
      <point x="705" y="-24" type="curve"/>
      <point x="736" y="-71"/>
      <point x="760" y="-126"/>
      <point x="760" y="-185" type="curve" smooth="yes"/>
      <point x="760" y="-248"/>
      <point x="736" y="-303"/>
      <point x="685" y="-342" type="curve" smooth="yes"/>
      <point x="636" y="-381"/>
      <point x="565" y="-401"/>
      <point x="473" y="-401" type="curve" smooth="yes"/>
      <point x="438" y="-401"/>
      <point x="399" y="-398"/>
      <point x="374" y="-395" type="curve" smooth="yes"/>
      <point x="345" y="-391"/>
      <point x="326" y="-388"/>
      <point x="311" y="-384" type="curve" smooth="yes"/>
      <point x="296" y="-380"/>
      <point x="287" y="-378"/>
      <point x="275" y="-375" type="curve"/>
      <point x="303" y="-219" type="line"/>
      <point x="332" y="-230"/>
      <point x="360" y="-238"/>
      <point x="387" y="-245" type="curve"/>
      <point x="414" y="-251"/>
      <point x="439" y="-254"/>
      <point x="464" y="-254" type="curve" smooth="yes"/>
      <point x="509" y="-254"/>
      <point x="545" y="-244"/>
      <point x="568" y="-227" type="curve" smooth="yes"/>
      <point x="592" y="-209"/>
      <point x="604" y="-184"/>
      <point x="604" y="-151" type="curve" smooth="yes"/>
      <point x="604" y="-132"/>
      <point x="600" y="-112"/>
      <point x="591" y="-90" type="curve" smooth="yes"/>
      <point x="584" y="-74"/>
      <point x="575" y="-54"/>
      <point x="562" y="-27" type="curve"/>
      <point x="443" y="-19"/>
      <point x="338" y="18"/>
      <point x="258" y="94" type="curve" smooth="yes"/>
      <point x="166" y="182"/>
      <point x="130" y="305"/>
      <point x="130" y="448" type="curve" smooth="yes"/>
      <point x="130" y="543"/>
      <point x="146" y="636"/>
      <point x="177" y="722" type="curve" smooth="yes"/>
      <point x="208" y="808"/>
      <point x="253" y="886"/>
      <point x="313" y="950" type="curve" smooth="yes"/>
      <point x="433" y="1079"/>
      <point x="600" y="1147"/>
      <point x="792" y="1147" type="curve" smooth="yes"/>
      <point x="859" y="1147"/>
      <point x="925" y="1139"/>
      <point x="976" y="1127" type="curve" smooth="yes"/>
      <point x="1031" y="1114"/>
      <point x="1086" y="1092"/>
      <point x="1137" y="1063" type="curve"/>
      <point x="1084" y="795" type="line"/>
      <point x="1004" y="871"/>
      <point x="916" y="909"/>
      <point x="809" y="909" type="curve" smooth="yes"/>
    </contour>
  </outline>
</glyph>
<glyph name="abreve" format="1">
  <advance width="1233"/>
  <unicode hex="0103"/>
  <note>
	abreve
  </note>
  <outline>
    <contour>
      <point x="545" y="1297"/>
      <point x="446" y="1382"/>
      <point x="446" y="1561" type="curve" smooth="yes"/>
      <point x="446" y="1594" type="line"/>
      <point x="590" y="1594" type="line"/>
      <point x="590" y="1581" type="line" smooth="yes"/>
      <point x="590" y="1500"/>
      <point x="652" y="1448"/>
      <point x="756" y="1448" type="curve" smooth="yes"/>
      <point x="861" y="1448"/>
      <point x="944" y="1502"/>
      <point x="977" y="1594" type="curve"/>
      <point x="1120" y="1594" type="line"/>
      <point x="1081" y="1409"/>
      <point x="952" y="1297"/>
      <point x="736" y="1297" type="curve" smooth="yes"/>
    </contour>
    <contour>
      <point x="277" y="-29"/>
      <point x="195" y="1"/>
      <point x="137" y="57" type="curve" smooth="yes"/>
      <point x="79" y="113"/>
      <point x="47" y="195"/>
      <point x="47" y="302" type="curve" smooth="yes"/>
      <point x="47" y="439"/>
      <point x="101" y="548"/>
      <point x="203" y="623" type="curve" smooth="yes"/>
      <point x="305" y="698"/>
      <point x="455" y="737"/>
      <point x="651" y="737" type="curve" smooth="yes"/>
      <point x="844" y="737" type="line"/>
      <point x="852" y="786" type="line"/>
      <point x="853" y="794"/>
      <point x="854" y="800"/>
      <point x="854" y="811" type="curve" smooth="yes"/>
      <point x="854" y="891"/>
      <point x="785" y="932"/>
      <point x="661" y="932" type="curve" smooth="yes"/>
      <point x="544" y="932"/>
      <point x="411" y="896"/>
      <point x="248" y="819" type="curve"/>
      <point x="295" y="1069" type="line"/>
      <point x="379" y="1097"/>
      <point x="450" y="1117"/>
      <point x="518" y="1130" type="curve" smooth="yes"/>
      <point x="585" y="1142"/>
      <point x="646" y="1147"/>
      <point x="709" y="1147" type="curve" smooth="yes"/>
      <point x="988" y="1147"/>
      <point x="1141" y="1045"/>
      <point x="1141" y="845" type="curve" smooth="yes"/>
      <point x="1141" y="792"/>
      <point x="1130" y="722"/>
      <point x="1114" y="639" type="curve" smooth="yes"/>
      <point x="991" y="0" type="line"/>
      <point x="729" y="0" type="line"/>
      <point x="725" y="125" type="line"/>
      <point x="636" y="21"/>
      <point x="517" y="-29"/>
      <point x="381" y="-29" type="curve" smooth="yes"/>
    </contour>
    <contour>
      <point x="576" y="172"/>
      <point x="642" y="205"/>
      <point x="694" y="266" type="curve" smooth="yes"/>
      <point x="746" y="327"/>
      <point x="784" y="417"/>
      <point x="803" y="530" type="curve"/>
      <point x="690" y="530" type="line" smooth="yes"/>
      <point x="466" y="530"/>
      <point x="352" y="462"/>
      <point x="352" y="325" type="curve" smooth="yes"/>
      <point x="352" y="229"/>
      <point x="408" y="172"/>
      <point x="504" y="172" type="curve" smooth="yes"/>
    </contour>
  </outline>
</glyph>
<glyph name="Dcaron" format="1">
  <advance width="1233"/>
  <unicode hex="010E"/>
  <note>
	Dcaron
  </note>
  <outline>
    <contour>
      <point x="383" y="1853" type="line"/>
      <point x="553" y="1853" type="line"/>
      <point x="702" y="1691" type="line"/>
      <point x="931" y="1853" type="line"/>
      <point x="1112" y="1853" type="line"/>
      <point x="868" y="1589" type="line"/>
      <point x="520" y="1589" type="line"/>
    </contour>
    <contour>
      <point x="283" y="1493" type="line"/>
      <point x="598" y="1493" type="line" smooth="yes"/>
      <point x="981" y="1493"/>
      <point x="1165" y="1330"/>
      <point x="1165" y="994" type="curve" smooth="yes"/>
      <point x="1165" y="889"/>
      <point x="1147" y="751"/>
      <point x="1110" y="602" type="curve" smooth="yes"/>
      <point x="1083" y="494"/>
      <point x="1053" y="408"/>
      <point x="1018" y="340" type="curve" smooth="yes"/>
      <point x="983" y="271"/>
      <point x="944" y="217"/>
      <point x="897" y="172" type="curve" smooth="yes"/>
      <point x="834" y="111"/>
      <point x="764" y="68"/>
      <point x="672" y="40" type="curve" smooth="yes"/>
      <point x="580" y="12"/>
      <point x="467" y="0"/>
      <point x="322" y="0" type="curve" smooth="yes"/>
      <point x="-8" y="0" type="line"/>
    </contour>
    <contour>
      <point x="434" y="266" type="line" smooth="yes"/>
      <point x="587" y="266"/>
      <point x="682" y="323"/>
      <point x="743" y="442" type="curve" smooth="yes"/>
      <point x="775" y="503"/>
      <point x="804" y="593"/>
      <point x="825" y="687" type="curve" smooth="yes"/>
      <point x="846" y="781"/>
      <point x="860" y="877"/>
      <point x="860" y="956" type="curve" smooth="yes"/>
      <point x="860" y="1143"/>
      <point x="783" y="1227"/>
      <point x="606" y="1227" type="curve" smooth="yes"/>
      <point x="524" y="1227" type="line"/>
      <point x="338" y="266" type="line"/>
    </contour>
  </outline>
</glyph>
<glyph name="gdotaccent" format="1">
  <advance width="1233"/>
  <unicode hex="0121"/>
  <note>
	gdotaccent
  </note>
  <outline>
    <contour>
      <point x="647" y="1351" type="line" smooth="yes"/>
      <point x="626" y="1351"/>
      <point x="617" y="1364"/>
      <point x="621" y="1384" type="curve" smooth="yes"/>
      <point x="658" y="1570" type="line" smooth="yes"/>
      <point x="661" y="1588"/>
      <point x="671" y="1597"/>
      <point x="690" y="1597" type="curve" smooth="yes"/>
      <point x="902" y="1597" type="line" smooth="yes"/>
      <point x="922" y="1597"/>
      <point x="933" y="1584"/>
      <point x="929" y="1564" type="curve" smooth="yes"/>
      <point x="893" y="1378" type="line" smooth="yes"/>
      <point x="890" y="1360"/>
      <point x="879" y="1351"/>
      <point x="861" y="1351" type="curve" smooth="yes"/>
    </contour>
    <contour>
      <point x="252" y="-424"/>
      <point x="135" y="-404"/>
      <point x="18" y="-365" type="curve"/>
      <point x="72" y="-100" type="line"/>
      <point x="172" y="-160"/>
      <point x="284" y="-190"/>
      <point x="395" y="-190" type="curve" smooth="yes"/>
      <point x="483" y="-190"/>
      <point x="548" y="-171"/>
      <point x="596" y="-131" type="curve" smooth="yes"/>
      <point x="643" y="-91"/>
      <point x="672" y="-32"/>
      <point x="688" y="51" type="curve" smooth="yes"/>
      <point x="715" y="184" type="line"/>
      <point x="640" y="69"/>
      <point x="536" y="16"/>
      <point x="409" y="16" type="curve" smooth="yes"/>
      <point x="305" y="16"/>
      <point x="220" y="52"/>
      <point x="161" y="120" type="curve" smooth="yes"/>
      <point x="101" y="188"/>
      <point x="68" y="287"/>
      <point x="68" y="412" type="curve" smooth="yes"/>
      <point x="68" y="497"/>
      <point x="84" y="594"/>
      <point x="112" y="686" type="curve" smooth="yes"/>
      <point x="139" y="777"/>
      <point x="178" y="864"/>
      <point x="225" y="932" type="curve" smooth="yes"/>
      <point x="321" y="1071"/>
      <point x="459" y="1151"/>
      <point x="603" y="1151" type="curve" smooth="yes"/>
      <point x="742" y="1151"/>
      <point x="834" y="1075"/>
      <point x="862" y="938" type="curve"/>
      <point x="926" y="1120" type="line"/>
      <point x="1190" y="1120" type="line"/>
      <point x="987" y="84" type="line" smooth="yes"/>
      <point x="951" y="-100"/>
      <point x="892" y="-228"/>
      <point x="796" y="-308" type="curve" smooth="yes"/>
      <point x="700" y="-389"/>
      <point x="569" y="-424"/>
      <point x="389" y="-424" type="curve" smooth="yes"/>
    </contour>
    <contour>
      <point x="596" y="246"/>
      <point x="667" y="299"/>
      <point x="719" y="380" type="curve" smooth="yes"/>
      <point x="771" y="461"/>
      <point x="803" y="571"/>
      <point x="803" y="684" type="curve" smooth="yes"/>
      <point x="803" y="837"/>
      <point x="745" y="909"/>
      <point x="653" y="909" type="curve" smooth="yes"/>
      <point x="574" y="909"/>
      <point x="503" y="857"/>
      <point x="451" y="777" type="curve" smooth="yes"/>
      <point x="399" y="696"/>
      <point x="367" y="587"/>
      <point x="367" y="471" type="curve" smooth="yes"/>
      <point x="367" y="318"/>
      <point x="423" y="246"/>
      <point x="516" y="246" type="curve" smooth="yes"/>
    </contour>
  </outline>
</glyph>
<glyph name="uni0122" format="1">
  <advance width="1233"/>
  <unicode hex="0122"/>
  <note>
	uni0122
  </note>
  <outline>
    <contour>
      <point x="449" y="-29"/>
      <point x="322" y="20"/>
      <point x="235" y="115" type="curve" smooth="yes"/>
      <point x="148" y="210"/>
      <point x="102" y="350"/>
      <point x="102" y="533" type="curve" smooth="yes"/>
      <point x="102" y="669"/>
      <point x="128" y="814"/>
      <point x="174" y="947" type="curve" smooth="yes"/>
      <point x="220" y="1079"/>
      <point x="286" y="1202"/>
      <point x="367" y="1294" type="curve" smooth="yes"/>
      <point x="499" y="1443"/>
      <point x="674" y="1520"/>
      <point x="875" y="1520" type="curve" smooth="yes"/>
      <point x="987" y="1520"/>
      <point x="1088" y="1496"/>
      <point x="1192" y="1448" type="curve"/>
      <point x="1126" y="1120" type="line"/>
      <point x="1058" y="1209"/>
      <point x="964" y="1257"/>
      <point x="857" y="1257" type="curve" smooth="yes"/>
      <point x="764" y="1257"/>
      <point x="676" y="1221"/>
      <point x="604" y="1141" type="curve" smooth="yes"/>
      <point x="545" y="1077"/>
      <point x="504" y="991"/>
      <point x="469" y="891" type="curve" smooth="yes"/>
      <point x="449" y="834"/>
      <point x="433" y="771"/>
      <point x="422" y="709" type="curve" smooth="yes"/>
      <point x="410" y="647"/>
      <point x="403" y="586"/>
      <point x="403" y="533" type="curve" smooth="yes"/>
      <point x="403" y="338"/>
      <point x="492" y="231"/>
      <point x="645" y="231" type="curve" smooth="yes"/>
      <point x="695" y="231"/>
      <point x="737" y="242"/>
      <point x="770" y="264" type="curve"/>
      <point x="827" y="555" type="line"/>
      <point x="621" y="555" type="line"/>
      <point x="670" y="803" type="line"/>
      <point x="1130" y="803" type="line"/>
      <point x="991" y="94" type="line"/>
      <point x="898" y="14"/>
      <point x="763" y="-29"/>
      <point x="610" y="-29" type="curve" smooth="yes"/>
    </contour>
    <contour>
      <point x="490" y="-187" type="line"/>
      <point x="772" y="-187" type="line"/>
      <point x="536" y="-493" type="line"/>
      <point x="342" y="-493" type="line"/>
    </contour>
  </outline>
</glyph>
<glyph name="Itilde" format="1">
  <advance width="1233"/>
  <unicode hex="0128"/>
  <note>
	Itilde
  </note>
  <outline>
    <contour>
      <point x="428" y="1588" type="line"/>
      <point x="461" y="1761"/>
      <point x="553" y="1854"/>
      <point x="680" y="1854" type="curve" smooth="yes"/>
      <point x="731" y="1854"/>
      <point x="770" y="1839"/>
      <point x="817" y="1803" type="curve" smooth="yes"/>
      <point x="870" y="1762" type="line"/>
      <point x="891" y="1744"/>
      <point x="915" y="1735"/>
      <point x="940" y="1735" type="curve" smooth="yes"/>
      <point x="989" y="1735"/>
      <point x="1025" y="1777"/>
      <point x="1040" y="1854" type="curve"/>
      <point x="1177" y="1854" type="line"/>
      <point x="1142" y="1689"/>
      <point x="1058" y="1588"/>
      <point x="925" y="1588" type="curve" smooth="yes"/>
      <point x="878" y="1588"/>
      <point x="839" y="1600"/>
      <point x="788" y="1639" type="curve" smooth="yes"/>
      <point x="739" y="1676" type="line" smooth="yes"/>
      <point x="706" y="1701"/>
      <point x="686" y="1708"/>
      <point x="666" y="1708" type="curve" smooth="yes"/>
      <point x="615" y="1708"/>
      <point x="580" y="1667"/>
      <point x="565" y="1588" type="curve"/>
    </contour>
    <contour>
      <point x="78" y="260" type="line"/>
      <point x="375" y="260" type="line"/>
      <point x="563" y="1233" type="line"/>
      <point x="266" y="1233" type="line"/>
      <point x="317" y="1493" type="line"/>
      <point x="1206" y="1493" type="line"/>
      <point x="1155" y="1233" type="line"/>
      <point x="858" y="1233" type="line"/>
      <point x="670" y="260" type="line"/>
      <point x="967" y="260" type="line"/>
      <point x="915" y="0" type="line"/>
      <point x="27" y="0" type="line"/>
    </contour>
  </outline>
</glyph>
<glyph name="itilde" format="1">
  <advance width="1233"/>
  <unicode hex="0129"/>
  <note>
	itilde
  </note>
  <outline>
    <contour>
      <point x="757" y="1270"/>
      <point x="717" y="1286"/>
      <point x="664" y="1327" type="curve" smooth="yes"/>
      <point x="615" y="1364" type="line"/>
      <point x="614" y="1365"/>
      <point x="612" y="1367"/>
      <point x="610" y="1368" type="curve"/>
      <point x="582" y="1390"/>
      <point x="558" y="1401"/>
      <point x="537" y="1401" type="curve" smooth="yes"/>
      <point x="492" y="1401"/>
      <point x="454" y="1352"/>
      <point x="441" y="1272" type="curve"/>
      <point x="302" y="1272" type="line"/>
      <point x="314" y="1359"/>
      <point x="345" y="1430"/>
      <point x="389" y="1479" type="curve" smooth="yes"/>
      <point x="432" y="1528"/>
      <point x="488" y="1556"/>
      <point x="552" y="1556" type="curve" smooth="yes"/>
      <point x="575" y="1556"/>
      <point x="595" y="1552"/>
      <point x="617" y="1544" type="curve"/>
      <point x="639" y="1535"/>
      <point x="662" y="1519"/>
      <point x="693" y="1495" type="curve" smooth="yes"/>
      <point x="744" y="1456" type="line" smooth="yes"/>
      <point x="770" y="1435"/>
      <point x="793" y="1425"/>
      <point x="814" y="1425" type="curve" smooth="yes"/>
      <point x="865" y="1425"/>
      <point x="901" y="1470"/>
      <point x="914" y="1554" type="curve"/>
      <point x="1053" y="1554" type="line"/>
      <point x="1022" y="1365"/>
      <point x="939" y="1270"/>
      <point x="804" y="1270" type="curve" smooth="yes"/>
    </contour>
    <contour>
      <point x="727" y="-8" type="line" smooth="yes"/>
      <point x="584" y="-8"/>
      <point x="494" y="10"/>
      <point x="437" y="49" type="curve" smooth="yes"/>
      <point x="374" y="90"/>
      <point x="352" y="152"/>
      <point x="352" y="229" type="curve" smooth="yes"/>
      <point x="352" y="252"/>
      <point x="354" y="269"/>
      <point x="357" y="292" type="curve" smooth="yes"/>
      <point x="358" y="300"/>
      <point x="360" y="311"/>
      <point x="363" y="326" type="curve"/>
      <point x="365" y="340"/>
      <point x="368" y="355"/>
      <point x="371" y="371" type="curve"/>
      <point x="491" y="895" type="line"/>
      <point x="255" y="895" type="line"/>
      <point x="298" y="1120" type="line"/>
      <point x="826" y="1120" type="line"/>
      <point x="660" y="357" type="line" smooth="yes"/>
      <point x="658" y="349"/>
      <point x="657" y="343"/>
      <point x="656" y="340" type="curve"/>
      <point x="655" y="336"/>
      <point x="655" y="333"/>
      <point x="655" y="332" type="curve" smooth="yes"/>
      <point x="655" y="330"/>
      <point x="655" y="328"/>
      <point x="655" y="327" type="curve" smooth="yes"/>
      <point x="655" y="326"/>
      <point x="655" y="324"/>
      <point x="654" y="321" type="curve"/>
      <point x="651" y="310"/>
      <point x="651" y="303"/>
      <point x="651" y="295" type="curve" smooth="yes"/>
      <point x="651" y="272"/>
      <point x="659" y="251"/>
      <point x="682" y="236" type="curve" smooth="yes"/>
      <point x="703" y="223"/>
      <point x="739" y="217"/>
      <point x="791" y="217" type="curve" smooth="yes"/>
      <point x="1069" y="217" type="line"/>
      <point x="1024" y="-8" type="line"/>
    </contour>
  </outline>
</glyph>
<glyph name="lslash" format="1">
  <advance width="1233"/>
  <unicode hex="0142"/>
  <note>
	lslash
  </note>
  <outline>
    <contour>
      <point x="582" y="-10"/>
      <point x="486" y="9"/>
      <point x="429" y="46" type="curve" smooth="yes"/>
      <point x="372" y="83"/>
      <point x="344" y="147"/>
      <point x="344" y="227" type="curve" smooth="yes"/>
      <point x="344" y="250"/>
      <point x="346" y="267"/>
      <point x="349" y="290" type="curve" smooth="yes"/>
      <point x="352" y="313"/>
      <point x="355" y="340"/>
      <point x="362" y="369" type="curve"/>
      <point x="415" y="629" type="line"/>
      <point x="139" y="434" type="line"/>
      <point x="49" y="580" type="line"/>
      <point x="467" y="864" type="line"/>
      <point x="565" y="1331" type="line"/>
      <point x="260" y="1331" type="line"/>
      <point x="303" y="1556" type="line"/>
      <point x="901" y="1556" type="line"/>
      <point x="807" y="1092" type="line"/>
      <point x="1097" y="1295" type="line"/>
      <point x="1200" y="1157" type="line"/>
      <point x="757" y="856" type="line"/>
      <point x="651" y="354" type="line"/>
      <point x="649" y="346"/>
      <point x="648" y="341"/>
      <point x="647" y="338" type="curve" smooth="yes"/>
      <point x="646" y="335"/>
      <point x="646" y="332"/>
      <point x="646" y="331" type="curve" smooth="yes"/>
      <point x="646" y="330"/>
      <point x="646" y="328"/>
      <point x="646" y="327" type="curve" smooth="yes"/>
      <point x="646" y="326"/>
      <point x="646" y="323"/>
      <point x="645" y="319" type="curve"/>
      <point x="644" y="311"/>
      <point x="643" y="296"/>
      <point x="643" y="288" type="curve" smooth="yes"/>
      <point x="643" y="261"/>
      <point x="655" y="245"/>
      <point x="674" y="234" type="curve" smooth="yes"/>
      <point x="683" y="229"/>
      <point x="696" y="224"/>
      <point x="712" y="221" type="curve"/>
      <point x="728" y="217"/>
      <point x="751" y="215"/>
      <point x="782" y="215" type="curve" smooth="yes"/>
      <point x="1061" y="215" type="line"/>
      <point x="1016" y="-10" type="line"/>
      <point x="719" y="-10" type="line" smooth="yes"/>
    </contour>
  </outline>
</glyph>
<glyph name="uni0145" format="1">
  <advance width="1233"/>
  <unicode hex="0145"/>
  <note>
	uni0145
  </note>
  <outline>
    <contour>
      <point x="266" y="1493" type="line"/>
      <point x="569" y="1493" type="line"/>
      <point x="784" y="408" type="line"/>
      <point x="995" y="1493" type="line"/>
      <point x="1255" y="1493" type="line"/>
      <point x="967" y="0" type="line"/>
      <point x="674" y="0" type="line"/>
      <point x="449" y="1085" type="line"/>
      <point x="238" y="0" type="line"/>
      <point x="-25" y="0" type="line"/>
    </contour>
    <contour>
      <point x="351" y="-158" type="line"/>
      <point x="633" y="-158" type="line"/>
      <point x="397" y="-464" type="line"/>
      <point x="203" y="-464" type="line"/>
    </contour>
  </outline>
</glyph>
<glyph name="Eng" format="1">
  <advance width="1233"/>
  <unicode hex="014A"/>
  <note>
	Eng
  </note>
  <outline>
    <contour>
      <point x="447" y="-199" type="line"/>
      <point x="484" y="-199" type="line" smooth="yes"/>
      <point x="551" y="-199"/>
      <point x="599" y="-183"/>
      <point x="635" y="-144" type="curve" smooth="yes"/>
      <point x="671" y="-105"/>
      <point x="696" y="-44"/>
      <point x="713" y="44" type="curve" smooth="yes"/>
      <point x="902" y="1015" type="line" smooth="yes"/>
      <point x="909" y="1050"/>
      <point x="912" y="1082"/>
      <point x="912" y="1107" type="curve" smooth="yes"/>
      <point x="912" y="1210"/>
      <point x="861" y="1255"/>
      <point x="758" y="1255" type="curve" smooth="yes"/>
      <point x="679" y="1255"/>
      <point x="613" y="1227"/>
      <point x="564" y="1179" type="curve" smooth="yes"/>
      <point x="515" y="1130"/>
      <point x="480" y="1059"/>
      <point x="463" y="972" type="curve" smooth="yes"/>
      <point x="274" y="0" type="line"/>
      <point x="-21" y="0" type="line"/>
      <point x="270" y="1493" type="line"/>
      <point x="536" y="1493" type="line"/>
      <point x="518" y="1253" type="line"/>
      <point x="602" y="1425"/>
      <point x="741" y="1522"/>
      <point x="916" y="1522" type="curve" smooth="yes"/>
      <point x="1107" y="1522"/>
      <point x="1207" y="1407"/>
      <point x="1207" y="1172" type="curve" smooth="yes"/>
      <point x="1207" y="1105"/>
      <point x="1199" y="1029"/>
      <point x="1182" y="942" type="curve" smooth="yes"/>
      <point x="1010" y="58" type="line" smooth="yes"/>
      <point x="975" y="-119"/>
      <point x="924" y="-241"/>
      <point x="845" y="-317" type="curve" smooth="yes"/>
      <point x="766" y="-394"/>
      <point x="663" y="-426"/>
      <point x="524" y="-426" type="curve" smooth="yes"/>
      <point x="403" y="-426" type="line"/>
    </contour>
  </outline>
</glyph>
<glyph name="racute" format="1">
  <advance width="1233"/>
  <unicode hex="0155"/>
  <note>
	racute
  </note>
  <outline>
    <contour>
      <point x="911" y="1673" type="line"/>
      <point x="1232" y="1673" type="line"/>
      <point x="790" y="1297" type="line"/>
      <point x="593" y="1297" type="line"/>
    </contour>
    <contour>
      <point x="343" y="1120" type="line"/>
      <point x="607" y="1120" type="line"/>
      <point x="601" y="946" type="line"/>
      <point x="686" y="1078"/>
      <point x="824" y="1147"/>
      <point x="979" y="1147" type="curve" smooth="yes"/>
      <point x="1063" y="1147"/>
      <point x="1137" y="1126"/>
      <point x="1197" y="1090" type="curve"/>
      <point x="1144" y="815" type="line"/>
      <point x="1077" y="874"/>
      <point x="1003" y="899"/>
      <point x="899" y="899" type="curve" smooth="yes"/>
      <point x="791" y="899"/>
      <point x="709" y="871"/>
      <point x="648" y="810" type="curve" smooth="yes"/>
      <point x="587" y="749"/>
      <point x="546" y="653"/>
      <point x="519" y="516" type="curve" smooth="yes"/>
      <point x="419" y="0" type="line"/>
      <point x="124" y="0" type="line"/>
    </contour>
  </outline>
</glyph>
<glyph name="uni0157" format="1">
  <advance width="1233"/>
  <unicode hex="0157"/>
  <note>
	uni0157
  </note>
  <outline>
    <contour>
      <point x="373" y="1120" type="line"/>
      <point x="637" y="1120" type="line"/>
      <point x="631" y="946" type="line"/>
      <point x="716" y="1078"/>
      <point x="854" y="1147"/>
      <point x="1009" y="1147" type="curve" smooth="yes"/>
      <point x="1093" y="1147"/>
      <point x="1167" y="1126"/>
      <point x="1227" y="1090" type="curve"/>
      <point x="1174" y="815" type="line"/>
      <point x="1107" y="874"/>
      <point x="1033" y="899"/>
      <point x="929" y="899" type="curve" smooth="yes"/>
      <point x="821" y="899"/>
      <point x="739" y="871"/>
      <point x="678" y="810" type="curve" smooth="yes"/>
      <point x="617" y="749"/>
      <point x="576" y="653"/>
      <point x="549" y="516" type="curve" smooth="yes"/>
      <point x="449" y="0" type="line"/>
      <point x="154" y="0" type="line"/>
    </contour>
    <contour>
      <point x="181" y="-158" type="line"/>
      <point x="463" y="-158" type="line"/>
      <point x="227" y="-464" type="line"/>
      <point x="33" y="-464" type="line"/>
    </contour>
  </outline>
</glyph>
<glyph name="scedilla" format="1">
  <advance width="1233"/>
  <unicode hex="015F"/>
  <note>
	scedilla
  </note>
  <outline>
    <contour>
      <point x="516" y="880"/>
      <point x="498" y="849"/>
      <point x="498" y="810" type="curve" smooth="yes"/>
      <point x="498" y="749"/>
      <point x="542" y="728"/>
      <point x="595" y="707" type="curve" smooth="yes"/>
      <point x="621" y="696"/>
      <point x="656" y="685"/>
      <point x="700" y="672" type="curve" smooth="yes"/>
      <point x="774" y="651" type="line" smooth="yes"/>
      <point x="862" y="626"/>
      <point x="924" y="588"/>
      <point x="961" y="544" type="curve" smooth="yes"/>
      <point x="1000" y="499"/>
      <point x="1020" y="439"/>
      <point x="1020" y="359" type="curve" smooth="yes"/>
      <point x="1020" y="238"/>
      <point x="972" y="142"/>
      <point x="884" y="75" type="curve" smooth="yes"/>
      <point x="807" y="16"/>
      <point x="702" y="-15"/>
      <point x="581" y="-26" type="curve"/>
      <point x="612" y="-74"/>
      <point x="635" y="-126"/>
      <point x="635" y="-185" type="curve" smooth="yes"/>
      <point x="635" y="-248"/>
      <point x="611" y="-303"/>
      <point x="560" y="-342" type="curve" smooth="yes"/>
      <point x="511" y="-381"/>
      <point x="440" y="-401"/>
      <point x="348" y="-401" type="curve" smooth="yes"/>
      <point x="313" y="-401"/>
      <point x="274" y="-398"/>
      <point x="249" y="-395" type="curve" smooth="yes"/>
      <point x="221" y="-392"/>
      <point x="200" y="-388"/>
      <point x="187" y="-384" type="curve" smooth="yes"/>
      <point x="173" y="-380"/>
      <point x="161" y="-377"/>
      <point x="150" y="-375" type="curve"/>
      <point x="178" y="-219" type="line"/>
      <point x="207" y="-230"/>
      <point x="235" y="-238"/>
      <point x="262" y="-245" type="curve"/>
      <point x="289" y="-251"/>
      <point x="314" y="-254"/>
      <point x="339" y="-254" type="curve" smooth="yes"/>
      <point x="384" y="-254"/>
      <point x="420" y="-244"/>
      <point x="443" y="-227" type="curve" smooth="yes"/>
      <point x="467" y="-209"/>
      <point x="479" y="-183"/>
      <point x="479" y="-150" type="curve" smooth="yes"/>
      <point x="479" y="-133"/>
      <point x="475" y="-112"/>
      <point x="466" y="-89" type="curve"/>
      <point x="459" y="-73"/>
      <point x="450" y="-52"/>
      <point x="437" y="-27" type="curve"/>
      <point x="386" y="-24"/>
      <point x="334" y="-19"/>
      <point x="293" y="-12" type="curve" smooth="yes"/>
      <point x="229" y="-1"/>
      <point x="157" y="18"/>
      <point x="90" y="41" type="curve"/>
      <point x="141" y="297" type="line"/>
      <point x="205" y="256"/>
      <point x="258" y="232"/>
      <point x="322" y="212" type="curve" smooth="yes"/>
      <point x="383" y="193"/>
      <point x="442" y="182"/>
      <point x="510" y="182" type="curve" smooth="yes"/>
      <point x="657" y="182"/>
      <point x="743" y="234"/>
      <point x="743" y="326" type="curve" smooth="yes"/>
      <point x="743" y="362"/>
      <point x="731" y="380"/>
      <point x="712" y="395" type="curve" smooth="yes"/>
      <point x="685" y="416"/>
      <point x="630" y="438"/>
      <point x="549" y="461" type="curve" smooth="yes"/>
      <point x="461" y="485" type="line" smooth="yes"/>
      <point x="388" y="505"/>
      <point x="325" y="540"/>
      <point x="282" y="592" type="curve" smooth="yes"/>
      <point x="246" y="636"/>
      <point x="225" y="691"/>
      <point x="225" y="767" type="curve" smooth="yes"/>
      <point x="225" y="884"/>
      <point x="273" y="980"/>
      <point x="360" y="1045" type="curve" smooth="yes"/>
      <point x="447" y="1110"/>
      <point x="572" y="1147"/>
      <point x="725" y="1147" type="curve" smooth="yes"/>
      <point x="786" y="1147"/>
      <point x="856" y="1141"/>
      <point x="909" y="1132" type="curve" smooth="yes"/>
      <point x="962" y="1123"/>
      <point x="1037" y="1105"/>
      <point x="1094" y="1085" type="curve"/>
      <point x="1044" y="831" type="line"/>
      <point x="993" y="866"/>
      <point x="939" y="893"/>
      <point x="882" y="911" type="curve" smooth="yes"/>
      <point x="823" y="930"/>
      <point x="764" y="938"/>
      <point x="705" y="938" type="curve" smooth="yes"/>
      <point x="637" y="938"/>
      <point x="590" y="926"/>
      <point x="553" y="903" type="curve" smooth="yes"/>
    </contour>
  </outline>
</glyph>
<glyph name="Utilde" format="1">
  <advance width="1233"/>
  <unicode hex="0168"/>
  <note>
	Utilde
  </note>
  <outline>
    <contour>
      <point x="438" y="1589" type="line"/>
      <point x="471" y="1762"/>
      <point x="563" y="1855"/>
      <point x="690" y="1855" type="curve" smooth="yes"/>
      <point x="741" y="1855"/>
      <point x="780" y="1840"/>
      <point x="827" y="1804" type="curve" smooth="yes"/>
      <point x="880" y="1763" type="line"/>
      <point x="901" y="1745"/>
      <point x="925" y="1736"/>
      <point x="950" y="1736" type="curve" smooth="yes"/>
      <point x="999" y="1736"/>
      <point x="1035" y="1778"/>
      <point x="1050" y="1855" type="curve"/>
      <point x="1187" y="1855" type="line"/>
      <point x="1152" y="1690"/>
      <point x="1068" y="1589"/>
      <point x="935" y="1589" type="curve" smooth="yes"/>
      <point x="888" y="1589"/>
      <point x="849" y="1601"/>
      <point x="798" y="1640" type="curve" smooth="yes"/>
      <point x="749" y="1677" type="line" smooth="yes"/>
      <point x="716" y="1702"/>
      <point x="696" y="1709"/>
      <point x="676" y="1709" type="curve" smooth="yes"/>
      <point x="625" y="1709"/>
      <point x="590" y="1668"/>
      <point x="575" y="1589" type="curve"/>
    </contour>
    <contour>
      <point x="351" y="-29"/>
      <point x="239" y="5"/>
      <point x="163" y="71" type="curve" smooth="yes"/>
      <point x="86" y="137"/>
      <point x="45" y="232"/>
      <point x="45" y="359" type="curve" smooth="yes"/>
      <point x="45" y="411"/>
      <point x="52" y="471"/>
      <point x="68" y="551" type="curve" smooth="yes"/>
      <point x="252" y="1493" type="line"/>
      <point x="547" y="1493" type="line"/>
      <point x="348" y="477" type="line"/>
      <point x="348" y="475"/>
      <point x="348" y="473"/>
      <point x="347" y="471" type="curve"/>
      <point x="342" y="440"/>
      <point x="340" y="418"/>
      <point x="340" y="399" type="curve" smooth="yes"/>
      <point x="340" y="294"/>
      <point x="402" y="231"/>
      <point x="522" y="231" type="curve" smooth="yes"/>
      <point x="655" y="231"/>
      <point x="745" y="309"/>
      <point x="778" y="477" type="curve" smooth="yes"/>
      <point x="977" y="1493" type="line"/>
      <point x="1272" y="1493" type="line"/>
      <point x="1087" y="551" type="line" smooth="yes"/>
      <point x="1064" y="436"/>
      <point x="1042" y="351"/>
      <point x="1014" y="283" type="curve" smooth="yes"/>
      <point x="986" y="215"/>
      <point x="953" y="166"/>
      <point x="909" y="123" type="curve" smooth="yes"/>
      <point x="809" y="24"/>
      <point x="672" y="-29"/>
      <point x="492" y="-29" type="curve" smooth="yes"/>
    </contour>
  </outline>
</glyph>
<glyph name="utilde" format="1">
  <advance width="1233"/>
  <unicode hex="0169"/>
  <note>
	utilde
  </note>
  <outline>
    <contour>
      <point x="865" y="1270"/>
      <point x="844" y="1274"/>
      <point x="821" y="1283" type="curve" smooth="yes"/>
      <point x="798" y="1292"/>
      <point x="776" y="1307"/>
      <point x="749" y="1327" type="curve" smooth="yes"/>
      <point x="700" y="1364" type="line"/>
      <point x="699" y="1365"/>
      <point x="697" y="1367"/>
      <point x="695" y="1368" type="curve"/>
      <point x="667" y="1390"/>
      <point x="643" y="1401"/>
      <point x="622" y="1401" type="curve" smooth="yes"/>
      <point x="577" y="1401"/>
      <point x="539" y="1352"/>
      <point x="526" y="1272" type="curve"/>
      <point x="387" y="1272" type="line"/>
      <point x="399" y="1359"/>
      <point x="430" y="1430"/>
      <point x="474" y="1479" type="curve" smooth="yes"/>
      <point x="517" y="1528"/>
      <point x="574" y="1556"/>
      <point x="638" y="1556" type="curve" smooth="yes"/>
      <point x="662" y="1556"/>
      <point x="682" y="1552"/>
      <point x="704" y="1543" type="curve" smooth="yes"/>
      <point x="726" y="1534"/>
      <point x="747" y="1518"/>
      <point x="778" y="1495" type="curve" smooth="yes"/>
      <point x="829" y="1456" type="line" smooth="yes"/>
      <point x="856" y="1435"/>
      <point x="880" y="1425"/>
      <point x="901" y="1425" type="curve" smooth="yes"/>
      <point x="952" y="1425"/>
      <point x="987" y="1474"/>
      <point x="999" y="1554" type="curve"/>
      <point x="1138" y="1554" type="line"/>
      <point x="1107" y="1367"/>
      <point x="1024" y="1270"/>
      <point x="892" y="1270" type="curve" smooth="yes"/>
    </contour>
    <contour>
      <point x="204" y="-29"/>
      <point x="106" y="67"/>
      <point x="106" y="244" type="curve" smooth="yes"/>
      <point x="106" y="283"/>
      <point x="111" y="327"/>
      <point x="123" y="391" type="curve" smooth="yes"/>
      <point x="266" y="1120" type="line"/>
      <point x="557" y="1120" type="line"/>
      <point x="426" y="436" type="line" smooth="yes"/>
      <point x="419" y="400"/>
      <point x="416" y="362"/>
      <point x="416" y="338" type="curve" smooth="yes"/>
      <point x="416" y="251"/>
      <point x="456" y="211"/>
      <point x="528" y="211" type="curve" smooth="yes"/>
      <point x="635" y="211"/>
      <point x="715" y="298"/>
      <point x="752" y="489" type="curve" smooth="yes"/>
      <point x="874" y="1120" type="line"/>
      <point x="1165" y="1120" type="line"/>
      <point x="948" y="0" type="line"/>
      <point x="684" y="0" type="line"/>
      <point x="688" y="166" type="line"/>
      <point x="628" y="45"/>
      <point x="513" y="-29"/>
      <point x="368" y="-29" type="curve" smooth="yes"/>
    </contour>
  </outline>
</glyph>
<glyph name="Uring" format="1">
  <advance width="1233"/>
  <unicode hex="016E"/>
  <note>
	Uring
  </note>
  <outline>
    <contour>
      <point x="1272" y="1493" type="line"/>
      <point x="1087" y="551" type="line" smooth="yes"/>
      <point x="1064" y="436"/>
      <point x="1042" y="351"/>
      <point x="1014" y="283" type="curve" smooth="yes"/>
      <point x="986" y="215"/>
      <point x="953" y="166"/>
      <point x="909" y="123" type="curve" smooth="yes"/>
      <point x="809" y="24"/>
      <point x="672" y="-29"/>
      <point x="492" y="-29" type="curve" smooth="yes"/>
      <point x="351" y="-29"/>
      <point x="239" y="5"/>
      <point x="163" y="71" type="curve" smooth="yes"/>
      <point x="86" y="137"/>
      <point x="45" y="232"/>
      <point x="45" y="359" type="curve" smooth="yes"/>
      <point x="45" y="411"/>
      <point x="52" y="471"/>
      <point x="68" y="551" type="curve" smooth="yes"/>
      <point x="252" y="1493" type="line"/>
      <point x="503" y="1493" type="line"/>
      <point x="484" y="1532"/>
      <point x="475" y="1573"/>
      <point x="475" y="1616" type="curve" smooth="yes"/>
      <point x="475" y="1695"/>
      <point x="506" y="1766"/>
      <point x="558" y="1818" type="curve" smooth="yes"/>
      <point x="609" y="1869"/>
      <point x="680" y="1901"/>
      <point x="759" y="1901" type="curve" smooth="yes"/>
      <point x="838" y="1901"/>
      <point x="909" y="1869"/>
      <point x="961" y="1818" type="curve" smooth="yes"/>
      <point x="1012" y="1766"/>
      <point x="1044" y="1695"/>
      <point x="1044" y="1616" type="curve" smooth="yes"/>
      <point x="1044" y="1573"/>
      <point x="1035" y="1532"/>
      <point x="1016" y="1493" type="curve"/>
    </contour>
    <contour>
      <point x="723" y="1747"/>
      <point x="690" y="1732"/>
      <point x="667" y="1709" type="curve" smooth="yes"/>
      <point x="643" y="1685"/>
      <point x="628" y="1652"/>
      <point x="628" y="1616" type="curve" smooth="yes"/>
      <point x="628" y="1580"/>
      <point x="643" y="1547"/>
      <point x="667" y="1523" type="curve" smooth="yes"/>
      <point x="690" y="1499"/>
      <point x="723" y="1485"/>
      <point x="759" y="1485" type="curve" smooth="yes"/>
      <point x="795" y="1485"/>
      <point x="828" y="1500"/>
      <point x="852" y="1524" type="curve" smooth="yes"/>
      <point x="876" y="1547"/>
      <point x="891" y="1580"/>
      <point x="891" y="1616" type="curve" smooth="yes"/>
      <point x="891" y="1652"/>
      <point x="876" y="1685"/>
      <point x="852" y="1709" type="curve" smooth="yes"/>
      <point x="828" y="1732"/>
      <point x="795" y="1747"/>
      <point x="759" y="1747" type="curve" smooth="yes"/>
    </contour>
    <contour>
      <point x="962" y="1416" type="line"/>
      <point x="910" y="1363"/>
      <point x="839" y="1331"/>
      <point x="759" y="1331" type="curve" smooth="yes"/>
      <point x="667" y="1331"/>
      <point x="588" y="1372"/>
      <point x="536" y="1439" type="curve"/>
      <point x="348" y="477" type="line"/>
      <point x="348" y="475"/>
      <point x="348" y="473"/>
      <point x="347" y="471" type="curve"/>
      <point x="342" y="440"/>
      <point x="340" y="418"/>
      <point x="340" y="399" type="curve" smooth="yes"/>
      <point x="340" y="294"/>
      <point x="402" y="231"/>
      <point x="522" y="231" type="curve" smooth="yes"/>
      <point x="655" y="231"/>
      <point x="745" y="309"/>
      <point x="778" y="477" type="curve" smooth="yes"/>
    </contour>
  </outline>
</glyph>
<glyph name="uring" format="1">
  <advance width="1233"/>
  <unicode hex="016F"/>
  <note>
	uring
  </note>
  <outline>
    <contour>
      <point x="658" y="1254"/>
      <point x="587" y="1286"/>
      <point x="536" y="1338" type="curve" smooth="yes"/>
      <point x="484" y="1389"/>
      <point x="453" y="1460"/>
      <point x="453" y="1539" type="curve" smooth="yes"/>
      <point x="453" y="1618"/>
      <point x="484" y="1689"/>
      <point x="536" y="1741" type="curve" smooth="yes"/>
      <point x="587" y="1792"/>
      <point x="658" y="1824"/>
      <point x="737" y="1824" type="curve" smooth="yes"/>
      <point x="816" y="1824"/>
      <point x="887" y="1792"/>
      <point x="939" y="1741" type="curve" smooth="yes"/>
      <point x="990" y="1689"/>
      <point x="1022" y="1618"/>
      <point x="1022" y="1539" type="curve" smooth="yes"/>
      <point x="1022" y="1460"/>
      <point x="990" y="1389"/>
      <point x="939" y="1338" type="curve" smooth="yes"/>
      <point x="887" y="1286"/>
      <point x="816" y="1254"/>
      <point x="737" y="1254" type="curve" smooth="yes"/>
    </contour>
    <contour>
      <point x="773" y="1408"/>
      <point x="806" y="1423"/>
      <point x="830" y="1447" type="curve" smooth="yes"/>
      <point x="854" y="1470"/>
      <point x="869" y="1503"/>
      <point x="869" y="1539" type="curve" smooth="yes"/>
      <point x="869" y="1575"/>
      <point x="854" y="1608"/>
      <point x="830" y="1632" type="curve" smooth="yes"/>
      <point x="806" y="1655"/>
      <point x="773" y="1670"/>
      <point x="737" y="1670" type="curve" smooth="yes"/>
      <point x="701" y="1670"/>
      <point x="668" y="1655"/>
      <point x="645" y="1632" type="curve" smooth="yes"/>
      <point x="621" y="1608"/>
      <point x="606" y="1575"/>
      <point x="606" y="1539" type="curve" smooth="yes"/>
      <point x="606" y="1503"/>
      <point x="621" y="1470"/>
      <point x="645" y="1446" type="curve" smooth="yes"/>
      <point x="668" y="1422"/>
      <point x="701" y="1408"/>
      <point x="737" y="1408" type="curve" smooth="yes"/>
    </contour>
    <contour>
      <point x="204" y="-29"/>
      <point x="106" y="67"/>
      <point x="106" y="244" type="curve" smooth="yes"/>
      <point x="106" y="283"/>
      <point x="111" y="327"/>
      <point x="123" y="391" type="curve" smooth="yes"/>
      <point x="266" y="1120" type="line"/>
      <point x="557" y="1120" type="line"/>
      <point x="426" y="436" type="line" smooth="yes"/>
      <point x="419" y="400"/>
      <point x="416" y="362"/>
      <point x="416" y="338" type="curve" smooth="yes"/>
      <point x="416" y="251"/>
      <point x="456" y="211"/>
      <point x="528" y="211" type="curve" smooth="yes"/>
      <point x="635" y="211"/>
      <point x="715" y="298"/>
      <point x="752" y="489" type="curve" smooth="yes"/>
      <point x="874" y="1120" type="line"/>
      <point x="1165" y="1120" type="line"/>
      <point x="948" y="0" type="line"/>
      <point x="684" y="0" type="line"/>
      <point x="688" y="166" type="line"/>
      <point x="628" y="45"/>
      <point x="513" y="-29"/>
      <point x="368" y="-29" type="curve" smooth="yes"/>
    </contour>
  </outline>
</glyph>
<glyph name="Wcircumflex" format="1">
  <advance width="1233"/>
  <unicode hex="0174"/>
  <note>
	Wcircumflex
  </note>
  <outline>
    <contour>
      <point x="669" y="1859" type="line"/>
      <point x="1017" y="1859" type="line"/>
      <point x="1168" y="1595" type="line"/>
      <point x="999" y="1595" type="line"/>
      <point x="835" y="1756" type="line"/>
      <point x="605" y="1595" type="line"/>
      <point x="425" y="1595" type="line"/>
    </contour>
    <contour>
      <point x="143" y="1493" type="line"/>
      <point x="397" y="1493" type="line"/>
      <point x="289" y="397" type="line"/>
      <point x="561" y="1106" type="line"/>
      <point x="799" y="1106" type="line"/>
      <point x="811" y="397" type="line"/>
      <point x="1108" y="1493" type="line"/>
      <point x="1370" y="1493" type="line"/>
      <point x="909" y="0" type="line"/>
      <point x="639" y="0" type="line"/>
      <point x="627" y="784" type="line"/>
      <point x="309" y="0" type="line"/>
      <point x="41" y="0" type="line"/>
    </contour>
  </outline>
</glyph>
<glyph name="uni01A4" format="1">
  <advance width="1233"/>
  <unicode hex="01A4"/>
  <outline>
    <contour>
      <point x="429" y="0" type="line"/>
      <point x="538" y="559" type="line"/>
      <point x="648" y="559" type="line" smooth="yes"/>
      <point x="1039" y="559"/>
      <point x="1260" y="717"/>
      <point x="1319" y="1026" type="curve" smooth="yes"/>
      <point x="1327" y="1068"/>
      <point x="1331" y="1107"/>
      <point x="1331" y="1143" type="curve" smooth="yes"/>
      <point x="1331" y="1376"/>
      <point x="1164" y="1493"/>
      <point x="829" y="1493" type="curve" smooth="yes"/>
      <point x="424" y="1493" type="line" smooth="yes"/>
      <point x="379" y="1493"/>
      <point x="334" y="1480"/>
      <point x="299" y="1461" type="curve" smooth="yes"/>
      <point x="216" y="1416"/>
      <point x="153" y="1324"/>
      <point x="129" y="1200" type="curve" smooth="yes"/>
      <point x="104" y="1070" type="line"/>
      <point x="279" y="1070" type="line"/>
      <point x="288" y="1118" type="line" smooth="yes"/>
      <point x="295" y="1156"/>
      <point x="301" y="1185"/>
      <point x="306" y="1200" type="curve" smooth="yes"/>
      <point x="316" y="1230"/>
      <point x="330" y="1245"/>
      <point x="376" y="1245" type="curve"/>
      <point x="134" y="0" type="line"/>
    </contour>
    <contour>
      <point x="671" y="1245" type="line"/>
      <point x="792" y="1245" type="line" smooth="yes"/>
      <point x="953" y="1245"/>
      <point x="1020" y="1204"/>
      <point x="1020" y="1102" type="curve" smooth="yes"/>
      <point x="1020" y="1080"/>
      <point x="1017" y="1053"/>
      <point x="1012" y="1026" type="curve" smooth="yes"/>
      <point x="1002" y="973"/>
      <point x="985" y="929"/>
      <point x="962" y="897" type="curve" smooth="yes"/>
      <point x="916" y="834"/>
      <point x="839" y="807"/>
      <point x="707" y="807" type="curve" smooth="yes"/>
      <point x="586" y="807" type="line"/>
    </contour>
  </outline>
</glyph>
<glyph name="oslashacute" format="1">
  <advance width="1233"/>
  <unicode hex="01FF"/>
  <note>
	oslashacute
  </note>
  <outline>
    <contour>
      <point x="887" y="1675" type="line"/>
      <point x="1208" y="1675" type="line"/>
      <point x="766" y="1299" type="line"/>
      <point x="569" y="1299" type="line"/>
    </contour>
    <contour>
      <point x="-82" y="2" type="line"/>
      <point x="129" y="209" type="line"/>
      <point x="101" y="274"/>
      <point x="88" y="336"/>
      <point x="88" y="433" type="curve" smooth="yes"/>
      <point x="88" y="642"/>
      <point x="149" y="823"/>
      <point x="254" y="949" type="curve" smooth="yes"/>
      <point x="359" y="1075"/>
      <point x="510" y="1149"/>
      <point x="690" y="1149" type="curve" smooth="yes"/>
      <point x="810" y="1149"/>
      <point x="914" y="1116"/>
      <point x="1001" y="1049" type="curve"/>
      <point x="1194" y="1235" type="line"/>
      <point x="1311" y="1114" type="line"/>
      <point x="1104" y="913" type="line"/>
      <point x="1119" y="877"/>
      <point x="1128" y="843"/>
      <point x="1135" y="807" type="curve" smooth="yes"/>
      <point x="1142" y="770"/>
      <point x="1145" y="731"/>
      <point x="1145" y="684" type="curve" smooth="yes"/>
      <point x="1145" y="473"/>
      <point x="1085" y="295"/>
      <point x="979" y="170" type="curve" smooth="yes"/>
      <point x="873" y="45"/>
      <point x="721" y="-29"/>
      <point x="538" y="-29" type="curve" smooth="yes"/>
      <point x="414" y="-29"/>
      <point x="312" y="5"/>
      <point x="233" y="72" type="curve"/>
      <point x="35" y="-117" type="line"/>
    </contour>
    <contour>
      <point x="801" y="856" type="line"/>
      <point x="768" y="893"/>
      <point x="726" y="911"/>
      <point x="673" y="911" type="curve" smooth="yes"/>
      <point x="513" y="911"/>
      <point x="408" y="752"/>
      <point x="383" y="453" type="curve"/>
    </contour>
    <contour>
      <point x="642" y="207"/>
      <point x="709" y="249"/>
      <point x="758" y="328" type="curve" smooth="yes"/>
      <point x="807" y="407"/>
      <point x="839" y="522"/>
      <point x="850" y="670" type="curve"/>
      <point x="434" y="266" type="line"/>
      <point x="465" y="227"/>
      <point x="508" y="207"/>
      <point x="562" y="207" type="curve" smooth="yes"/>
    </contour>
  </outline>
</glyph>
<glyph name="uni02C0" format="1">
  <advance width="1233"/>
  <unicode hex="02C0"/>
  <note>
	uni02C0
  </note>
  <outline>
    <contour>
      <point x="437" y="1080" type="line"/>
      <point x="491" y="1080" type="line" smooth="yes"/>
      <point x="575" y="1080"/>
      <point x="637" y="1101"/>
      <point x="678" y="1144" type="curve" smooth="yes"/>
      <point x="713" y="1180"/>
      <point x="730" y="1220"/>
      <point x="730" y="1257" type="curve" smooth="yes"/>
      <point x="730" y="1279"/>
      <point x="724" y="1299"/>
      <point x="712" y="1317" type="curve" smooth="yes"/>
      <point x="682" y="1360"/>
      <point x="633" y="1381"/>
      <point x="564" y="1381" type="curve" smooth="yes"/>
      <point x="501" y="1381"/>
      <point x="438" y="1365"/>
      <point x="373" y="1333" type="curve"/>
      <point x="405" y="1500" type="line"/>
      <point x="437" y="1512"/>
      <point x="465" y="1522"/>
      <point x="502" y="1529" type="curve" smooth="yes"/>
      <point x="538" y="1536"/>
      <point x="584" y="1539"/>
      <point x="655" y="1539" type="curve" smooth="yes"/>
      <point x="738" y="1539"/>
      <point x="808" y="1508"/>
      <point x="857" y="1460" type="curve" smooth="yes"/>
      <point x="905" y="1412"/>
      <point x="934" y="1347"/>
      <point x="934" y="1276" type="curve" smooth="yes"/>
      <point x="934" y="1261"/>
      <point x="932" y="1245"/>
      <point x="929" y="1226" type="curve" smooth="yes"/>
      <point x="913" y="1139"/>
      <point x="872" y="1075"/>
      <point x="817" y="1030" type="curve" smooth="yes"/>
      <point x="762" y="985"/>
      <point x="693" y="958"/>
      <point x="617" y="946" type="curve"/>
      <point x="563" y="668" type="line"/>
      <point x="357" y="668" type="line"/>
    </contour>
  </outline>
</glyph>
<glyph name="uni02CD" format="1">
  <advance width="1233"/>
  <unicode hex="02CD"/>
  <note>
	uni02CD
  </note>
  <outline>
    <contour>
      <point x="114" y="-218" type="line"/>
      <point x="745" y="-218" type="line"/>
      <point x="708" y="-406" type="line"/>
      <point x="77" y="-406" type="line"/>
    </contour>
  </outline>
</glyph>
<glyph name="uni02CF" format="1">
  <advance width="1233"/>
  <unicode hex="02CF"/>
  <note>
	uni02CF
  </note>
  <outline>
    <contour>
      <point x="789" y="-208" type="line"/>
      <point x="1110" y="-208" type="line"/>
      <point x="668" y="-584" type="line"/>
      <point x="471" y="-584" type="line"/>
    </contour>
  </outline>
</glyph>
<glyph name="dotaccent" format="1">
  <advance width="1233"/>
  <unicode hex="02D9"/>
  <note>
	dotaccent
  </note>
  <outline>
    <contour>
      <point x="609" y="1339"/>
      <point x="600" y="1347"/>
      <point x="600" y="1363" type="curve" smooth="yes"/>
      <point x="600" y="1367"/>
      <point x="600" y="1370"/>
      <point x="601" y="1372" type="curve"/>
      <point x="638" y="1558" type="line" smooth="yes"/>
      <point x="641" y="1576"/>
      <point x="651" y="1585"/>
      <point x="670" y="1585" type="curve" smooth="yes"/>
      <point x="882" y="1585" type="line" smooth="yes"/>
      <point x="902" y="1585"/>
      <point x="913" y="1572"/>
      <point x="909" y="1552" type="curve" smooth="yes"/>
      <point x="873" y="1366" type="line" smooth="yes"/>
      <point x="870" y="1348"/>
      <point x="859" y="1339"/>
      <point x="841" y="1339" type="curve" smooth="yes"/>
      <point x="627" y="1339" type="line" smooth="yes"/>
    </contour>
  </outline>
</glyph>
<glyph name="ogonek" format="1">
  <advance width="1233"/>
  <unicode hex="02DB"/>
  <note>
	ogonek
  </note>
  <outline>
    <contour>
      <point x="408" y="-401"/>
      <point x="354" y="-390"/>
      <point x="314" y="-363" type="curve" smooth="yes"/>
      <point x="277" y="-339"/>
      <point x="256" y="-304"/>
      <point x="256" y="-256" type="curve" smooth="yes"/>
      <point x="256" y="-180"/>
      <point x="309" y="-91"/>
      <point x="412" y="0" type="curve"/>
      <point x="553" y="0" type="line"/>
      <point x="503" y="-53"/>
      <point x="470" y="-92"/>
      <point x="454" y="-117" type="curve" smooth="yes"/>
      <point x="439" y="-140"/>
      <point x="430" y="-162"/>
      <point x="430" y="-182" type="curve" smooth="yes"/>
      <point x="430" y="-203"/>
      <point x="439" y="-220"/>
      <point x="456" y="-234" type="curve" smooth="yes"/>
      <point x="472" y="-247"/>
      <point x="494" y="-254"/>
      <point x="529" y="-254" type="curve" smooth="yes"/>
      <point x="548" y="-254"/>
      <point x="574" y="-252"/>
      <point x="601" y="-247" type="curve" smooth="yes"/>
      <point x="627" y="-242"/>
      <point x="655" y="-234"/>
      <point x="686" y="-223" type="curve"/>
      <point x="655" y="-379" type="line"/>
      <point x="643" y="-382"/>
      <point x="625" y="-385"/>
      <point x="606" y="-388" type="curve"/>
      <point x="587" y="-392"/>
      <point x="569" y="-395"/>
      <point x="560" y="-396" type="curve" smooth="yes"/>
      <point x="533" y="-399"/>
      <point x="496" y="-401"/>
      <point x="471" y="-401" type="curve" smooth="yes"/>
    </contour>
  </outline>
</glyph>
<glyph name="uni0316" format="1">
  <advance width="0"/>
  <unicode hex="0316"/>
  <note>
	uni0316
  </note>
  <outline>
    <contour>
      <point x="-727" y="-217" type="line"/>
      <point x="-443" y="-217" type="line"/>
      <point x="-234" y="-593" type="line"/>
      <point x="-432" y="-593" type="line"/>
    </contour>
  </outline>
</glyph>
<glyph name="uni0319" format="1">
  <advance width="0"/>
  <unicode hex="0319"/>
  <note>
	uni0319
  </note>
  <outline>
    <contour>
      <point x="-758" y="-252" type="line"/>
      <point x="-568" y="-252" type="line"/>
      <point x="-604" y="-435" type="line"/>
      <point x="-421" y="-435" type="line"/>
      <point x="-458" y="-624" type="line"/>
      <point x="-640" y="-624" type="line"/>
      <point x="-676" y="-807" type="line"/>
      <point x="-865" y="-807" type="line"/>
    </contour>
  </outline>
</glyph>
<glyph name="uni031A" format="1">
  <advance width="0"/>
  <unicode hex="031A"/>
  <note>
	uni031A
  </note>
  <outline>
    <contour>
      <point x="-511" y="1713" type="line"/>
      <point x="-877" y="1713" type="line"/>
      <point x="-840" y="1902" type="line"/>
      <point x="-285" y="1902" type="line"/>
      <point x="-393" y="1347" type="line"/>
      <point x="-582" y="1347" type="line"/>
    </contour>
  </outline>
</glyph>
<glyph name="uni031C" format="1">
  <advance width="0"/>
  <unicode hex="031C"/>
  <note>
	uni031C
  </note>
  <outline>
    <contour>
      <point x="-813" y="-502"/>
      <point x="-858" y="-479"/>
      <point x="-887" y="-446" type="curve" smooth="yes"/>
      <point x="-916" y="-414"/>
      <point x="-931" y="-371"/>
      <point x="-931" y="-328" type="curve" smooth="yes"/>
      <point x="-931" y="-248"/>
      <point x="-895" y="-183"/>
      <point x="-844" y="-136" type="curve" smooth="yes"/>
      <point x="-793" y="-89"/>
      <point x="-727" y="-63"/>
      <point x="-664" y="-63" type="curve"/>
      <point x="-690" y="-195" type="line"/>
      <point x="-714" y="-195"/>
      <point x="-741" y="-207"/>
      <point x="-761" y="-224" type="curve" smooth="yes"/>
      <point x="-782" y="-241"/>
      <point x="-797" y="-266"/>
      <point x="-797" y="-290" type="curve" smooth="yes"/>
      <point x="-797" y="-343"/>
      <point x="-773" y="-370"/>
      <point x="-724" y="-370" type="curve"/>
      <point x="-750" y="-502" type="line"/>
    </contour>
  </outline>
</glyph>
<glyph name="uni031D" format="1">
  <advance width="0"/>
  <unicode hex="031D"/>
  <note>
	uni031D
  </note>
  <outline>
    <contour>
      <point x="-946" y="-435" type="line"/>
      <point x="-763" y="-435" type="line"/>
      <point x="-728" y="-252" type="line"/>
      <point x="-538" y="-252" type="line"/>
      <point x="-574" y="-435" type="line"/>
      <point x="-391" y="-435" type="line"/>
      <point x="-428" y="-624" type="line"/>
      <point x="-983" y="-624" type="line"/>
    </contour>
  </outline>
</glyph>
<glyph name="uni031F" format="1">
  <advance width="0"/>
  <unicode hex="031F"/>
  <note>
	uni031F
  </note>
  <outline>
    <contour>
      <point x="-825" y="-624" type="line"/>
      <point x="-1008" y="-624" type="line"/>
      <point x="-971" y="-435" type="line"/>
      <point x="-788" y="-435" type="line"/>
      <point x="-753" y="-252" type="line"/>
      <point x="-563" y="-252" type="line"/>
      <point x="-599" y="-435" type="line"/>
      <point x="-416" y="-435" type="line"/>
      <point x="-453" y="-624" type="line"/>
      <point x="-635" y="-624" type="line"/>
      <point x="-671" y="-807" type="line"/>
      <point x="-860" y="-807" type="line"/>
    </contour>
  </outline>
</glyph>
<glyph name="uni0321" format="1">
  <advance width="0"/>
  <unicode hex="0321"/>
  <note>
	uni0321
  </note>
  <outline>
    <contour>
      <point x="-688" y="-199" type="line"/>
      <point x="-649" y="-199" type="line" smooth="yes"/>
      <point x="-584" y="-199"/>
      <point x="-535" y="-183"/>
      <point x="-498" y="-145" type="curve" smooth="yes"/>
      <point x="-462" y="-107"/>
      <point x="-437" y="-46"/>
      <point x="-420" y="43" type="curve" smooth="yes"/>
      <point x="-395" y="168" type="line"/>
      <point x="-104" y="168" type="line"/>
      <point x="-129" y="43" type="line" smooth="yes"/>
      <point x="-161" y="-124"/>
      <point x="-212" y="-240"/>
      <point x="-289" y="-315" type="curve" smooth="yes"/>
      <point x="-366" y="-391"/>
      <point x="-471" y="-424"/>
      <point x="-611" y="-424" type="curve" smooth="yes"/>
      <point x="-732" y="-424" type="line"/>
    </contour>
  </outline>
</glyph>
<glyph name="dotbelowcomb" format="1">
  <advance width="0"/>
  <unicode hex="0323"/>
  <note>
	dotbelowcomb
  </note>
  <outline>
    <contour>
      <point x="-941" y="-216" type="line"/>
      <point x="-666" y="-216" type="line"/>
      <point x="-714" y="-462" type="line"/>
      <point x="-989" y="-462" type="line"/>
    </contour>
  </outline>
</glyph>
<glyph name="uni0325" format="1">
  <advance width="0"/>
  <unicode hex="0325"/>
  <note>
	uni0325
  </note>
  <outline>
    <contour>
      <point x="-922" y="-502"/>
      <point x="-967" y="-479"/>
      <point x="-996" y="-446" type="curve" smooth="yes"/>
      <point x="-1025" y="-414"/>
      <point x="-1040" y="-371"/>
      <point x="-1040" y="-328" type="curve" smooth="yes"/>
      <point x="-1040" y="-248"/>
      <point x="-1004" y="-183"/>
      <point x="-953" y="-136" type="curve" smooth="yes"/>
      <point x="-902" y="-89"/>
      <point x="-835" y="-63"/>
      <point x="-774" y="-63" type="curve" smooth="yes"/>
      <point x="-713" y="-63"/>
      <point x="-666" y="-86"/>
      <point x="-636" y="-118" type="curve" smooth="yes"/>
      <point x="-606" y="-151"/>
      <point x="-592" y="-195"/>
      <point x="-592" y="-236" type="curve" smooth="yes"/>
      <point x="-592" y="-316"/>
      <point x="-628" y="-382"/>
      <point x="-679" y="-429" type="curve" smooth="yes"/>
      <point x="-731" y="-476"/>
      <point x="-798" y="-502"/>
      <point x="-859" y="-502" type="curve" smooth="yes"/>
    </contour>
    <contour>
      <point x="-810" y="-370"/>
      <point x="-783" y="-358"/>
      <point x="-762" y="-340" type="curve" smooth="yes"/>
      <point x="-742" y="-322"/>
      <point x="-727" y="-300"/>
      <point x="-727" y="-276" type="curve" smooth="yes"/>
      <point x="-727" y="-222"/>
      <point x="-751" y="-195"/>
      <point x="-800" y="-195" type="curve" smooth="yes"/>
      <point x="-824" y="-195"/>
      <point x="-851" y="-207"/>
      <point x="-871" y="-224" type="curve" smooth="yes"/>
      <point x="-892" y="-241"/>
      <point x="-906" y="-266"/>
      <point x="-906" y="-290" type="curve" smooth="yes"/>
      <point x="-906" y="-343"/>
      <point x="-882" y="-370"/>
      <point x="-834" y="-370" type="curve" smooth="yes"/>
    </contour>
  </outline>
</glyph>
<glyph name="uni032F" format="1">
  <advance width="0"/>
  <unicode hex="032F"/>
  <note>
	uni032F
  </note>
  <outline>
    <contour>
      <point x="-1147" y="-296"/>
      <point x="-1009" y="-192"/>
      <point x="-798" y="-192" type="curve" smooth="yes"/>
      <point x="-694" y="-192"/>
      <point x="-623" y="-217"/>
      <point x="-579" y="-259" type="curve" smooth="yes"/>
      <point x="-535" y="-301"/>
      <point x="-516" y="-360"/>
      <point x="-516" y="-425" type="curve" smooth="yes"/>
      <point x="-516" y="-445"/>
      <point x="-518" y="-466"/>
      <point x="-521" y="-489" type="curve"/>
      <point x="-662" y="-489" type="line"/>
      <point x="-662" y="-482" type="line" smooth="yes"/>
      <point x="-662" y="-397"/>
      <point x="-716" y="-345"/>
      <point x="-828" y="-345" type="curve" smooth="yes"/>
      <point x="-940" y="-345"/>
      <point x="-1016" y="-396"/>
      <point x="-1049" y="-489" type="curve"/>
      <point x="-1192" y="-489" type="line"/>
    </contour>
  </outline>
</glyph>
<glyph name="uni0332" format="1">
  <advance width="0"/>
  <unicode hex="0332"/>
  <note>
	uni0332
  </note>
  <outline>
    <contour>
      <point x="-1233" y="-293" type="line"/>
      <point x="0" y="-293" type="line"/>
      <point x="0" y="-483" type="line"/>
      <point x="-1233" y="-483" type="line"/>
    </contour>
  </outline>
</glyph>
<glyph name="uni0339" format="1">
  <advance width="0"/>
  <unicode hex="0339"/>
  <note>
	uni0339
  </note>
  <outline>
    <contour>
      <point x="-944" y="-370" type="line"/>
      <point x="-920" y="-370"/>
      <point x="-893" y="-358"/>
      <point x="-872" y="-340" type="curve" smooth="yes"/>
      <point x="-852" y="-322"/>
      <point x="-837" y="-300"/>
      <point x="-837" y="-276" type="curve" smooth="yes"/>
      <point x="-837" y="-222"/>
      <point x="-861" y="-195"/>
      <point x="-910" y="-195" type="curve"/>
      <point x="-884" y="-63" type="line"/>
      <point x="-823" y="-63"/>
      <point x="-776" y="-86"/>
      <point x="-746" y="-118" type="curve" smooth="yes"/>
      <point x="-716" y="-151"/>
      <point x="-702" y="-195"/>
      <point x="-702" y="-236" type="curve" smooth="yes"/>
      <point x="-702" y="-316"/>
      <point x="-738" y="-382"/>
      <point x="-789" y="-429" type="curve" smooth="yes"/>
      <point x="-841" y="-476"/>
      <point x="-909" y="-502"/>
      <point x="-970" y="-502" type="curve"/>
    </contour>
  </outline>
</glyph>
<glyph name="uni033C" format="1">
  <advance width="0"/>
  <unicode hex="033C"/>
  <note>
	uni033C
  </note>
  <outline>
    <contour>
      <point x="-1022" y="-351"/>
      <point x="-962" y="-260"/>
      <point x="-873" y="-217" type="curve" smooth="yes"/>
      <point x="-839" y="-200"/>
      <point x="-800" y="-192"/>
      <point x="-756" y="-192" type="curve" smooth="yes"/>
      <point x="-685" y="-192"/>
      <point x="-633" y="-215"/>
      <point x="-601" y="-262" type="curve"/>
      <point x="-552" y="-215"/>
      <point x="-491" y="-192"/>
      <point x="-420" y="-192" type="curve" smooth="yes"/>
      <point x="-293" y="-192"/>
      <point x="-230" y="-261"/>
      <point x="-230" y="-398" type="curve" smooth="yes"/>
      <point x="-230" y="-426"/>
      <point x="-231" y="-456"/>
      <point x="-238" y="-489" type="curve"/>
      <point x="-381" y="-489" type="line"/>
      <point x="-381" y="-485"/>
      <point x="-381" y="-481"/>
      <point x="-380" y="-477" type="curve"/>
      <point x="-380" y="-473"/>
      <point x="-380" y="-469"/>
      <point x="-380" y="-465" type="curve" smooth="yes"/>
      <point x="-380" y="-390"/>
      <point x="-403" y="-350"/>
      <point x="-449" y="-345" type="curve"/>
      <point x="-502" y="-345"/>
      <point x="-542" y="-388"/>
      <point x="-569" y="-473" type="curve"/>
      <point x="-572" y="-479"/>
      <point x="-573" y="-484"/>
      <point x="-574" y="-489" type="curve"/>
      <point x="-717" y="-489" type="line"/>
      <point x="-717" y="-485"/>
      <point x="-717" y="-481"/>
      <point x="-716" y="-477" type="curve"/>
      <point x="-716" y="-473"/>
      <point x="-716" y="-469"/>
      <point x="-716" y="-465" type="curve" smooth="yes"/>
      <point x="-716" y="-390"/>
      <point x="-739" y="-350"/>
      <point x="-785" y="-345" type="curve"/>
      <point x="-832" y="-345"/>
      <point x="-870" y="-381"/>
      <point x="-898" y="-454" type="curve"/>
      <point x="-903" y="-465"/>
      <point x="-907" y="-477"/>
      <point x="-910" y="-489" type="curve"/>
      <point x="-1053" y="-489" type="line"/>
    </contour>
  </outline>
</glyph>
<glyph name="Zeta" format="1">
  <advance width="1233"/>
  <unicode hex="0396"/>
  <note>
	Zeta
  </note>
  <outline>
    <contour>
      <point x="14" y="244" type="line"/>
      <point x="872" y="1233" type="line"/>
      <point x="229" y="1233" type="line"/>
      <point x="281" y="1493" type="line"/>
      <point x="1290" y="1493" type="line"/>
      <point x="1241" y="1249" type="line"/>
      <point x="365" y="260" type="line"/>
      <point x="1065" y="260" type="line"/>
      <point x="1014" y="0" type="line"/>
      <point x="-33" y="0" type="line"/>
    </contour>
  </outline>
</glyph>
<glyph name="Theta" format="1">
  <advance width="1233"/>
  <unicode hex="0398"/>
  <note>
	Theta
  </note>
  <outline>
    <contour>
      <point x="200" y="-29"/>
      <point x="64" y="136"/>
      <point x="64" y="437" type="curve" smooth="yes"/>
      <point x="64" y="522"/>
      <point x="75" y="633"/>
      <point x="96" y="746" type="curve" smooth="yes"/>
      <point x="143" y="995"/>
      <point x="225" y="1189"/>
      <point x="340" y="1320" type="curve" smooth="yes"/>
      <point x="455" y="1451"/>
      <point x="602" y="1520"/>
      <point x="775" y="1520" type="curve" smooth="yes"/>
      <point x="1044" y="1520"/>
      <point x="1179" y="1357"/>
      <point x="1179" y="1054" type="curve" smooth="yes"/>
      <point x="1179" y="969"/>
      <point x="1168" y="859"/>
      <point x="1147" y="744" type="curve" smooth="yes"/>
      <point x="1102" y="499"/>
      <point x="1020" y="306"/>
      <point x="905" y="174" type="curve" smooth="yes"/>
      <point x="790" y="42"/>
      <point x="644" y="-29"/>
      <point x="469" y="-29" type="curve" smooth="yes"/>
    </contour>
    <contour>
      <point x="612" y="236"/>
      <point x="666" y="284"/>
      <point x="710" y="359" type="curve" smooth="yes"/>
      <point x="758" y="440"/>
      <point x="799" y="559"/>
      <point x="828" y="683" type="curve" smooth="yes"/>
      <point x="856" y="806"/>
      <point x="872" y="933"/>
      <point x="872" y="1032" type="curve" smooth="yes"/>
      <point x="872" y="1117"/>
      <point x="862" y="1182"/>
      <point x="815" y="1224" type="curve" smooth="yes"/>
      <point x="792" y="1245"/>
      <point x="759" y="1255"/>
      <point x="717" y="1255" type="curve" smooth="yes"/>
      <point x="633" y="1255"/>
      <point x="579" y="1210"/>
      <point x="534" y="1134" type="curve" smooth="yes"/>
      <point x="501" y="1079"/>
      <point x="472" y="1008"/>
      <point x="448" y="930" type="curve" smooth="yes"/>
      <point x="424" y="852"/>
      <point x="405" y="767"/>
      <point x="392" y="685" type="curve" smooth="yes"/>
      <point x="379" y="603"/>
      <point x="372" y="524"/>
      <point x="372" y="459" type="curve" smooth="yes"/>
      <point x="372" y="375"/>
      <point x="383" y="299"/>
      <point x="434" y="263" type="curve" smooth="yes"/>
      <point x="459" y="245"/>
      <point x="490" y="236"/>
      <point x="525" y="236" type="curve" smooth="yes"/>
    </contour>
    <contour>
      <point x="526" y="911" type="line"/>
      <point x="780" y="911" type="line"/>
      <point x="730" y="651" type="line"/>
      <point x="476" y="651" type="line"/>
    </contour>
  </outline>
</glyph>
<glyph name="Phi" format="1">
  <advance width="1233"/>
  <unicode hex="03A6"/>
  <note>
	Phi
  </note>
  <outline>
    <contour>
      <point x="255" y="260" type="line"/>
      <point x="374" y="260" type="line"/>
      <point x="388" y="330" type="line"/>
      <point x="301" y="342"/>
      <point x="224" y="371"/>
      <point x="169" y="420" type="curve" smooth="yes"/>
      <point x="114" y="468"/>
      <point x="81" y="538"/>
      <point x="81" y="633" type="curve" smooth="yes"/>
      <point x="81" y="666"/>
      <point x="84" y="710"/>
      <point x="91" y="745" type="curve" smooth="yes"/>
      <point x="114" y="877"/>
      <point x="176" y="974"/>
      <point x="260" y="1042" type="curve" smooth="yes"/>
      <point x="343" y="1110"/>
      <point x="446" y="1148"/>
      <point x="550" y="1161" type="curve"/>
      <point x="564" y="1233" type="line"/>
      <point x="444" y="1233" type="line"/>
      <point x="495" y="1493" type="line"/>
      <point x="1028" y="1493" type="line"/>
      <point x="978" y="1233" type="line"/>
      <point x="859" y="1233" type="line"/>
      <point x="845" y="1161" type="line"/>
      <point x="932" y="1146"/>
      <point x="1008" y="1120"/>
      <point x="1064" y="1072" type="curve" smooth="yes"/>
      <point x="1119" y="1023"/>
      <point x="1152" y="953"/>
      <point x="1152" y="853" type="curve" smooth="yes"/>
      <point x="1152" y="822"/>
      <point x="1149" y="784"/>
      <point x="1141" y="744" type="curve" smooth="yes"/>
      <point x="1114" y="607"/>
      <point x="1053" y="511"/>
      <point x="971" y="445" type="curve" smooth="yes"/>
      <point x="889" y="379"/>
      <point x="787" y="343"/>
      <point x="683" y="330" type="curve"/>
      <point x="669" y="260" type="line"/>
      <point x="789" y="260" type="line"/>
      <point x="738" y="0" type="line"/>
      <point x="205" y="0" type="line"/>
    </contour>
    <contour>
      <point x="511" y="965" type="line"/>
      <point x="472" y="938" type="line" smooth="yes"/>
      <point x="392" y="882"/>
      <point x="350" y="792"/>
      <point x="350" y="701" type="curve" smooth="yes"/>
      <point x="350" y="646"/>
      <point x="365" y="596"/>
      <point x="397" y="553" type="curve"/>
      <point x="404" y="542"/>
      <point x="414" y="533"/>
      <point x="426" y="526" type="curve"/>
    </contour>
    <contour>
      <point x="721" y="526" type="line"/>
      <point x="740" y="537"/>
      <point x="750" y="544"/>
      <point x="761" y="553" type="curve"/>
      <point x="801" y="589"/>
      <point x="833" y="631"/>
      <point x="854" y="676" type="curve" smooth="yes"/>
      <point x="875" y="720"/>
      <point x="887" y="765"/>
      <point x="887" y="808" type="curve" smooth="yes"/>
      <point x="887" y="860"/>
      <point x="871" y="907"/>
      <point x="836" y="938" type="curve" smooth="yes"/>
      <point x="806" y="965" type="line"/>
    </contour>
  </outline>
</glyph>
<glyph name="upsilondieresistonos" format="1">
  <advance width="1233"/>
  <unicode hex="03B0"/>
  <note>
	upsilondieresistonos
  </note>
  <outline>
    <contour>
      <point x="959" y="1946" type="line"/>
      <point x="1280" y="1946" type="line"/>
      <point x="838" y="1570" type="line"/>
      <point x="641" y="1570" type="line"/>
    </contour>
    <contour>
      <point x="379" y="1339" type="line" smooth="yes"/>
      <point x="359" y="1339"/>
      <point x="348" y="1352"/>
      <point x="352" y="1372" type="curve" smooth="yes"/>
      <point x="388" y="1558" type="line" smooth="yes"/>
      <point x="391" y="1576"/>
      <point x="401" y="1585"/>
      <point x="420" y="1585" type="curve" smooth="yes"/>
      <point x="597" y="1585" type="line" smooth="yes"/>
      <point x="618" y="1585"/>
      <point x="627" y="1572"/>
      <point x="623" y="1552" type="curve" smooth="yes"/>
      <point x="586" y="1366" type="line" smooth="yes"/>
      <point x="583" y="1348"/>
      <point x="572" y="1339"/>
      <point x="554" y="1339" type="curve" smooth="yes"/>
    </contour>
    <contour>
      <point x="874" y="1339" type="line" smooth="yes"/>
      <point x="854" y="1339"/>
      <point x="843" y="1352"/>
      <point x="847" y="1372" type="curve" smooth="yes"/>
      <point x="883" y="1558" type="line" smooth="yes"/>
      <point x="886" y="1576"/>
      <point x="896" y="1585"/>
      <point x="915" y="1585" type="curve" smooth="yes"/>
      <point x="1093" y="1585" type="line" smooth="yes"/>
      <point x="1114" y="1585"/>
      <point x="1123" y="1572"/>
      <point x="1119" y="1552" type="curve" smooth="yes"/>
      <point x="1082" y="1366" type="line" smooth="yes"/>
      <point x="1079" y="1348"/>
      <point x="1068" y="1339"/>
      <point x="1050" y="1339" type="curve" smooth="yes"/>
    </contour>
    <contour>
      <point x="367" y="0"/>
      <point x="288" y="22"/>
      <point x="239" y="62" type="curve" smooth="yes"/>
      <point x="190" y="102"/>
      <point x="169" y="160"/>
      <point x="169" y="232" type="curve" smooth="yes"/>
      <point x="169" y="271"/>
      <point x="175" y="320"/>
      <point x="186" y="379" type="curve" smooth="yes"/>
      <point x="286" y="895" type="line"/>
      <point x="121" y="895" type="line"/>
      <point x="165" y="1120" type="line"/>
      <point x="622" y="1120" type="line"/>
      <point x="475" y="365" type="line" smooth="yes"/>
      <point x="472" y="350"/>
      <point x="471" y="336"/>
      <point x="471" y="325" type="curve" smooth="yes"/>
      <point x="471" y="254"/>
      <point x="515" y="225"/>
      <point x="576" y="225" type="curve" smooth="yes"/>
      <point x="701" y="225"/>
      <point x="801" y="356"/>
      <point x="861" y="640" type="curve" smooth="yes"/>
      <point x="876" y="711"/>
      <point x="887" y="784"/>
      <point x="887" y="888" type="curve" smooth="yes"/>
      <point x="887" y="940"/>
      <point x="884" y="981"/>
      <point x="875" y="1018" type="curve" smooth="yes"/>
      <point x="866" y="1055"/>
      <point x="851" y="1088"/>
      <point x="826" y="1120" type="curve"/>
      <point x="1117" y="1120" type="line"/>
      <point x="1152" y="1060"/>
      <point x="1171" y="956"/>
      <point x="1171" y="835" type="curve" smooth="yes"/>
      <point x="1171" y="762"/>
      <point x="1164" y="702"/>
      <point x="1152" y="638" type="curve" smooth="yes"/>
      <point x="1115" y="438"/>
      <point x="1043" y="278"/>
      <point x="934" y="169" type="curve" smooth="yes"/>
      <point x="825" y="60"/>
      <point x="676" y="0"/>
      <point x="484" y="0" type="curve" smooth="yes"/>
    </contour>
  </outline>
</glyph>
<glyph name="zeta" format="1">
  <advance width="1233"/>
  <unicode hex="03B6"/>
  <note>
	zeta
  </note>
  <outline>
    <contour>
      <point x="623" y="-201" type="line"/>
      <point x="670" y="-201"/>
      <point x="702" y="-189"/>
      <point x="723" y="-171" type="curve" smooth="yes"/>
      <point x="744" y="-153"/>
      <point x="756" y="-129"/>
      <point x="760" y="-104" type="curve" smooth="yes"/>
      <point x="764" y="-79"/>
      <point x="760" y="-53"/>
      <point x="744" y="-33" type="curve" smooth="yes"/>
      <point x="728" y="-13"/>
      <point x="702" y="0"/>
      <point x="662" y="0" type="curve" smooth="yes"/>
      <point x="463" y="0"/>
      <point x="326" y="56"/>
      <point x="245" y="147" type="curve" smooth="yes"/>
      <point x="164" y="238"/>
      <point x="138" y="364"/>
      <point x="161" y="504" type="curve" smooth="yes"/>
      <point x="184" y="643"/>
      <point x="255" y="796"/>
      <point x="367" y="941" type="curve" smooth="yes"/>
      <point x="479" y="1086"/>
      <point x="632" y="1223"/>
      <point x="819" y="1331" type="curve"/>
      <point x="348" y="1331" type="line"/>
      <point x="392" y="1556" type="line"/>
      <point x="1268" y="1556" type="line"/>
      <point x="1224" y="1331" type="line"/>
      <point x="768" y="1079"/>
      <point x="513" y="813"/>
      <point x="459" y="534" type="curve" smooth="yes"/>
      <point x="420" y="336"/>
      <point x="503" y="233"/>
      <point x="706" y="225" type="curve" smooth="yes"/>
      <point x="798" y="221"/>
      <point x="872" y="192"/>
      <point x="917" y="137" type="curve" smooth="yes"/>
      <point x="962" y="81"/>
      <point x="979" y="1"/>
      <point x="959" y="-104" type="curve" smooth="yes"/>
      <point x="939" y="-203"/>
      <point x="892" y="-283"/>
      <point x="825" y="-339" type="curve" smooth="yes"/>
      <point x="758" y="-395"/>
      <point x="674" y="-426"/>
      <point x="579" y="-426" type="curve"/>
    </contour>
  </outline>
</glyph>
<glyph name="kappa" format="1">
  <advance width="1233"/>
  <unicode hex="03BA"/>
  <note>
	kappa
  </note>
  <outline>
    <contour>
      <point x="283" y="1120" type="line"/>
      <point x="576" y="1120" type="line"/>
      <point x="502" y="739" type="line"/>
      <point x="928" y="1120" type="line"/>
      <point x="1283" y="1120" type="line"/>
      <point x="778" y="702" type="line"/>
      <point x="1089" y="0" type="line"/>
      <point x="765" y="0" type="line"/>
      <point x="560" y="524" type="line"/>
      <point x="441" y="428" type="line"/>
      <point x="358" y="0" type="line"/>
      <point x="65" y="0" type="line"/>
    </contour>
  </outline>
</glyph>
<glyph name="lambda" format="1">
  <advance width="1233"/>
  <unicode hex="03BB"/>
  <note>
	lambda
  </note>
  <outline>
    <contour>
      <point x="609" y="1069" type="line"/>
      <point x="591" y="1188" type="line" smooth="yes"/>
      <point x="583" y="1237"/>
      <point x="572" y="1271"/>
      <point x="547" y="1292" type="curve" smooth="yes"/>
      <point x="522" y="1312"/>
      <point x="483" y="1321"/>
      <point x="420" y="1321" type="curve" smooth="yes"/>
      <point x="308" y="1321" type="line"/>
      <point x="353" y="1556" type="line"/>
      <point x="503" y="1556" type="line" smooth="yes"/>
      <point x="628" y="1556"/>
      <point x="715" y="1529"/>
      <point x="775" y="1473" type="curve" smooth="yes"/>
      <point x="835" y="1417"/>
      <point x="869" y="1333"/>
      <point x="885" y="1220" type="curve" smooth="yes"/>
      <point x="1063" y="0" type="line"/>
      <point x="766" y="0" type="line"/>
      <point x="670" y="655" type="line"/>
      <point x="287" y="0" type="line"/>
      <point x="-10" y="0" type="line"/>
    </contour>
  </outline>
</glyph>
<glyph name="pi" format="1">
  <advance width="1233"/>
  <unicode hex="03C0"/>
  <note>
	pi
  </note>
  <outline>
    <contour>
      <point x="959" y="-39"/>
      <point x="917" y="-33"/>
      <point x="878" y="-22" type="curve" smooth="yes"/>
      <point x="834" y="-9"/>
      <point x="810" y="8"/>
      <point x="791" y="27" type="curve" smooth="yes"/>
      <point x="772" y="46"/>
      <point x="758" y="69"/>
      <point x="747" y="102" type="curve" smooth="yes"/>
      <point x="738" y="132"/>
      <point x="733" y="176"/>
      <point x="733" y="233" type="curve" smooth="yes"/>
      <point x="733" y="891" type="line"/>
      <point x="459" y="891" type="line"/>
      <point x="459" y="0" type="line"/>
      <point x="174" y="0" type="line"/>
      <point x="174" y="891" type="line"/>
      <point x="12" y="891" type="line"/>
      <point x="12" y="1100" type="line"/>
      <point x="1180" y="1100" type="line"/>
      <point x="1180" y="891" type="line"/>
      <point x="1018" y="891" type="line"/>
      <point x="1018" y="362" type="line" smooth="yes"/>
      <point x="1018" y="313"/>
      <point x="1021" y="278"/>
      <point x="1025" y="253" type="curve" smooth="yes"/>
      <point x="1029" y="228"/>
      <point x="1035" y="211"/>
      <point x="1043" y="202" type="curve"/>
      <point x="1059" y="181"/>
      <point x="1090" y="170"/>
      <point x="1137" y="170" type="curve" smooth="yes"/>
      <point x="1146" y="170"/>
      <point x="1154" y="170"/>
      <point x="1161" y="170" type="curve" smooth="yes"/>
      <point x="1168" y="170"/>
      <point x="1174" y="170"/>
      <point x="1179" y="171" type="curve"/>
      <point x="1212" y="174" type="line"/>
      <point x="1212" y="-14" type="line"/>
      <point x="1185" y="-23"/>
      <point x="1154" y="-29"/>
      <point x="1119" y="-33" type="curve" smooth="yes"/>
      <point x="1086" y="-37"/>
      <point x="1049" y="-39"/>
      <point x="1016" y="-39" type="curve" smooth="yes"/>
    </contour>
  </outline>
</glyph>
<glyph name="chi" format="1">
  <advance width="1233"/>
  <unicode hex="03C7"/>
  <note>
	chi
  </note>
  <outline>
    <contour>
      <point x="435" y="348" type="line"/>
      <point x="330" y="752" type="line" smooth="yes"/>
      <point x="317" y="802"/>
      <point x="300" y="837"/>
      <point x="279" y="856" type="curve" smooth="yes"/>
      <point x="262" y="872"/>
      <point x="238" y="885"/>
      <point x="222" y="885" type="curve" smooth="yes"/>
      <point x="143" y="885" type="line"/>
      <point x="188" y="1120" type="line"/>
      <point x="305" y="1120" type="line" smooth="yes"/>
      <point x="373" y="1120"/>
      <point x="433" y="1101"/>
      <point x="485" y="1053" type="curve" smooth="yes"/>
      <point x="537" y="1005"/>
      <point x="579" y="927"/>
      <point x="610" y="808" type="curve" smooth="yes"/>
      <point x="648" y="660" type="line"/>
      <point x="962" y="1120" type="line"/>
      <point x="1259" y="1120" type="line"/>
      <point x="730" y="345" type="line"/>
      <point x="834" y="-58" type="line" smooth="yes"/>
      <point x="845" y="-101"/>
      <point x="860" y="-139"/>
      <point x="885" y="-162" type="curve" smooth="yes"/>
      <point x="902" y="-178"/>
      <point x="926" y="-191"/>
      <point x="942" y="-191" type="curve" smooth="yes"/>
      <point x="1022" y="-191" type="line"/>
      <point x="977" y="-426" type="line"/>
      <point x="859" y="-426" type="line" smooth="yes"/>
      <point x="792" y="-426"/>
      <point x="731" y="-408"/>
      <point x="680" y="-360" type="curve" smooth="yes"/>
      <point x="628" y="-312"/>
      <point x="585" y="-234"/>
      <point x="554" y="-114" type="curve" smooth="yes"/>
      <point x="516" y="32" type="line"/>
      <point x="203" y="-426" type="line"/>
      <point x="-94" y="-426" type="line"/>
    </contour>
  </outline>
</glyph>
<glyph name="upsilondieresis" format="1">
  <advance width="1233"/>
  <unicode hex="03CB"/>
  <note>
	upsilondieresis
  </note>
  <outline>
    <contour>
      <point x="429" y="1320" type="line" smooth="yes"/>
      <point x="409" y="1320"/>
      <point x="398" y="1333"/>
      <point x="402" y="1353" type="curve" smooth="yes"/>
      <point x="438" y="1539" type="line" smooth="yes"/>
      <point x="441" y="1557"/>
      <point x="451" y="1566"/>
      <point x="470" y="1566" type="curve" smooth="yes"/>
      <point x="647" y="1566" type="line" smooth="yes"/>
      <point x="668" y="1566"/>
      <point x="677" y="1553"/>
      <point x="673" y="1533" type="curve" smooth="yes"/>
      <point x="636" y="1347" type="line" smooth="yes"/>
      <point x="633" y="1329"/>
      <point x="622" y="1320"/>
      <point x="604" y="1320" type="curve" smooth="yes"/>
    </contour>
    <contour>
      <point x="824" y="1320" type="line" smooth="yes"/>
      <point x="804" y="1320"/>
      <point x="793" y="1333"/>
      <point x="797" y="1353" type="curve" smooth="yes"/>
      <point x="833" y="1539" type="line" smooth="yes"/>
      <point x="836" y="1557"/>
      <point x="846" y="1566"/>
      <point x="865" y="1566" type="curve" smooth="yes"/>
      <point x="1043" y="1566" type="line" smooth="yes"/>
      <point x="1064" y="1566"/>
      <point x="1073" y="1553"/>
      <point x="1069" y="1533" type="curve" smooth="yes"/>
      <point x="1032" y="1347" type="line" smooth="yes"/>
      <point x="1029" y="1329"/>
      <point x="1018" y="1320"/>
      <point x="1000" y="1320" type="curve" smooth="yes"/>
    </contour>
    <contour>
      <point x="367" y="0"/>
      <point x="288" y="22"/>
      <point x="239" y="62" type="curve" smooth="yes"/>
      <point x="190" y="102"/>
      <point x="169" y="160"/>
      <point x="169" y="232" type="curve" smooth="yes"/>
      <point x="169" y="271"/>
      <point x="175" y="320"/>
      <point x="186" y="379" type="curve" smooth="yes"/>
      <point x="286" y="895" type="line"/>
      <point x="121" y="895" type="line"/>
      <point x="165" y="1120" type="line"/>
      <point x="622" y="1120" type="line"/>
      <point x="475" y="365" type="line" smooth="yes"/>
      <point x="472" y="350"/>
      <point x="471" y="336"/>
      <point x="471" y="325" type="curve" smooth="yes"/>
      <point x="471" y="254"/>
      <point x="515" y="225"/>
      <point x="576" y="225" type="curve" smooth="yes"/>
      <point x="701" y="225"/>
      <point x="801" y="356"/>
      <point x="861" y="640" type="curve" smooth="yes"/>
      <point x="876" y="711"/>
      <point x="887" y="784"/>
      <point x="887" y="888" type="curve" smooth="yes"/>
      <point x="887" y="940"/>
      <point x="884" y="981"/>
      <point x="875" y="1018" type="curve" smooth="yes"/>
      <point x="866" y="1055"/>
      <point x="851" y="1088"/>
      <point x="826" y="1120" type="curve"/>
      <point x="1117" y="1120" type="line"/>
      <point x="1152" y="1060"/>
      <point x="1171" y="956"/>
      <point x="1171" y="835" type="curve" smooth="yes"/>
      <point x="1171" y="762"/>
      <point x="1164" y="702"/>
      <point x="1152" y="638" type="curve" smooth="yes"/>
      <point x="1115" y="438"/>
      <point x="1043" y="278"/>
      <point x="934" y="169" type="curve" smooth="yes"/>
      <point x="825" y="60"/>
      <point x="676" y="0"/>
      <point x="484" y="0" type="curve" smooth="yes"/>
    </contour>
  </outline>
</glyph>
<glyph name="omicrontonos" format="1">
  <advance width="1233"/>
  <unicode hex="03CC"/>
  <note>
	omicrontonos
  </note>
  <outline>
    <contour>
      <point x="887" y="1675" type="line"/>
      <point x="1208" y="1675" type="line"/>
      <point x="766" y="1299" type="line"/>
      <point x="569" y="1299" type="line"/>
    </contour>
    <contour>
      <point x="396" y="-29"/>
      <point x="284" y="12"/>
      <point x="208" y="93" type="curve" smooth="yes"/>
      <point x="131" y="173"/>
      <point x="88" y="294"/>
      <point x="88" y="454" type="curve" smooth="yes"/>
      <point x="88" y="575"/>
      <point x="112" y="693"/>
      <point x="160" y="796" type="curve" smooth="yes"/>
      <point x="207" y="899"/>
      <point x="276" y="987"/>
      <point x="367" y="1050" type="curve" smooth="yes"/>
      <point x="458" y="1113"/>
      <point x="569" y="1149"/>
      <point x="700" y="1149" type="curve" smooth="yes"/>
      <point x="837" y="1149"/>
      <point x="949" y="1108"/>
      <point x="1026" y="1028" type="curve" smooth="yes"/>
      <point x="1102" y="947"/>
      <point x="1145" y="826"/>
      <point x="1145" y="665" type="curve" smooth="yes"/>
      <point x="1145" y="482"/>
      <point x="1090" y="309"/>
      <point x="986" y="181" type="curve" smooth="yes"/>
      <point x="882" y="53"/>
      <point x="729" y="-29"/>
      <point x="533" y="-29" type="curve" smooth="yes"/>
    </contour>
    <contour>
      <point x="646" y="207"/>
      <point x="720" y="266"/>
      <point x="771" y="352" type="curve" smooth="yes"/>
      <point x="822" y="438"/>
      <point x="850" y="552"/>
      <point x="850" y="664" type="curve" smooth="yes"/>
      <point x="850" y="835"/>
      <point x="784" y="911"/>
      <point x="679" y="911" type="curve" smooth="yes"/>
      <point x="584" y="911"/>
      <point x="510" y="851"/>
      <point x="460" y="764" type="curve" smooth="yes"/>
      <point x="410" y="676"/>
      <point x="383" y="563"/>
      <point x="383" y="456" type="curve" smooth="yes"/>
      <point x="383" y="285"/>
      <point x="452" y="207"/>
      <point x="557" y="207" type="curve" smooth="yes"/>
    </contour>
  </outline>
</glyph>
<glyph name="upsilontonos" format="1">
  <advance width="1233"/>
  <unicode hex="03CD"/>
  <note>
	upsilontonos
  </note>
  <outline>
    <contour>
      <point x="867" y="1648" type="line"/>
      <point x="1188" y="1648" type="line"/>
      <point x="746" y="1272" type="line"/>
      <point x="549" y="1272" type="line"/>
    </contour>
    <contour>
      <point x="367" y="0"/>
      <point x="288" y="22"/>
      <point x="239" y="62" type="curve" smooth="yes"/>
      <point x="190" y="102"/>
      <point x="169" y="160"/>
      <point x="169" y="232" type="curve" smooth="yes"/>
      <point x="169" y="271"/>
      <point x="175" y="320"/>
      <point x="186" y="379" type="curve" smooth="yes"/>
      <point x="286" y="895" type="line"/>
      <point x="121" y="895" type="line"/>
      <point x="165" y="1120" type="line"/>
      <point x="622" y="1120" type="line"/>
      <point x="475" y="365" type="line" smooth="yes"/>
      <point x="472" y="350"/>
      <point x="471" y="336"/>
      <point x="471" y="325" type="curve" smooth="yes"/>
      <point x="471" y="254"/>
      <point x="515" y="225"/>
      <point x="576" y="225" type="curve" smooth="yes"/>
      <point x="701" y="225"/>
      <point x="801" y="356"/>
      <point x="861" y="640" type="curve" smooth="yes"/>
      <point x="876" y="711"/>
      <point x="887" y="784"/>
      <point x="887" y="888" type="curve" smooth="yes"/>
      <point x="887" y="940"/>
      <point x="884" y="981"/>
      <point x="875" y="1018" type="curve" smooth="yes"/>
      <point x="866" y="1055"/>
      <point x="851" y="1088"/>
      <point x="826" y="1120" type="curve"/>
      <point x="1117" y="1120" type="line"/>
      <point x="1152" y="1060"/>
      <point x="1171" y="956"/>
      <point x="1171" y="835" type="curve" smooth="yes"/>
      <point x="1171" y="762"/>
      <point x="1164" y="702"/>
      <point x="1152" y="638" type="curve" smooth="yes"/>
      <point x="1115" y="438"/>
      <point x="1043" y="278"/>
      <point x="934" y="169" type="curve" smooth="yes"/>
      <point x="825" y="60"/>
      <point x="676" y="0"/>
      <point x="484" y="0" type="curve" smooth="yes"/>
    </contour>
  </outline>
</glyph>
<glyph name="omegatonos" format="1">
  <advance width="1233"/>
  <unicode hex="03CE"/>
  <note>
	omegatonos
  </note>
  <outline>
    <contour>
      <point x="882" y="1648" type="line"/>
      <point x="1203" y="1648" type="line"/>
      <point x="761" y="1272" type="line"/>
      <point x="564" y="1272" type="line"/>
    </contour>
    <contour>
      <point x="194" y="-29"/>
      <point x="124" y="3"/>
      <point x="85" y="54" type="curve" smooth="yes"/>
      <point x="51" y="99"/>
      <point x="34" y="171"/>
      <point x="34" y="271" type="curve" smooth="yes"/>
      <point x="34" y="395"/>
      <point x="59" y="547"/>
      <point x="103" y="699" type="curve" smooth="yes"/>
      <point x="146" y="850"/>
      <point x="208" y="1000"/>
      <point x="284" y="1120" type="curve"/>
      <point x="546" y="1120" type="line"/>
      <point x="490" y="1005"/>
      <point x="451" y="908"/>
      <point x="420" y="818" type="curve" smooth="yes"/>
      <point x="389" y="728"/>
      <point x="367" y="645"/>
      <point x="350" y="557" type="curve" smooth="yes"/>
      <point x="338" y="501"/>
      <point x="329" y="444"/>
      <point x="322" y="393" type="curve" smooth="yes"/>
      <point x="314" y="342"/>
      <point x="310" y="299"/>
      <point x="310" y="271" type="curve" smooth="yes"/>
      <point x="310" y="242"/>
      <point x="308" y="212"/>
      <point x="352" y="209" type="curve"/>
      <point x="399" y="209"/>
      <point x="454" y="361"/>
      <point x="515" y="665" type="curve"/>
      <point x="767" y="665" type="line"/>
      <point x="736" y="500"/>
      <point x="721" y="381"/>
      <point x="721" y="305" type="curve" smooth="yes"/>
      <point x="721" y="241"/>
      <point x="732" y="209"/>
      <point x="754" y="209" type="curve" smooth="yes"/>
      <point x="795" y="210"/>
      <point x="811" y="238"/>
      <point x="839" y="325" type="curve" smooth="yes"/>
      <point x="867" y="412"/>
      <point x="893" y="540"/>
      <point x="910" y="694" type="curve" smooth="yes"/>
      <point x="919" y="771"/>
      <point x="923" y="850"/>
      <point x="923" y="933" type="curve" smooth="yes"/>
      <point x="923" y="996"/>
      <point x="920" y="1058"/>
      <point x="914" y="1120" type="curve"/>
      <point x="1176" y="1120" type="line"/>
      <point x="1193" y="1045"/>
      <point x="1202" y="959"/>
      <point x="1202" y="864" type="curve" smooth="yes"/>
      <point x="1202" y="759"/>
      <point x="1191" y="647"/>
      <point x="1172" y="542" type="curve" smooth="yes"/>
      <point x="1152" y="437"/>
      <point x="1123" y="335"/>
      <point x="1087" y="251" type="curve" smooth="yes"/>
      <point x="1051" y="166"/>
      <point x="1007" y="97"/>
      <point x="959" y="54" type="curve" smooth="yes"/>
      <point x="900" y="3"/>
      <point x="815" y="-29"/>
      <point x="730" y="-29" type="curve" smooth="yes"/>
      <point x="613" y="-29"/>
      <point x="550" y="31"/>
      <point x="541" y="150" type="curve"/>
      <point x="485" y="31"/>
      <point x="399" y="-29"/>
      <point x="282" y="-29" type="curve" smooth="yes"/>
    </contour>
  </outline>
</glyph>
<glyph name="uni0404" format="1">
  <advance width="1233"/>
  <unicode hex="0404"/>
  <note>
	uni0404
  </note>
  <outline>
    <contour>
      <point x="459" y="-29"/>
      <point x="359" y="0"/>
      <point x="287" y="49" type="curve" smooth="yes"/>
      <point x="214" y="97"/>
      <point x="167" y="164"/>
      <point x="139" y="239" type="curve" smooth="yes"/>
      <point x="110" y="314"/>
      <point x="99" y="397"/>
      <point x="99" y="478" type="curve" smooth="yes"/>
      <point x="99" y="554"/>
      <point x="107" y="650"/>
      <point x="126" y="746" type="curve" smooth="yes"/>
      <point x="171" y="991"/>
      <point x="264" y="1185"/>
      <point x="396" y="1317" type="curve" smooth="yes"/>
      <point x="527" y="1449"/>
      <point x="697" y="1520"/>
      <point x="897" y="1520" type="curve" smooth="yes"/>
      <point x="1013" y="1520"/>
      <point x="1112" y="1496"/>
      <point x="1193" y="1448" type="curve"/>
      <point x="1129" y="1120" type="line"/>
      <point x="1048" y="1210"/>
      <point x="957" y="1255"/>
      <point x="857" y="1255" type="curve" smooth="yes"/>
      <point x="756" y="1255"/>
      <point x="673" y="1211"/>
      <point x="609" y="1141" type="curve" smooth="yes"/>
      <point x="544" y="1071"/>
      <point x="497" y="975"/>
      <point x="466" y="875" type="curve"/>
      <point x="1038" y="875" type="line"/>
      <point x="988" y="615" type="line"/>
      <point x="416" y="615" type="line"/>
      <point x="414" y="595"/>
      <point x="413" y="575"/>
      <point x="413" y="555" type="curve" smooth="yes"/>
      <point x="413" y="479"/>
      <point x="426" y="399"/>
      <point x="464" y="339" type="curve" smooth="yes"/>
      <point x="502" y="278"/>
      <point x="562" y="236"/>
      <point x="661" y="236" type="curve" smooth="yes"/>
      <point x="760" y="236"/>
      <point x="868" y="281"/>
      <point x="983" y="371" type="curve"/>
      <point x="919" y="43" type="line"/>
      <point x="815" y="-5"/>
      <point x="712" y="-29"/>
      <point x="591" y="-29" type="curve" smooth="yes"/>
    </contour>
  </outline>
</glyph>
<glyph name="uni0408" format="1">
  <advance width="1233"/>
  <unicode hex="0408"/>
  <note>
	uni0408
  </note>
  <outline>
    <contour>
      <point x="280" y="-29"/>
      <point x="137" y="7"/>
      <point x="-2" y="78" type="curve"/>
      <point x="63" y="422" type="line"/>
      <point x="172" y="289"/>
      <point x="284" y="231"/>
      <point x="428" y="231" type="curve" smooth="yes"/>
      <point x="499" y="231"/>
      <point x="552" y="246"/>
      <point x="592" y="284" type="curve" smooth="yes"/>
      <point x="632" y="322"/>
      <point x="658" y="383"/>
      <point x="677" y="479" type="curve" smooth="yes"/>
      <point x="825" y="1233" type="line"/>
      <point x="464" y="1233" type="line"/>
      <point x="516" y="1493" type="line"/>
      <point x="1171" y="1493" type="line"/>
      <point x="972" y="479" type="line" smooth="yes"/>
      <point x="949" y="367"/>
      <point x="927" y="287"/>
      <point x="899" y="225" type="curve" smooth="yes"/>
      <point x="870" y="163"/>
      <point x="835" y="119"/>
      <point x="790" y="82" type="curve" smooth="yes"/>
      <point x="699" y="9"/>
      <point x="582" y="-29"/>
      <point x="427" y="-29" type="curve" smooth="yes"/>
    </contour>
  </outline>
</glyph>
<glyph name="uni0409" format="1">
  <advance width="1233"/>
  <unicode hex="0409"/>
  <note>
	uni0409
  </note>
  <outline>
    <contour>
      <point x="-101" y="250" type="line"/>
      <point x="-91" y="250" type="line" smooth="yes"/>
      <point x="-20" y="250"/>
      <point x="29" y="267"/>
      <point x="66" y="304" type="curve" smooth="yes"/>
      <point x="103" y="340"/>
      <point x="127" y="395"/>
      <point x="150" y="471" type="curve" smooth="yes"/>
      <point x="162" y="514"/>
      <point x="177" y="574"/>
      <point x="198" y="667" type="curve" smooth="yes"/>
      <point x="218" y="760"/>
      <point x="243" y="888"/>
      <point x="278" y="1065" type="curve" smooth="yes"/>
      <point x="361" y="1493" type="line"/>
      <point x="977" y="1493" type="line"/>
      <point x="864" y="913" type="line"/>
      <point x="886" y="913" type="line" smooth="yes"/>
      <point x="959" y="913"/>
      <point x="1036" y="879"/>
      <point x="1093" y="813" type="curve" smooth="yes"/>
      <point x="1150" y="747"/>
      <point x="1190" y="650"/>
      <point x="1190" y="526" type="curve" smooth="yes"/>
      <point x="1190" y="521"/>
      <point x="1190" y="512"/>
      <point x="1189" y="497" type="curve" smooth="yes"/>
      <point x="1188" y="467"/>
      <point x="1179" y="423"/>
      <point x="1162" y="368" type="curve" smooth="yes"/>
      <point x="1145" y="313"/>
      <point x="1113" y="254"/>
      <point x="1064" y="195" type="curve" smooth="yes"/>
      <point x="1015" y="135"/>
      <point x="953" y="93"/>
      <point x="906" y="66" type="curve" smooth="yes"/>
      <point x="858" y="38"/>
      <point x="811" y="19"/>
      <point x="768" y="8" type="curve" smooth="yes"/>
      <point x="746" y="3"/>
      <point x="726" y="0"/>
      <point x="709" y="0" type="curve" smooth="yes"/>
      <point x="447" y="0" type="line"/>
      <point x="687" y="1233" type="line"/>
      <point x="551" y="1233" type="line"/>
      <point x="516" y="1057" type="line" smooth="yes"/>
      <point x="495" y="951"/>
      <point x="475" y="850"/>
      <point x="457" y="754" type="curve" smooth="yes"/>
      <point x="420" y="562"/>
      <point x="376" y="398"/>
      <point x="317" y="270" type="curve" smooth="yes"/>
      <point x="288" y="206"/>
      <point x="252" y="154"/>
      <point x="210" y="113" type="curve" smooth="yes"/>
      <point x="131" y="38"/>
      <point x="24" y="0"/>
      <point x="-112" y="0" type="curve" smooth="yes"/>
      <point x="-149" y="0" type="line"/>
    </contour>
    <contour>
      <point x="741" y="236" type="line" smooth="yes"/>
      <point x="764" y="236"/>
      <point x="804" y="251"/>
      <point x="842" y="281" type="curve" smooth="yes"/>
      <point x="880" y="311"/>
      <point x="914" y="356"/>
      <point x="929" y="416" type="curve" smooth="yes"/>
      <point x="933" y="433"/>
      <point x="937" y="458"/>
      <point x="940" y="482" type="curve" smooth="yes"/>
      <point x="943" y="506"/>
      <point x="945" y="529"/>
      <point x="945" y="542" type="curve" smooth="yes"/>
      <point x="945" y="581"/>
      <point x="927" y="615"/>
      <point x="904" y="639" type="curve" smooth="yes"/>
      <point x="880" y="663"/>
      <point x="851" y="678"/>
      <point x="827" y="678" type="curve" smooth="yes"/>
      <point x="819" y="678" type="line"/>
      <point x="733" y="236" type="line"/>
    </contour>
  </outline>
</glyph>
<glyph name="uni040A" format="1">
  <advance width="1233"/>
  <unicode hex="040A"/>
  <note>
	uni040A
  </note>
  <outline>
    <contour>
      <point x="211" y="1493" type="line"/>
      <point x="451" y="1493" type="line"/>
      <point x="341" y="924" type="line"/>
      <point x="663" y="924" type="line"/>
      <point x="773" y="1493" type="line"/>
      <point x="1013" y="1493" type="line"/>
      <point x="900" y="913" type="line"/>
      <point x="922" y="913" type="line" smooth="yes"/>
      <point x="995" y="913"/>
      <point x="1072" y="879"/>
      <point x="1129" y="820" type="curve" smooth="yes"/>
      <point x="1186" y="760"/>
      <point x="1226" y="677"/>
      <point x="1226" y="578" type="curve" smooth="yes"/>
      <point x="1226" y="546"/>
      <point x="1222" y="501"/>
      <point x="1213" y="456" type="curve" smooth="yes"/>
      <point x="1192" y="351"/>
      <point x="1150" y="264"/>
      <point x="1096" y="197" type="curve" smooth="yes"/>
      <point x="1042" y="129"/>
      <point x="979" y="80"/>
      <point x="916" y="48" type="curve" smooth="yes"/>
      <point x="853" y="15"/>
      <point x="793" y="0"/>
      <point x="745" y="0" type="curve" smooth="yes"/>
      <point x="483" y="0" type="line"/>
      <point x="612" y="664" type="line"/>
      <point x="290" y="664" type="line"/>
      <point x="161" y="0" type="line"/>
      <point x="-79" y="0" type="line"/>
    </contour>
    <contour>
      <point x="777" y="236" type="line" smooth="yes"/>
      <point x="801" y="236"/>
      <point x="843" y="250"/>
      <point x="883" y="286" type="curve" smooth="yes"/>
      <point x="922" y="321"/>
      <point x="958" y="376"/>
      <point x="973" y="457" type="curve" smooth="yes"/>
      <point x="978" y="484"/>
      <point x="981" y="520"/>
      <point x="981" y="539" type="curve" smooth="yes"/>
      <point x="981" y="584"/>
      <point x="961" y="620"/>
      <point x="937" y="643" type="curve" smooth="yes"/>
      <point x="912" y="666"/>
      <point x="882" y="678"/>
      <point x="863" y="678" type="curve" smooth="yes"/>
      <point x="855" y="678" type="line"/>
      <point x="769" y="236" type="line"/>
    </contour>
  </outline>
</glyph>
<glyph name="uni0412" format="1">
  <advance width="1233"/>
  <unicode hex="0412"/>
  <note>
	uni0412
  </note>
  <outline>
    <contour>
      <point x="280" y="1495" type="line"/>
      <point x="762" y="1495" type="line" smooth="yes"/>
      <point x="1045" y="1495"/>
      <point x="1188" y="1387"/>
      <point x="1188" y="1163" type="curve" smooth="yes"/>
      <point x="1188" y="1056"/>
      <point x="1155" y="969"/>
      <point x="1093" y="905" type="curve" smooth="yes"/>
      <point x="1031" y="841"/>
      <point x="939" y="799"/>
      <point x="823" y="786" type="curve"/>
      <point x="914" y="778"/>
      <point x="986" y="749"/>
      <point x="1037" y="698" type="curve" smooth="yes"/>
      <point x="1088" y="646"/>
      <point x="1116" y="573"/>
      <point x="1116" y="477" type="curve" smooth="yes"/>
      <point x="1116" y="410"/>
      <point x="1103" y="344"/>
      <point x="1078" y="284" type="curve" smooth="yes"/>
      <point x="1053" y="224"/>
      <point x="1016" y="168"/>
      <point x="971" y="127" type="curve" smooth="yes"/>
      <point x="923" y="83"/>
      <point x="862" y="51"/>
      <point x="782" y="31" type="curve" smooth="yes"/>
      <point x="702" y="10"/>
      <point x="600" y="0"/>
      <point x="471" y="0" type="curve" smooth="yes"/>
      <point x="-10" y="0" type="line"/>
    </contour>
    <contour>
      <point x="649" y="913" type="line" smooth="yes"/>
      <point x="810" y="913"/>
      <point x="893" y="990"/>
      <point x="893" y="1119" type="curve" smooth="yes"/>
      <point x="893" y="1219"/>
      <point x="844" y="1260"/>
      <point x="717" y="1260" type="curve" smooth="yes"/>
      <point x="520" y="1260" type="line"/>
      <point x="452" y="913" type="line"/>
    </contour>
    <contour>
      <point x="518" y="236" type="line" smooth="yes"/>
      <point x="719" y="236"/>
      <point x="821" y="321"/>
      <point x="821" y="496" type="curve" smooth="yes"/>
      <point x="821" y="553"/>
      <point x="809" y="599"/>
      <point x="777" y="631" type="curve" smooth="yes"/>
      <point x="744" y="662"/>
      <point x="689" y="678"/>
      <point x="604" y="678" type="curve" smooth="yes"/>
      <point x="407" y="678" type="line"/>
      <point x="321" y="236" type="line"/>
    </contour>
  </outline>
</glyph>
<glyph name="uni041B" format="1">
  <advance width="1233"/>
  <unicode hex="041B"/>
  <note>
	uni041B
  </note>
  <outline>
    <contour>
      <point x="-73" y="265" type="line"/>
      <point x="-63" y="265" type="line" smooth="yes"/>
      <point x="62" y="265"/>
      <point x="140" y="321"/>
      <point x="175" y="473" type="curve" smooth="yes"/>
      <point x="208" y="616"/>
      <point x="230" y="713"/>
      <point x="249" y="801" type="curve" smooth="yes"/>
      <point x="268" y="888"/>
      <point x="283" y="964"/>
      <point x="303" y="1065" type="curve" smooth="yes"/>
      <point x="386" y="1493" type="line"/>
      <point x="1256" y="1493" type="line"/>
      <point x="966" y="0" type="line"/>
      <point x="671" y="0" type="line"/>
      <point x="911" y="1233" type="line"/>
      <point x="631" y="1233" type="line"/>
      <point x="596" y="1057" type="line" smooth="yes"/>
      <point x="575" y="951"/>
      <point x="555" y="850"/>
      <point x="537" y="754" type="curve" smooth="yes"/>
      <point x="500" y="562"/>
      <point x="456" y="398"/>
      <point x="397" y="270" type="curve" smooth="yes"/>
      <point x="368" y="206"/>
      <point x="332" y="154"/>
      <point x="290" y="113" type="curve" smooth="yes"/>
      <point x="211" y="38"/>
      <point x="104" y="0"/>
      <point x="-32" y="0" type="curve" smooth="yes"/>
      <point x="-124" y="0" type="line"/>
    </contour>
  </outline>
</glyph>
<glyph name="uni0421" format="1">
  <advance width="1233"/>
  <unicode hex="0421"/>
  <note>
	uni0421
  </note>
  <outline>
    <contour>
      <point x="111" y="151"/>
      <point x="284" y="-29"/>
      <point x="601" y="-29" type="curve" smooth="yes"/>
      <point x="718" y="-29"/>
      <point x="822" y="-5"/>
      <point x="926" y="43" type="curve"/>
      <point x="990" y="371" type="line"/>
      <point x="865" y="274"/>
      <point x="761" y="231"/>
      <point x="657" y="231" type="curve" smooth="yes"/>
      <point x="496" y="231"/>
      <point x="410" y="332"/>
      <point x="410" y="536" type="curve" smooth="yes"/>
      <point x="410" y="624"/>
      <point x="426" y="724"/>
      <point x="454" y="820" type="curve" smooth="yes"/>
      <point x="481" y="915"/>
      <point x="519" y="1006"/>
      <point x="564" y="1075" type="curve" smooth="yes"/>
      <point x="637" y="1188"/>
      <point x="737" y="1257"/>
      <point x="862" y="1257" type="curve" smooth="yes"/>
      <point x="914" y="1257"/>
      <point x="966" y="1245"/>
      <point x="1014" y="1222" type="curve" smooth="yes"/>
      <point x="1061" y="1199"/>
      <point x="1103" y="1164"/>
      <point x="1135" y="1120" type="curve"/>
      <point x="1199" y="1448" type="line"/>
      <point x="1197" y="1449" type="line"/>
      <point x="1199" y="1449" type="line"/>
      <point x="1199" y="1839" type="line" smooth="yes"/>
      <point x="1199" y="1845"/>
      <point x="1195" y="1849"/>
      <point x="1189" y="1849" type="curve" smooth="yes"/>
      <point x="881" y="1849" type="line" smooth="yes"/>
      <point x="875" y="1849"/>
      <point x="871" y="1845"/>
      <point x="871" y="1839" type="curve" smooth="yes"/>
      <point x="871" y="1535" type="line" smooth="yes"/>
      <point x="871" y="1526"/>
      <point x="866" y="1520"/>
      <point x="856" y="1520" type="curve" smooth="yes"/>
      <point x="664" y="1514"/>
      <point x="497" y="1438"/>
      <point x="373" y="1296" type="curve" smooth="yes"/>
      <point x="293" y="1204"/>
      <point x="227" y="1082"/>
      <point x="182" y="947" type="curve" smooth="yes"/>
      <point x="137" y="811"/>
      <point x="111" y="663"/>
      <point x="111" y="522" type="curve" smooth="yes"/>
    </contour>
  </outline>
</glyph>
<glyph name="uni0424" format="1">
  <advance width="1233"/>
  <unicode hex="0424"/>
  <note>
	uni0424
  </note>
  <outline>
    <contour>
      <point x="375" y="132" type="line"/>
      <point x="284" y="140"/>
      <point x="214" y="174"/>
      <point x="162" y="222" type="curve" smooth="yes"/>
      <point x="110" y="270"/>
      <point x="75" y="333"/>
      <point x="53" y="400" type="curve" smooth="yes"/>
      <point x="31" y="467"/>
      <point x="22" y="538"/>
      <point x="22" y="603" type="curve" smooth="yes"/>
      <point x="22" y="652"/>
      <point x="27" y="705"/>
      <point x="38" y="760" type="curve" smooth="yes"/>
      <point x="70" y="924"/>
      <point x="145" y="1075"/>
      <point x="246" y="1188" type="curve" smooth="yes"/>
      <point x="347" y="1301"/>
      <point x="476" y="1378"/>
      <point x="619" y="1391" type="curve"/>
      <point x="639" y="1493" type="line"/>
      <point x="894" y="1493" type="line"/>
      <point x="874" y="1391" type="line"/>
      <point x="965" y="1383"/>
      <point x="1034" y="1349"/>
      <point x="1087" y="1301" type="curve" smooth="yes"/>
      <point x="1139" y="1253"/>
      <point x="1174" y="1190"/>
      <point x="1196" y="1123" type="curve" smooth="yes"/>
      <point x="1218" y="1055"/>
      <point x="1227" y="983"/>
      <point x="1227" y="918" type="curve" smooth="yes"/>
      <point x="1227" y="869"/>
      <point x="1222" y="816"/>
      <point x="1211" y="760" type="curve" smooth="yes"/>
      <point x="1179" y="601"/>
      <point x="1105" y="451"/>
      <point x="1003" y="337" type="curve" smooth="yes"/>
      <point x="901" y="223"/>
      <point x="771" y="145"/>
      <point x="630" y="132" type="curve"/>
      <point x="604" y="0" type="line"/>
      <point x="349" y="0" type="line"/>
    </contour>
    <contour>
      <point x="570" y="1136" type="line"/>
      <point x="434" y="1111"/>
      <point x="335" y="989"/>
      <point x="292" y="760" type="curve" smooth="yes"/>
      <point x="281" y="705"/>
      <point x="280" y="671"/>
      <point x="277" y="632" type="curve" smooth="yes"/>
      <point x="274" y="584"/>
      <point x="278" y="529"/>
      <point x="298" y="483" type="curve" smooth="yes"/>
      <point x="318" y="437"/>
      <point x="356" y="399"/>
      <point x="424" y="387" type="curve"/>
    </contour>
    <contour>
      <point x="679" y="387" type="line"/>
      <point x="760" y="404"/>
      <point x="821" y="452"/>
      <point x="865" y="515" type="curve" smooth="yes"/>
      <point x="908" y="578"/>
      <point x="934" y="654"/>
      <point x="950" y="726" type="curve"/>
      <point x="955" y="754"/>
      <point x="961" y="787"/>
      <point x="965" y="817" type="curve" smooth="yes"/>
      <point x="969" y="847"/>
      <point x="971" y="874"/>
      <point x="971" y="893" type="curve" smooth="yes"/>
      <point x="971" y="942"/>
      <point x="971" y="995"/>
      <point x="953" y="1040" type="curve" smooth="yes"/>
      <point x="935" y="1084"/>
      <point x="897" y="1120"/>
      <point x="825" y="1136" type="curve"/>
    </contour>
  </outline>
</glyph>
<glyph name="uni042C" format="1">
  <advance width="1233"/>
  <unicode hex="042C"/>
  <note>
	uni042C
  </note>
  <outline>
    <contour>
      <point x="311" y="1493" type="line"/>
      <point x="606" y="1493" type="line"/>
      <point x="493" y="913" type="line"/>
      <point x="603" y="913" type="line" smooth="yes"/>
      <point x="808" y="913"/>
      <point x="934" y="878"/>
      <point x="1009" y="819" type="curve" smooth="yes"/>
      <point x="1084" y="760"/>
      <point x="1108" y="678"/>
      <point x="1108" y="583" type="curve" smooth="yes"/>
      <point x="1108" y="539"/>
      <point x="1103" y="498"/>
      <point x="1094" y="451" type="curve" smooth="yes"/>
      <point x="1063" y="296"/>
      <point x="1000" y="184"/>
      <point x="892" y="110" type="curve" smooth="yes"/>
      <point x="784" y="36"/>
      <point x="631" y="0"/>
      <point x="426" y="0" type="curve" smooth="yes"/>
      <point x="21" y="0" type="line"/>
    </contour>
    <contour>
      <point x="483" y="236" type="line" smooth="yes"/>
      <point x="582" y="236"/>
      <point x="652" y="250"/>
      <point x="702" y="283" type="curve" smooth="yes"/>
      <point x="752" y="316"/>
      <point x="780" y="371"/>
      <point x="795" y="451" type="curve" smooth="yes"/>
      <point x="802" y="483"/>
      <point x="804" y="512"/>
      <point x="804" y="535" type="curve" smooth="yes"/>
      <point x="804" y="578"/>
      <point x="792" y="614"/>
      <point x="764" y="638" type="curve" smooth="yes"/>
      <point x="733" y="665"/>
      <point x="678" y="678"/>
      <point x="569" y="678" type="curve" smooth="yes"/>
      <point x="448" y="678" type="line"/>
      <point x="362" y="236" type="line"/>
    </contour>
  </outline>
</glyph>
<glyph name="uni042D" format="1">
  <advance width="1233"/>
  <unicode hex="042D"/>
  <note>
	uni042D
  </note>
  <outline>
    <contour>
      <point x="231" y="-29"/>
      <point x="135" y="-5"/>
      <point x="50" y="43" type="curve"/>
      <point x="114" y="371" type="line"/>
      <point x="194" y="281"/>
      <point x="287" y="236"/>
      <point x="392" y="236" type="curve" smooth="yes"/>
      <point x="573" y="236"/>
      <point x="701" y="362"/>
      <point x="777" y="615" type="curve"/>
      <point x="235" y="615" type="line"/>
      <point x="285" y="875" type="line"/>
      <point x="827" y="875" type="line"/>
      <point x="830" y="903"/>
      <point x="831" y="929"/>
      <point x="831" y="952" type="curve" smooth="yes"/>
      <point x="831" y="1157"/>
      <point x="749" y="1255"/>
      <point x="589" y="1255" type="curve" smooth="yes"/>
      <point x="481" y="1255"/>
      <point x="376" y="1211"/>
      <point x="260" y="1120" type="curve"/>
      <point x="324" y="1448" type="line"/>
      <point x="423" y="1496"/>
      <point x="532" y="1520"/>
      <point x="651" y="1520" type="curve" smooth="yes"/>
      <point x="784" y="1520"/>
      <point x="883" y="1491"/>
      <point x="956" y="1443" type="curve" smooth="yes"/>
      <point x="1029" y="1394"/>
      <point x="1076" y="1328"/>
      <point x="1105" y="1253" type="curve" smooth="yes"/>
      <point x="1133" y="1177"/>
      <point x="1144" y="1093"/>
      <point x="1144" y="1012" type="curve" smooth="yes"/>
      <point x="1144" y="936"/>
      <point x="1136" y="842"/>
      <point x="1117" y="746" type="curve" smooth="yes"/>
      <point x="1070" y="499"/>
      <point x="978" y="306"/>
      <point x="847" y="174" type="curve" smooth="yes"/>
      <point x="716" y="42"/>
      <point x="547" y="-29"/>
      <point x="348" y="-29" type="curve" smooth="yes"/>
    </contour>
  </outline>
</glyph>
<glyph name="uni0431" format="1">
  <advance width="1233"/>
  <unicode hex="0431"/>
  <note>
	uni0431
  </note>
  <outline>
    <contour>
      <point x="342" y="-29"/>
      <point x="238" y="24"/>
      <point x="173" y="104" type="curve" smooth="yes"/>
      <point x="108" y="184"/>
      <point x="81" y="291"/>
      <point x="81" y="399" type="curve" smooth="yes"/>
      <point x="81" y="446"/>
      <point x="86" y="492"/>
      <point x="95" y="541" type="curve" smooth="yes"/>
      <point x="98" y="556"/>
      <point x="100" y="571"/>
      <point x="103" y="586" type="curve" smooth="yes"/>
      <point x="106" y="600"/>
      <point x="108" y="612"/>
      <point x="109" y="621" type="curve" smooth="yes"/>
      <point x="124" y="788" type="line" smooth="yes"/>
      <point x="131" y="867"/>
      <point x="141" y="946"/>
      <point x="161" y="1024" type="curve" smooth="yes"/>
      <point x="180" y="1102"/>
      <point x="208" y="1177"/>
      <point x="252" y="1249" type="curve" smooth="yes"/>
      <point x="312" y="1348"/>
      <point x="386" y="1417"/>
      <point x="469" y="1466" type="curve" smooth="yes"/>
      <point x="552" y="1514"/>
      <point x="644" y="1542"/>
      <point x="741" y="1560" type="curve" smooth="yes"/>
      <point x="837" y="1578"/>
      <point x="940" y="1585"/>
      <point x="1044" y="1593" type="curve"/>
      <point x="1069" y="1594"/>
      <point x="1084" y="1597"/>
      <point x="1096" y="1599" type="curve" smooth="yes"/>
      <point x="1107" y="1601"/>
      <point x="1117" y="1604"/>
      <point x="1133" y="1611" type="curve"/>
      <point x="1202" y="1399" type="line"/>
      <point x="1175" y="1390"/>
      <point x="1144" y="1384"/>
      <point x="1113" y="1381" type="curve" smooth="yes"/>
      <point x="818" y="1357" type="line" smooth="yes"/>
      <point x="730" y="1350"/>
      <point x="680" y="1335"/>
      <point x="639" y="1312" type="curve" smooth="yes"/>
      <point x="590" y="1285"/>
      <point x="537" y="1245"/>
      <point x="492" y="1197" type="curve" smooth="yes"/>
      <point x="447" y="1149"/>
      <point x="409" y="1096"/>
      <point x="392" y="1045" type="curve"/>
      <point x="491" y="1113"/>
      <point x="603" y="1147"/>
      <point x="730" y="1147" type="curve" smooth="yes"/>
      <point x="889" y="1147"/>
      <point x="994" y="1094"/>
      <point x="1060" y="1015" type="curve" smooth="yes"/>
      <point x="1126" y="935"/>
      <point x="1152" y="829"/>
      <point x="1152" y="724" type="curve" smooth="yes"/>
      <point x="1152" y="669"/>
      <point x="1146" y="611"/>
      <point x="1135" y="559" type="curve" smooth="yes"/>
      <point x="1100" y="379"/>
      <point x="1022" y="232"/>
      <point x="912" y="130" type="curve" smooth="yes"/>
      <point x="802" y="28"/>
      <point x="659" y="-29"/>
      <point x="498" y="-29" type="curve" smooth="yes"/>
    </contour>
    <contour>
      <point x="620" y="209"/>
      <point x="685" y="244"/>
      <point x="735" y="305" type="curve" smooth="yes"/>
      <point x="785" y="365"/>
      <point x="822" y="452"/>
      <point x="842" y="559" type="curve" smooth="yes"/>
      <point x="851" y="606"/>
      <point x="856" y="655"/>
      <point x="856" y="692" type="curve" smooth="yes"/>
      <point x="856" y="739"/>
      <point x="848" y="792"/>
      <point x="824" y="835" type="curve" smooth="yes"/>
      <point x="799" y="878"/>
      <point x="756" y="909"/>
      <point x="688" y="909" type="curve" smooth="yes"/>
      <point x="616" y="909"/>
      <point x="553" y="876"/>
      <point x="504" y="821" type="curve" smooth="yes"/>
      <point x="455" y="765"/>
      <point x="419" y="690"/>
      <point x="400" y="606" type="curve" smooth="yes"/>
      <point x="393" y="578"/>
      <point x="388" y="544"/>
      <point x="384" y="509" type="curve" smooth="yes"/>
      <point x="380" y="474"/>
      <point x="377" y="441"/>
      <point x="377" y="417" type="curve" smooth="yes"/>
      <point x="377" y="377"/>
      <point x="385" y="325"/>
      <point x="410" y="283" type="curve" smooth="yes"/>
      <point x="435" y="241"/>
      <point x="477" y="209"/>
      <point x="548" y="209" type="curve" smooth="yes"/>
    </contour>
  </outline>
</glyph>
<glyph name="uni0432" format="1">
  <advance width="1233"/>
  <unicode hex="0432"/>
  <note>
	uni0432
  </note>
  <outline>
    <contour>
      <point x="253" y="1120" type="line"/>
      <point x="721" y="1120" type="line" smooth="yes"/>
      <point x="896" y="1120"/>
      <point x="997" y="1099"/>
      <point x="1060" y="1058" type="curve" smooth="yes"/>
      <point x="1116" y="1021"/>
      <point x="1147" y="965"/>
      <point x="1147" y="880" type="curve" smooth="yes"/>
      <point x="1147" y="752"/>
      <point x="1080" y="646"/>
      <point x="937" y="599" type="curve"/>
      <point x="1000" y="580"/>
      <point x="1041" y="549"/>
      <point x="1066" y="513" type="curve" smooth="yes"/>
      <point x="1090" y="476"/>
      <point x="1100" y="434"/>
      <point x="1100" y="391" type="curve" smooth="yes"/>
      <point x="1100" y="372"/>
      <point x="1098" y="348"/>
      <point x="1093" y="321" type="curve" smooth="yes"/>
      <point x="1053" y="106"/>
      <point x="869" y="0"/>
      <point x="552" y="0" type="curve" smooth="yes"/>
      <point x="35" y="0" type="line"/>
    </contour>
    <contour>
      <point x="619" y="698" type="line" smooth="yes"/>
      <point x="707" y="698"/>
      <point x="767" y="707"/>
      <point x="804" y="725" type="curve" smooth="yes"/>
      <point x="841" y="743"/>
      <point x="856" y="770"/>
      <point x="856" y="807" type="curve" smooth="yes"/>
      <point x="856" y="842"/>
      <point x="843" y="864"/>
      <point x="826" y="876" type="curve"/>
      <point x="817" y="883"/>
      <point x="803" y="889"/>
      <point x="779" y="894" type="curve"/>
      <point x="754" y="898"/>
      <point x="717" y="901"/>
      <point x="658" y="901" type="curve" smooth="yes"/>
      <point x="502" y="901" type="line"/>
      <point x="463" y="698" type="line"/>
    </contour>
    <contour>
      <point x="537" y="219" type="line" smooth="yes"/>
      <point x="617" y="219"/>
      <point x="684" y="229"/>
      <point x="732" y="253" type="curve" smooth="yes"/>
      <point x="780" y="276"/>
      <point x="808" y="314"/>
      <point x="808" y="370" type="curve" smooth="yes"/>
      <point x="808" y="413"/>
      <point x="791" y="437"/>
      <point x="760" y="453" type="curve" smooth="yes"/>
      <point x="726" y="470"/>
      <point x="668" y="479"/>
      <point x="587" y="479" type="curve" smooth="yes"/>
      <point x="420" y="479" type="line"/>
      <point x="370" y="219" type="line"/>
    </contour>
  </outline>
</glyph>
<glyph name="uni0435" format="1">
  <advance width="1233"/>
  <unicode hex="0435"/>
  <note>
	uni0435
  </note>
  <outline>
    <contour>
      <point x="249" y="-29"/>
      <point x="76" y="127"/>
      <point x="76" y="440" type="curve" smooth="yes"/>
      <point x="76" y="531"/>
      <point x="91" y="622"/>
      <point x="119" y="707" type="curve" smooth="yes"/>
      <point x="147" y="792"/>
      <point x="189" y="871"/>
      <point x="244" y="938" type="curve" smooth="yes"/>
      <point x="357" y="1075"/>
      <point x="513" y="1149"/>
      <point x="696" y="1149" type="curve" smooth="yes"/>
      <point x="835" y="1149"/>
      <point x="949" y="1105"/>
      <point x="1029" y="1029" type="curve" smooth="yes"/>
      <point x="1109" y="952"/>
      <point x="1155" y="841"/>
      <point x="1155" y="708" type="curve" smooth="yes"/>
      <point x="1155" y="652"/>
      <point x="1147" y="577"/>
      <point x="1128" y="465" type="curve"/>
      <point x="369" y="465" type="line"/>
      <point x="365" y="442"/>
      <point x="363" y="423"/>
      <point x="362" y="403" type="curve"/>
      <point x="362" y="270"/>
      <point x="451" y="203"/>
      <point x="630" y="203" type="curve" smooth="yes"/>
      <point x="771" y="203"/>
      <point x="919" y="244"/>
      <point x="1044" y="324" type="curve"/>
      <point x="993" y="55" type="line"/>
      <point x="865" y="-1"/>
      <point x="727" y="-29"/>
      <point x="586" y="-29" type="curve" smooth="yes"/>
    </contour>
    <contour>
      <point x="876" y="684" type="line"/>
      <point x="881" y="702"/>
      <point x="883" y="720"/>
      <point x="883" y="739" type="curve" smooth="yes"/>
      <point x="883" y="851"/>
      <point x="812" y="920"/>
      <point x="689" y="920" type="curve" smooth="yes"/>
      <point x="560" y="920"/>
      <point x="463" y="841"/>
      <point x="410" y="684" type="curve"/>
    </contour>
  </outline>
</glyph>
<glyph name="uni043B" format="1">
  <advance width="1233"/>
  <unicode hex="043B"/>
  <note>
	uni043B
  </note>
  <outline>
    <contour>
      <point x="-28" y="240" type="line"/>
      <point x="-18" y="240" type="line" smooth="yes"/>
      <point x="51" y="240"/>
      <point x="97" y="249"/>
      <point x="131" y="278" type="curve" smooth="yes"/>
      <point x="165" y="306"/>
      <point x="187" y="356"/>
      <point x="211" y="439" type="curve" smooth="yes"/>
      <point x="220" y="474"/>
      <point x="232" y="519"/>
      <point x="243" y="565" type="curve" smooth="yes"/>
      <point x="254" y="611"/>
      <point x="264" y="659"/>
      <point x="272" y="700" type="curve" smooth="yes"/>
      <point x="354" y="1120" type="line"/>
      <point x="1203" y="1120" type="line"/>
      <point x="985" y="0" type="line"/>
      <point x="694" y="0" type="line"/>
      <point x="869" y="901" type="line"/>
      <point x="602" y="901" type="line"/>
      <point x="564" y="704" type="line"/>
      <point x="561" y="692"/>
      <point x="558" y="673"/>
      <point x="553" y="646" type="curve" smooth="yes"/>
      <point x="543" y="592"/>
      <point x="525" y="519"/>
      <point x="501" y="439" type="curve" smooth="yes"/>
      <point x="477" y="358"/>
      <point x="446" y="277"/>
      <point x="407" y="206" type="curve" smooth="yes"/>
      <point x="367" y="134"/>
      <point x="314" y="64"/>
      <point x="208" y="28" type="curve" smooth="yes"/>
      <point x="155" y="9"/>
      <point x="92" y="0"/>
      <point x="20" y="0" type="curve" smooth="yes"/>
      <point x="-75" y="0" type="line"/>
    </contour>
  </outline>
</glyph>
<glyph name="uni0440" format="1">
  <advance width="1233"/>
  <unicode hex="0440"/>
  <note>
	uni0440
  </note>
  <outline>
    <contour>
      <point x="261" y="1120" type="line"/>
      <point x="525" y="1120" type="line"/>
      <point x="521" y="952" type="line"/>
      <point x="617" y="1085"/>
      <point x="725" y="1147"/>
      <point x="850" y="1147" type="curve" smooth="yes"/>
      <point x="947" y="1147"/>
      <point x="1026" y="1109"/>
      <point x="1081" y="1038" type="curve" smooth="yes"/>
      <point x="1136" y="966"/>
      <point x="1166" y="863"/>
      <point x="1166" y="731" type="curve" smooth="yes"/>
      <point x="1166" y="652"/>
      <point x="1155" y="565"/>
      <point x="1135" y="481" type="curve" smooth="yes"/>
      <point x="1115" y="396"/>
      <point x="1085" y="313"/>
      <point x="1048" y="244" type="curve" smooth="yes"/>
      <point x="952" y="67"/>
      <point x="807" y="-29"/>
      <point x="651" y="-29" type="curve" smooth="yes"/>
      <point x="499" y="-29"/>
      <point x="403" y="62"/>
      <point x="376" y="207" type="curve"/>
      <point x="253" y="-426" type="line"/>
      <point x="-40" y="-426" type="line"/>
    </contour>
    <contour>
      <point x="677" y="209"/>
      <point x="746" y="270"/>
      <point x="795" y="359" type="curve" smooth="yes"/>
      <point x="843" y="447"/>
      <point x="871" y="564"/>
      <point x="871" y="675" type="curve" smooth="yes"/>
      <point x="871" y="835"/>
      <point x="813" y="907"/>
      <point x="720" y="907" type="curve" smooth="yes"/>
      <point x="636" y="907"/>
      <point x="564" y="849"/>
      <point x="513" y="762" type="curve" smooth="yes"/>
      <point x="462" y="675"/>
      <point x="433" y="562"/>
      <point x="433" y="451" type="curve" smooth="yes"/>
      <point x="433" y="287"/>
      <point x="498" y="209"/>
      <point x="593" y="209" type="curve" smooth="yes"/>
    </contour>
  </outline>
</glyph>
<glyph name="uni0441" format="1">
  <advance width="1233"/>
  <unicode hex="0441"/>
  <note>
	uni0441
  </note>
  <outline>
    <contour>
      <point x="123" y="296"/>
      <point x="168" y="174"/>
      <point x="252" y="93" type="curve" smooth="yes"/>
      <point x="335" y="12"/>
      <point x="455" y="-29"/>
      <point x="606" y="-29" type="curve" smooth="yes"/>
      <point x="718" y="-29"/>
      <point x="826" y="-7"/>
      <point x="929" y="37" type="curve"/>
      <point x="985" y="313" type="line"/>
      <point x="856" y="240"/>
      <point x="758" y="209"/>
      <point x="659" y="209" type="curve" smooth="yes"/>
      <point x="498" y="209"/>
      <point x="419" y="291"/>
      <point x="419" y="472" type="curve" smooth="yes"/>
      <point x="419" y="597"/>
      <point x="458" y="707"/>
      <point x="526" y="785" type="curve" smooth="yes"/>
      <point x="593" y="863"/>
      <point x="688" y="909"/>
      <point x="803" y="909" type="curve" smooth="yes"/>
      <point x="906" y="909"/>
      <point x="997" y="871"/>
      <point x="1077" y="795" type="curve"/>
      <point x="1130" y="1061" type="line"/>
      <point x="1130" y="1401" type="line" smooth="yes"/>
      <point x="1130" y="1407"/>
      <point x="1126" y="1411"/>
      <point x="1120" y="1411" type="curve" smooth="yes"/>
      <point x="872" y="1411" type="line" smooth="yes"/>
      <point x="866" y="1411"/>
      <point x="862" y="1407"/>
      <point x="862" y="1401" type="curve" smooth="yes"/>
      <point x="862" y="1160" type="line" smooth="yes"/>
      <point x="862" y="1150"/>
      <point x="856" y="1145"/>
      <point x="846" y="1145" type="curve" smooth="yes"/>
      <point x="829" y="1146"/>
      <point x="811" y="1147"/>
      <point x="793" y="1147" type="curve" smooth="yes"/>
      <point x="592" y="1147"/>
      <point x="424" y="1072"/>
      <point x="307" y="949" type="curve" smooth="yes"/>
      <point x="190" y="825"/>
      <point x="123" y="653"/>
      <point x="123" y="457" type="curve" smooth="yes"/>
    </contour>
  </outline>
</glyph>
<glyph name="uni0444" format="1">
  <advance width="1233"/>
  <unicode hex="0444"/>
  <note>
	uni0444
  </note>
  <outline>
    <contour>
      <point x="381" y="-29" type="line"/>
      <point x="284" y="-20"/>
      <point x="204" y="35"/>
      <point x="148" y="112" type="curve" smooth="yes"/>
      <point x="92" y="189"/>
      <point x="61" y="290"/>
      <point x="61" y="394" type="curve" smooth="yes"/>
      <point x="61" y="439"/>
      <point x="67" y="500"/>
      <point x="78" y="559" type="curve" smooth="yes"/>
      <point x="101" y="678"/>
      <point x="145" y="782"/>
      <point x="202" y="867" type="curve" smooth="yes"/>
      <point x="258" y="951"/>
      <point x="327" y="1019"/>
      <point x="399" y="1067" type="curve" smooth="yes"/>
      <point x="470" y="1114"/>
      <point x="543" y="1140"/>
      <point x="610" y="1147" type="curve"/>
      <point x="689" y="1556" type="line"/>
      <point x="929" y="1556" type="line"/>
      <point x="850" y="1147" type="line"/>
      <point x="946" y="1136"/>
      <point x="1026" y="1085"/>
      <point x="1082" y="1009" type="curve" smooth="yes"/>
      <point x="1138" y="932"/>
      <point x="1170" y="831"/>
      <point x="1170" y="724" type="curve" smooth="yes"/>
      <point x="1170" y="677"/>
      <point x="1164" y="620"/>
      <point x="1152" y="559" type="curve" smooth="yes"/>
      <point x="1116" y="375"/>
      <point x="1034" y="234"/>
      <point x="936" y="136" type="curve" smooth="yes"/>
      <point x="838" y="38"/>
      <point x="724" y="-18"/>
      <point x="621" y="-29" type="curve"/>
      <point x="544" y="-426" type="line"/>
      <point x="304" y="-426" type="line"/>
    </contour>
    <contour>
      <point x="563" y="909" type="line"/>
      <point x="512" y="897"/>
      <point x="462" y="865"/>
      <point x="419" y="808" type="curve" smooth="yes"/>
      <point x="375" y="751"/>
      <point x="339" y="670"/>
      <point x="318" y="559" type="curve" smooth="yes"/>
      <point x="307" y="506"/>
      <point x="303" y="456"/>
      <point x="303" y="420" type="curve" smooth="yes"/>
      <point x="303" y="369"/>
      <point x="313" y="322"/>
      <point x="334" y="285" type="curve" smooth="yes"/>
      <point x="354" y="248"/>
      <point x="384" y="220"/>
      <point x="427" y="209" type="curve"/>
    </contour>
    <contour>
      <point x="667" y="209" type="line"/>
      <point x="719" y="221"/>
      <point x="768" y="252"/>
      <point x="811" y="308" type="curve" smooth="yes"/>
      <point x="854" y="363"/>
      <point x="889" y="444"/>
      <point x="912" y="559" type="curve" smooth="yes"/>
      <point x="923" y="612"/>
      <point x="928" y="658"/>
      <point x="928" y="697" type="curve" smooth="yes"/>
      <point x="928" y="746"/>
      <point x="919" y="795"/>
      <point x="899" y="832" type="curve" smooth="yes"/>
      <point x="878" y="869"/>
      <point x="847" y="897"/>
      <point x="803" y="909" type="curve"/>
    </contour>
  </outline>
</glyph>
<glyph name="uni044D" format="1">
  <advance width="1233"/>
  <unicode hex="044D"/>
  <note>
	uni044D
  </note>
  <outline>
    <contour>
      <point x="289" y="-29"/>
      <point x="182" y="0"/>
      <point x="95" y="57" type="curve"/>
      <point x="148" y="326" type="line"/>
      <point x="223" y="247"/>
      <point x="304" y="209"/>
      <point x="416" y="209" type="curve" smooth="yes"/>
      <point x="583" y="209"/>
      <point x="702" y="294"/>
      <point x="763" y="458" type="curve"/>
      <point x="286" y="458" type="line"/>
      <point x="329" y="677" type="line"/>
      <point x="801" y="677" type="line"/>
      <point x="796" y="832"/>
      <point x="716" y="909"/>
      <point x="559" y="909" type="curve" smooth="yes"/>
      <point x="448" y="909"/>
      <point x="342" y="871"/>
      <point x="239" y="795" type="curve"/>
      <point x="291" y="1063" type="line"/>
      <point x="407" y="1119"/>
      <point x="522" y="1147"/>
      <point x="649" y="1147" type="curve" smooth="yes"/>
      <point x="821" y="1147"/>
      <point x="934" y="1095"/>
      <point x="1005" y="1016" type="curve" smooth="yes"/>
      <point x="1076" y="937"/>
      <point x="1103" y="832"/>
      <point x="1103" y="724" type="curve" smooth="yes"/>
      <point x="1103" y="669"/>
      <point x="1097" y="612"/>
      <point x="1086" y="560" type="curve" smooth="yes"/>
      <point x="1050" y="375"/>
      <point x="971" y="227"/>
      <point x="856" y="127" type="curve" smooth="yes"/>
      <point x="741" y="26"/>
      <point x="593" y="-29"/>
      <point x="418" y="-29" type="curve" smooth="yes"/>
    </contour>
  </outline>
</glyph>
<glyph name="uni044E" format="1">
  <advance width="1233"/>
  <unicode hex="044E"/>
  <note>
	uni044E
  </note>
  <outline>
    <contour>
      <point x="1251" y="927"/>
      <point x="1279" y="844"/>
      <point x="1279" y="720" type="curve" smooth="yes"/>
      <point x="1279" y="616"/>
      <point x="1258" y="496"/>
      <point x="1219" y="384" type="curve" smooth="yes"/>
      <point x="1179" y="272"/>
      <point x="1121" y="167"/>
      <point x="1046" y="92" type="curve" smooth="yes"/>
      <point x="997" y="43"/>
      <point x="950" y="16"/>
      <point x="903" y="0" type="curve" smooth="yes"/>
      <point x="855" y="-16"/>
      <point x="808" y="-23"/>
      <point x="756" y="-28" type="curve"/>
      <point x="752" y="-29"/>
      <point x="749" y="-29"/>
      <point x="746" y="-29" type="curve" smooth="yes"/>
      <point x="743" y="-29"/>
      <point x="741" y="-29"/>
      <point x="740" y="-29" type="curve" smooth="yes"/>
      <point x="677" y="-29"/>
      <point x="622" y="-8"/>
      <point x="576" y="22" type="curve" smooth="yes"/>
      <point x="530" y="52"/>
      <point x="493" y="91"/>
      <point x="466" y="130" type="curve" smooth="yes"/>
      <point x="422" y="194"/>
      <point x="399" y="268"/>
      <point x="399" y="377" type="curve" smooth="yes"/>
      <point x="399" y="409"/>
      <point x="401" y="444"/>
      <point x="406" y="480" type="curve"/>
      <point x="304" y="480" type="line"/>
      <point x="211" y="0" type="line"/>
      <point x="-82" y="0" type="line"/>
      <point x="136" y="1120" type="line"/>
      <point x="429" y="1120" type="line"/>
      <point x="345" y="689" type="line"/>
      <point x="451" y="689" type="line"/>
      <point x="491" y="816"/>
      <point x="560" y="918"/>
      <point x="639" y="994" type="curve" smooth="yes"/>
      <point x="718" y="1069"/>
      <point x="808" y="1118"/>
      <point x="892" y="1138" type="curve" smooth="yes"/>
      <point x="917" y="1144"/>
      <point x="939" y="1147"/>
      <point x="960" y="1147" type="curve" smooth="yes"/>
      <point x="1007" y="1147"/>
      <point x="1055" y="1132"/>
      <point x="1099" y="1104" type="curve" smooth="yes"/>
      <point x="1143" y="1076"/>
      <point x="1181" y="1036"/>
      <point x="1212" y="988" type="curve" smooth="yes"/>
    </contour>
    <contour>
      <point x="1005" y="689"/>
      <point x="1005" y="708"/>
      <point x="1004" y="724" type="curve" smooth="yes"/>
      <point x="1002" y="755"/>
      <point x="1003" y="752"/>
      <point x="996" y="789" type="curve" smooth="yes"/>
      <point x="988" y="825"/>
      <point x="968" y="861"/>
      <point x="954" y="881" type="curve"/>
      <point x="947" y="890"/>
      <point x="941" y="895"/>
      <point x="938" y="895" type="curve"/>
      <point x="931" y="899"/>
      <point x="922" y="900"/>
      <point x="917" y="900" type="curve" smooth="yes"/>
      <point x="892" y="900"/>
      <point x="858" y="872"/>
      <point x="823" y="821" type="curve" smooth="yes"/>
      <point x="798" y="785"/>
      <point x="776" y="743"/>
      <point x="760" y="708" type="curve" smooth="yes"/>
      <point x="751" y="690"/>
      <point x="745" y="674"/>
      <point x="740" y="661" type="curve" smooth="yes"/>
      <point x="735" y="648"/>
      <point x="731" y="639"/>
      <point x="729" y="634" type="curve" smooth="yes"/>
      <point x="727" y="629"/>
      <point x="725" y="624"/>
      <point x="724" y="620" type="curve"/>
      <point x="720" y="611"/>
      <point x="717" y="600"/>
      <point x="714" y="584" type="curve"/>
      <point x="712" y="576"/>
      <point x="710" y="566"/>
      <point x="707" y="554" type="curve"/>
      <point x="690" y="469"/>
      <point x="683" y="415"/>
      <point x="680" y="383" type="curve" smooth="yes"/>
      <point x="679" y="367"/>
      <point x="678" y="356"/>
      <point x="679" y="350" type="curve"/>
      <point x="679" y="343"/>
      <point x="679" y="340"/>
      <point x="679" y="340" type="curve"/>
      <point x="682" y="333"/>
      <point x="684" y="325"/>
      <point x="687" y="316" type="curve" smooth="yes"/>
      <point x="690" y="307"/>
      <point x="691" y="302"/>
      <point x="692" y="301" type="curve"/>
      <point x="696" y="292" type="line"/>
      <point x="709" y="245"/>
      <point x="729" y="222"/>
      <point x="744" y="213" type="curve"/>
      <point x="753" y="206"/>
      <point x="764" y="202"/>
      <point x="775" y="202" type="curve" smooth="yes"/>
      <point x="791" y="202"/>
      <point x="811" y="212"/>
      <point x="832" y="228" type="curve" smooth="yes"/>
      <point x="852" y="244"/>
      <point x="874" y="267"/>
      <point x="893" y="294" type="curve" smooth="yes"/>
      <point x="914" y="325"/>
      <point x="931" y="358"/>
      <point x="943" y="389" type="curve" smooth="yes"/>
      <point x="949" y="404"/>
      <point x="954" y="419"/>
      <point x="958" y="433" type="curve" smooth="yes"/>
      <point x="962" y="447"/>
      <point x="966" y="459"/>
      <point x="969" y="470" type="curve"/>
      <point x="970" y="475"/>
      <point x="972" y="480"/>
      <point x="973" y="484" type="curve"/>
      <point x="976" y="491"/>
      <point x="978" y="501"/>
      <point x="982" y="517" type="curve"/>
      <point x="985" y="533"/>
      <point x="992" y="568"/>
      <point x="996" y="589" type="curve" smooth="yes"/>
      <point x="1000" y="610"/>
      <point x="1002" y="626"/>
      <point x="1003" y="642" type="curve"/>
      <point x="1004" y="649"/>
      <point x="1004" y="657"/>
      <point x="1004" y="666" type="curve"/>
    </contour>
  </outline>
</glyph>
<glyph name="uni0454" format="1">
  <advance width="1233"/>
  <unicode hex="0454"/>
  <note>
	uni0454
  </note>
  <outline>
    <contour>
      <point x="422" y="-29"/>
      <point x="308" y="10"/>
      <point x="231" y="83" type="curve" smooth="yes"/>
      <point x="154" y="156"/>
      <point x="113" y="262"/>
      <point x="113" y="397" type="curve" smooth="yes"/>
      <point x="113" y="449"/>
      <point x="119" y="502"/>
      <point x="130" y="559" type="curve" smooth="yes"/>
      <point x="166" y="743"/>
      <point x="246" y="891"/>
      <point x="361" y="992" type="curve" smooth="yes"/>
      <point x="476" y="1093"/>
      <point x="624" y="1149"/>
      <point x="797" y="1149" type="curve" smooth="yes"/>
      <point x="918" y="1149"/>
      <point x="1021" y="1123"/>
      <point x="1121" y="1063" type="curve"/>
      <point x="1069" y="795" type="line"/>
      <point x="997" y="868"/>
      <point x="903" y="909"/>
      <point x="791" y="909" type="curve" smooth="yes"/>
      <point x="695" y="909"/>
      <point x="624" y="878"/>
      <point x="571" y="834" type="curve" smooth="yes"/>
      <point x="518" y="790"/>
      <point x="484" y="732"/>
      <point x="461" y="677" type="curve"/>
      <point x="873" y="677" type="line"/>
      <point x="832" y="468" type="line"/>
      <point x="415" y="468" type="line"/>
      <point x="412" y="400"/>
      <point x="425" y="335"/>
      <point x="462" y="288" type="curve" smooth="yes"/>
      <point x="499" y="241"/>
      <point x="562" y="211"/>
      <point x="659" y="211" type="curve" smooth="yes"/>
      <point x="768" y="211"/>
      <point x="874" y="249"/>
      <point x="977" y="326" type="curve"/>
      <point x="925" y="57" type="line"/>
      <point x="816" y="0"/>
      <point x="697" y="-29"/>
      <point x="569" y="-29" type="curve" smooth="yes"/>
    </contour>
  </outline>
</glyph>
<glyph name="uni0459" format="1">
  <advance width="1233"/>
  <unicode hex="0459"/>
  <note>
	uni0459
  </note>
  <outline>
    <contour>
      <point x="-57" y="240" type="line"/>
      <point x="-47" y="240" type="line" smooth="yes"/>
      <point x="22" y="240"/>
      <point x="68" y="249"/>
      <point x="102" y="278" type="curve" smooth="yes"/>
      <point x="136" y="306"/>
      <point x="158" y="356"/>
      <point x="182" y="439" type="curve" smooth="yes"/>
      <point x="191" y="474"/>
      <point x="203" y="519"/>
      <point x="214" y="565" type="curve" smooth="yes"/>
      <point x="225" y="611"/>
      <point x="235" y="659"/>
      <point x="243" y="700" type="curve" smooth="yes"/>
      <point x="325" y="1120" type="line"/>
      <point x="923" y="1120" type="line"/>
      <point x="841" y="698" type="line"/>
      <point x="852" y="698" type="line" smooth="yes"/>
      <point x="959" y="698"/>
      <point x="1044" y="670"/>
      <point x="1103" y="622" type="curve" smooth="yes"/>
      <point x="1162" y="574"/>
      <point x="1194" y="506"/>
      <point x="1194" y="429" type="curve" smooth="yes"/>
      <point x="1194" y="405"/>
      <point x="1191" y="379"/>
      <point x="1186" y="350" type="curve" smooth="yes"/>
      <point x="1165" y="233"/>
      <point x="1100" y="145"/>
      <point x="1014" y="87" type="curve" smooth="yes"/>
      <point x="928" y="29"/>
      <point x="820" y="0"/>
      <point x="716" y="0" type="curve" smooth="yes"/>
      <point x="465" y="0" type="line"/>
      <point x="640" y="901" type="line"/>
      <point x="522" y="901" type="line"/>
      <point x="484" y="704" type="line"/>
      <point x="481" y="692"/>
      <point x="478" y="673"/>
      <point x="473" y="646" type="curve" smooth="yes"/>
      <point x="463" y="592"/>
      <point x="445" y="519"/>
      <point x="421" y="439" type="curve" smooth="yes"/>
      <point x="397" y="358"/>
      <point x="366" y="277"/>
      <point x="327" y="206" type="curve" smooth="yes"/>
      <point x="287" y="134"/>
      <point x="234" y="64"/>
      <point x="128" y="28" type="curve" smooth="yes"/>
      <point x="75" y="9"/>
      <point x="12" y="0"/>
      <point x="-60" y="0" type="curve" smooth="yes"/>
      <point x="-104" y="0" type="line"/>
    </contour>
    <contour>
      <point x="765" y="219" type="line" smooth="yes"/>
      <point x="805" y="219"/>
      <point x="851" y="233"/>
      <point x="887" y="258" type="curve" smooth="yes"/>
      <point x="923" y="283"/>
      <point x="949" y="321"/>
      <point x="949" y="370" type="curve" smooth="yes"/>
      <point x="949" y="410"/>
      <point x="932" y="438"/>
      <point x="906" y="455" type="curve" smooth="yes"/>
      <point x="880" y="472"/>
      <point x="847" y="479"/>
      <point x="815" y="479" type="curve" smooth="yes"/>
      <point x="798" y="479" type="line"/>
      <point x="748" y="219" type="line"/>
    </contour>
  </outline>
</glyph>
<glyph name="uni045E" format="1">
  <advance width="1233"/>
  <unicode hex="045E"/>
  <note>
	uni045E
  </note>
  <outline>
    <contour>
      <point x="550" y="1270"/>
      <point x="451" y="1355"/>
      <point x="451" y="1534" type="curve" smooth="yes"/>
      <point x="451" y="1567" type="line"/>
      <point x="595" y="1567" type="line"/>
      <point x="595" y="1554" type="line" smooth="yes"/>
      <point x="595" y="1473"/>
      <point x="657" y="1421"/>
      <point x="761" y="1421" type="curve" smooth="yes"/>
      <point x="866" y="1421"/>
      <point x="949" y="1475"/>
      <point x="982" y="1567" type="curve"/>
      <point x="1125" y="1567" type="line"/>
      <point x="1086" y="1382"/>
      <point x="957" y="1270"/>
      <point x="741" y="1270" type="curve" smooth="yes"/>
    </contour>
    <contour>
      <point x="-20" y="-201" type="line"/>
      <point x="97" y="-201" type="line" smooth="yes"/>
      <point x="152" y="-201"/>
      <point x="194" y="-196"/>
      <point x="232" y="-172" type="curve" smooth="yes"/>
      <point x="270" y="-148"/>
      <point x="304" y="-105"/>
      <point x="344" y="-29" type="curve" smooth="yes"/>
      <point x="383" y="45" type="line"/>
      <point x="166" y="1120" type="line"/>
      <point x="463" y="1120" type="line"/>
      <point x="590" y="420" type="line"/>
      <point x="973" y="1120" type="line"/>
      <point x="1282" y="1120" type="line"/>
      <point x="576" y="-121" type="line" smooth="yes"/>
      <point x="501" y="-253"/>
      <point x="443" y="-329"/>
      <point x="383" y="-372" type="curve" smooth="yes"/>
      <point x="322" y="-415"/>
      <point x="259" y="-424"/>
      <point x="175" y="-424" type="curve" smooth="yes"/>
      <point x="-65" y="-424" type="line"/>
    </contour>
  </outline>
</glyph>
